<?xml version="1.0" encoding="UTF-8" standalone="no"?>
<!-- Created with Inkscape (http://www.inkscape.org/) -->

<svg
   xmlns:dc="http://purl.org/dc/elements/1.1/"
   xmlns:cc="http://creativecommons.org/ns#"
   xmlns:rdf="http://www.w3.org/1999/02/22-rdf-syntax-ns#"
   xmlns:svg="http://www.w3.org/2000/svg"
   xmlns="http://www.w3.org/2000/svg"
   xmlns:sodipodi="http://sodipodi.sourceforge.net/DTD/sodipodi-0.dtd"
   xmlns:inkscape="http://www.inkscape.org/namespaces/inkscape"
   width="19.794273mm"
   height="11.627467mm"
   viewBox="0 0 19.794273 11.627467"
   version="1.1"
   id="svg27634"
   inkscape:version="0.92.3 (2405546, 2018-03-11)"
   sodipodi:docname="49ers.svg">
  <defs
     id="defs27628" />
  <sodipodi:namedview
     id="base"
     pagecolor="#ffffff"
     bordercolor="#666666"
     borderopacity="1.0"
     inkscape:pageopacity="0.0"
     inkscape:pageshadow="2"
     inkscape:zoom="0.35"
     inkscape:cx="-1486.8792"
     inkscape:cy="801.97318"
     inkscape:document-units="mm"
     inkscape:current-layer="layer1"
     showgrid="false"
     fit-margin-top="0"
     fit-margin-left="0"
     fit-margin-right="0"
     fit-margin-bottom="0"
     inkscape:window-width="1920"
     inkscape:window-height="1043"
     inkscape:window-x="0"
     inkscape:window-y="0"
     inkscape:window-maximized="1" />
  <metadata
     id="metadata27631">
    <rdf:RDF>
      <cc:Work
         rdf:about="">
        <dc:format>image/svg+xml</dc:format>
        <dc:type
           rdf:resource="http://purl.org/dc/dcmitype/StillImage" />
        <dc:title></dc:title>
      </cc:Work>
    </rdf:RDF>
  </metadata>
  <g
     inkscape:label="Layer 1"
     inkscape:groupmode="layer"
     id="layer1"
     transform="translate(-338.59691,-349.3946)">
    <g
       transform="matrix(0.26458333,0,0,0.26458333,20.934461,212.06977)"
       id="g3747">
      <path
         style="stroke:#000000;stroke-width:0.5"
         inkscape:connector-curvature="0"
         id="path3729"
         d="m 1238.194,562.707 c 20.929,-0.43 36.983,-10.586 36.983,-21.502 0,-10.916 -14.037,-21.932 -36.839,-21.932 -21.788,0 -37.474,10.156 -37.474,21.071 0,10.915 15.402,22.812 37.33,22.363 z" />
      <path
         style="fill:#deca28;stroke:#deca28;stroke-width:0.5"
         inkscape:connector-curvature="0"
         id="path3731"
         d="m 1237.479,560.986 c 19.924,-0.144 33.398,-8.6 33.398,-20.068 0,-9.797 -11.324,-20.354 -33.542,-20.067 -23.22,0.299 -31.965,10.558 -31.965,20.354 0,9.796 11.75,19.926 32.109,19.781 z" />
      <path
         style="fill:#da382a;stroke:#da382a;stroke-width:0.5"
         inkscape:connector-curvature="0"
         id="path3733"
         d="m 1237.766,560.128 c 18.695,0 30.532,-9.39 30.532,-19.354 0,-9.964 -11.837,-18.902 -30.532,-18.902 -18.697,0 -30.103,9.082 -30.103,19.046 0,9.964 11.405,19.21 30.103,19.21 z" />
      <path
         style="stroke:#000000;stroke-width:0.5"
         inkscape:connector-curvature="0"
         id="path3735"
         d="m 1260.316,538.433 h 1.627 v 8.22 h -2.964 v -5.064 h -12.231 -4.396 l -2.39,2.102 v 3.633 l 10.227,-0.097 1.72,-4.301 h 2.103 v 10.607 h -2.868 v -3.822 h -8.409 v 3.249 c 0,0 1.72,1.625 4.014,1.529 l 0.765,0.67 v 2.482 h -17.488 v -2.292 l 6.785,-2.104 -0.287,-11.753 h -4.586 v -2.485 z" />
      <path
         style="stroke:#000000;stroke-width:0.5"
         inkscape:connector-curvature="0"
         id="path3737"
         d="m 1260.214,538.09 h 1.624 v 8.219 h -2.962 v -5.066 h -12.231 -4.396 l -2.391,2.104 v 3.631 l 10.228,-0.096 1.72,-4.3 h 2.101 v 10.607 h -2.865 v -3.822 h -8.41 v 3.249 c 0,0 1.72,1.625 4.014,1.529 l 0.765,0.669 v 2.484 h -17.487 v -2.294 l 6.783,-2.103 -0.286,-11.754 h -4.586 v -2.484 z" />
      <path
         style="fill:#ffffff;stroke:#000000"
         inkscape:connector-curvature="0"
         id="path3739"
         d="m 1260.404,537.898 h -28.667 v 1.911 h 2.771 c 0,0 0.86,0.669 0.956,1.815 v 10.226 c 0,0 -0.479,2.58 -5.83,2.485 v 1.623 h 16.533 v -1.433 c 0,0 -4.589,-0.382 -4.969,-2.58 v -3.918 h 5.924 c 0,0 3.058,0.572 3.536,3.535 h 1.816 v -9.174 h -1.626 c 0,0 0.287,5.063 -9.844,2.963 V 540 h 14.813 c 0,0 2.656,0.621 2.848,4.825 l 1.691,0.002 z" />
      <path
         style="stroke:#000000;stroke-width:0.5"
         inkscape:connector-curvature="0"
         id="path3741"
         d="m 1247.505,525.57 h 1.243 v 6.212 h -3.824 c 0,0 -3.993,-2.98 -8.627,-3.437 -4.037,-0.396 -4.169,0 -4.169,0 0,0 -2.515,0.53 -0.87,2.099 1.273,1.212 10.131,0.764 10.131,0.764 0,0 6.423,0.447 7.74,5.447 0,0 1.912,7.646 -8.6,8.888 0,0 -8.812,1.276 -13.564,-1.049 0,0 -0.58,1.814 -1.535,2.292 h -3.154 v -4.778 l 14.43,1.434 8.505,-3.727 -0.189,-3.538 -13.571,-2.293 -5.924,-1.814 2.58,-4.492 7.645,-1.529 5.733,1.242 3.154,-0.859 z" />
      <path
         style="stroke:#000000;stroke-width:0.5"
         inkscape:connector-curvature="0"
         id="path3743"
         d="m 1221.737,532.119 c 0,0 -0.194,4.977 6.557,5.605 0,0 1.092,0.131 4.33,0.119 2.771,-0.012 8,0.149 8,0.149 0,0 1.433,0.574 1.242,1.528 -0.189,0.957 -1.72,2.104 -3.535,2.199 -1.816,0.095 -3.439,0.095 -3.439,0.095 l -0.191,0.956 4.777,0.383 3.919,-3.249 v -2.294 l -2.677,-1.911 -14.048,-0.954 -3.917,-2.199 z" />
      <path
         style="fill:#ffffff;stroke:#000000"
         inkscape:connector-curvature="0"
         id="path3745"
         d="m 1247.505,525.284 h -4.874 l -1.147,0.764 c 0,0 -8.435,-2.196 -15.672,0.67 -3.61,1.43 -8.044,8.445 2.61,9.834 l 4.604,0.046 h 1.969 c 0,0 4.711,-0.08 6.09,0.33 1.419,0.42 3.221,1.776 -0.121,3.729 -0.107,0.062 -1.158,0.595 -2.306,0.859 0,0 -11.029,1.447 -14.278,-3.713 h -2.676 v 8.027 h 2.771 c 0,0 1.241,-1.625 1.338,-2.581 0,0 7.837,2.39 13.57,1.242 0,0 8.628,-1.057 8.628,-7.674 0,0 0.463,-4.722 -7.672,-5.705 0,0 -8.441,-0.317 -9.176,-0.38 -0.818,-0.073 -3.933,-1.674 0.104,-3.031 0,0 6.299,-1.653 12.799,2.743 h 3.344 z" />
    </g>
  </g>
</svg>
