<?xml version="1.0" encoding="UTF-8"?>
<svg version="1.1" viewBox="0 0 16.186 10.753" xmlns="http://www.w3.org/2000/svg" xmlns:cc="http://creativecommons.org/ns#" xmlns:dc="http://purl.org/dc/elements/1.1/" xmlns:rdf="http://www.w3.org/1999/02/22-rdf-syntax-ns#">
 <metadata>
  <rdf:RDF>
   <cc:Work rdf:about="">
    <dc:format>image/svg+xml</dc:format>
    <dc:type rdf:resource="http://purl.org/dc/dcmitype/StillImage"/>
    <dc:title/>
   </cc:Work>
  </rdf:RDF>
 </metadata>
 <g transform="translate(-97.74 -143.46)">
  <g transform="matrix(.26458 0 0 .26458 -93.575 5.324)">
   <path d="m771.35 534.87h11.345s-4.004-12.122-26.694-12.791c0 0-18.909-.111-25.359 13.569 0 0-1.446 6.229-7.564 7.565 0 0 4.784.333 8.12 7.674 0 0 7.452 12.68 25.137 11.79 0 0 23.914 1.001 27.918-18.019h-11.012s-1.112 2.559-1.779 3.448c0 0-1.998 4.255-14.349 4.335-12.35.078-7.204-23.117.554-23.117 7.758.001 13.683 5.546 13.683 5.546z" style="fill:#0d6492"/>
   <path d="m770.46 533.31h9.121s-6.562-9.455-23.802-9.344c0 0-15.239-.667-23.024 11.457 0 0-2.336 6.006-5.228 7.562 0 0 3.67 2.781 6.562 8.453 0 0 8.12 10.121 22.469 9.344 0 0 20.354.223 25.471-14.349h-7.341s-1.779 3.338-3.225 4.115l-.335.068s-11.48 2.85-16.152.712c-4.672-2.137-3.834-18.018 15.484-18.018z" style="fill:#eea434;stroke:#ffffff"/>
   <path d="m740.68 550.33-1.34-1.127c-6.117-7.896 1.779-14.015 1.779-14.015l.16.334.34.438" style="fill:#0d6492;stroke:#ffffff"/>
   <g>
    <path d="m770.15 532.98s.92-2.272.758-3.139c-.162-.866-.278-2.356-1.732-2.816-1.028-.324-2.165-.433-2.923.108-.757.542-2.058 2.545-2.058 2.545s-4.818-.866-5.143-.866-2.87-.108-4.169 0-5.414.812-5.414.812l-1.732-1.895s-1.462-1.029-1.679-1.029-2.165-.324-3.085 1.3c-.32.565-.345 2.267-.109 3.6.14.789.596 1.868.596 1.868l-2.381 1.786.541.703s-1.354 4.17-1.462 5.792c-.108 1.625.325 3.79.325 3.79s0 4.548.65 6.173c.356.891 1.624 3.086 1.841 3.464.216.379 1.408.975 1.732 1.191.712.474.812.688 2.86.78 1.894.086 2.072.675 2.45.892.379.216 2.16.223 2.972.223s2.019.506 2.776.667c.757.163 1.248.335 1.849.201 1.445-.32 2.471-1.588 3.542-1.894.215-.062 1.244-.07 2.272-.179 1.029-.107 3.206-.295 3.477-.312 1.731-.108 2.975-.757 3.353-1.354.38-.594 1.029-2.326.975-3.139-.053-.812-.34-3.811-.433-4.223-.108-.487.65-1.19 1.516-2.164.758-.855 1.733-3.305 1.733-3.899s-.216-2.436-.704-3.41c-.486-.974-3.194-5.576-3.194-5.576z" style="fill:#0d6492;stroke:#ffffff"/>
    <path d="m754.07 553.77.379 1.842s.433-.544.541-.921c.108-.38.326-1.084.326-1.084s.27.921.324 1.192c.054.269.704.324 1.299.378.378.036 1.029-.27 1.029-.27l.163-1.301.704 1.029.65-1.731.541 2.109.271 1.084s-.705.379-.866.54c-.163.163-.758.976-1.191 1.138-.433.163-.812.758-1.408.541s-2.923-2.273-2.923-2.273l-.487-.487s-.487-.054-.108-.542c.379-.486.469-1.044.469-1.044l.126-.524s-.163-.623-.433-1.3c-.293-.733-2.277-.963-2.734-1.19-.162-.081-3.303-.758-3.844-1.19-.541-.435-2.274-2.735-2.002-2.708.27.025 1.154 1.255 1.939 1.696.595.335 1.119.386 1.119.212 0-.148-1.218-1.584-1.218-1.584s-1.164-1.514-1.597-2.129c-.775-1.099-2.021-4.007-2.021-4.007s-.292 1.514-.145 2.319c.298 1.625 1.21 3.324 1.119 3.492-.216.396-.279-.567-.767-1.003-.488-.432-1.164-1.325-1.164-1.325l.542 1.895 1.101 2.599.974 1.155.903.578s2.166 1.19 2.381 1.19c.217 0 1.506.968 2.058 1.408.271.216.794.83.794.83s-.613-.308-1.046-.362c-.433-.053-1.805-.668-2.346-.938-.541-.269-1.732-1.424-1.949-1.695s-.488-.162-.488-.162l.65 1.137 1.101 1.227s1.589 1.245 1.95 1.588c.199.19.721.435 1.299 1.229.249.341.469 1.01.469 1.01s-1.523-.946-1.678-1.101c-.216-.217-1.173-.812-2.4-1.859-1.228-1.046-3.141-4.006-3.068-3.338.072.668.216.613.433 1.209.298.817.466 1.39.83 1.804.379.435 1.064.669 1.606 1.426.542.759.595.867.595.867l-.649-.217s-1.786-.921-2.382-1.732c-.596-.813-1.949-3.79-2.165-4.927-.217-1.137-.164-3.464-.108-4.386.054-.92.324-2.002.324-2.002l.325-.921s-.053-.443-.297-.243c-.298.243-.596.649-.596.649-.243-.189.203-1.407 0-1.84l1.307-2.514-.629.185s.162-.568.595-1.271c.433-.705 1.705-1.883 1.705-1.883l-.405-.148c-.082-.054 1.975-2.246 2.598-2.462 0 0-.459-.108-.785-.163-.168-.028-.785-.055-.785-.055l.866-.433.379-.135s-.108.026.758-.19 1.109-.108 1.109-.108-.487-.54-.217-.54c.271 0 1.543-.435 2.193-.704.649-.271 1.976-.379 2.653-.271.537.086 2.436.596 2.436.596s.163-.056.92-.542c.758-.487 1.895-.678 3.032-.704 1.168-.027 5.413 1.083 5.413 1.083.109-.324.92-1.165 1.191-1.596.271-.435 1.409-.679 1.733-.732.325-.054.379.108.379.108s-.217.487-.217.975-.434 1.029-.541 1.353c-.108.325-1.407 1.625-1.407 1.625l.838.216-.271.731.732-.082s-.38.977-.108.867.867.054.867.054l-1.029.812.731.46s-.409.261-.812.486c-.433.244-.677.732-.894 1.057-.216.325-.433.136-.433.136l-.649-.516-.866-.677s.595.136.866.083c.271-.056.379 0 .379-.271s-.379-.435-.596-.543c-.216-.107-.595-.162-1.353-.216-.759-.054-1.895-.027-2.329.026-.235.031-1.173.175-1.705.217-.443.036-.515-.027-.515-.027s.829-.533 1.571-.865c.686-.309 1.544-.466 1.57-.542.054-.162-1.064-.019-1.877.036 0 0-.803.045-1.236.262-.433.216-1.543.84-1.543.84s-.68-.735-1.029-.976c-.433-.297-1.57-.486-1.57-.486s.975 1.624.758 1.407c-.217-.216-1.759-.325-1.759-.325s1.706 2.221 1.353 2.03c-.352-.189-.378-.486-.893-.623-.54-.141-1.878-.354-2.491-.433-1.271-.162-3.031-.975-3.031-.975s.487.812.595 1.03c.108.216.65.377 1.191.539.541.163 1.678 1.354 1.678 1.354s-.581-.189-.974-.215c-1.218-.082-1.895.054-1.895.054.92.107 3.249 1.516 3.249 1.516h-.812s-1.299 0-2.382.271-1.949 1.787-1.949 1.787.271 0 .758-.109c.487-.108 1.921.055 1.921.055s-1.042 1.074-1.096 1.236c-.055.162-.771 1.2-.771 1.281s-.123 1.886-.123 2.266c0 .378.406 1.596.406 1.759s.974 1.246.974 1.246-.026-.082-.053-.354c-.028-.271-.054-.541-.054-.784 0-.245.026-.487.026-.487s.42.469.556.793c.135.325.216.65.379 1.082.163.435.419.913.528 1.075.108.162.243.109.243.109l.108-.136s-.054-.677-.054-1.219c0-.541.149-.886.203-1.02.055-.135.068-.443.068-.443s.433.271.541.488c.109.217.219 1.19.352 1.921.041.228.149.523.149.523s.253-.066.352-.296c.163-.381.352-1.083.352-1.083s.596.947.663 1.397c.077.516.515 2.383.515 2.383l.195 1.417" style="fill:#ffffff"/>
    <path d="m758.95 538.18c-.096-.028-3.79.054-3.79.054s-.488.325-.542.649.182.92.217 1.135c.098.587.026.99-.201 1.202-.356.334-.773-.876-.773-.876s-.054-.378-.325-.16c-.271.216-.974 1.082-1.137 1.515-.161.434-.487 1.354-.487 2.056 0 .706.271 1.951.434 2.222.162.27.974.866 1.245.866h1.137s-.56 1.19-.487 1.479c.072.289.343.632.505 1.01.162.379.289.794.289.794l.18-.036-.253-1.335s-.072-.47.199-.505c.611-.081 1.57-.543 1.678-.704.108-.163.108.108.379.271.271.162.867.217 1.137.324.271.109.145.397.433.614.098.072 0 .794.108 1.119s.379-.542.379-1.408-.162-1.516-.162-1.516.216 0 1.137-.162c.92-.163 2.707-1.028 2.544-3.521-.059-.903-.487-2.488-2.49-2.813 0 0-.081.193-.271.433-.343.434-.812.271-.812.271s-.144-.019-.162-.65c-.025-.866-.027-1.867-.027-1.867s.012-.435-.082-.461z" style="fill:#ffffff"/>
    <path d="m770.37 536.56s-2.356.649-3.925 1.516c-.649.487-2.057.894-2.057.894l1.001.92 3.574 2.301 1.245.595s-.163-.459-.65-.894c-.487-.433-1.543-1.136-1.543-1.136l-.946-.785s-.055-.541.162-.379c.215.163 1.08.461 2.03 1.245.623.515 1.272.65 1.272.65s1.381.269 1.57.269c.19 0-1.164-.893-1.164-.893l.622-.08s-.162-.516-.622-.758c-.239-.128-.46-.407-.46-.407l.705-.08-1.977-1.354c-.001 0 1.054-1.164 1.163-1.624z" style="fill:#ffffff"/>
    <path d="m762.18 539.73s1.84 1.263 1.985 1.515c.144.253.361.471.361.471s-.036.215-.18.072c-.145-.145-.795-.507-.795-.507s-.432-.253-.649-.324c-.216-.072-.505-.397-.613-.469s-.614-.397-.614-.577c0-.181-.108-.36.036-.36s.469.179.469.179z" style="fill:#ffffff"/>
    <path d="m767.85 543.02s1.523 1.263 1.704 1.768c.181.506.325.922.325.922s.173.486-.007.919c-.181.434-.21.704-.21.704s-.197-.108-.27-.433-.163-1.082-.271-1.19c-.108-.109-.379-.813-.704-1.138s-1.18-1.262-1.18-1.262l-.252-.724z" style="fill:#ffffff"/>
    <path d="m765.1 542.85c.247.24 1.403 1.681 1.733 2.143.33.463.897 1.461 1.185 2.221.116.305.259 1.218.259 1.218l-.134-.055s-.484-1.147-.633-1.417c-.379-.687-.63-1.075-.787-1.306-.48-.712-.673-1.087-.673-1.087l-.926-1.427s-.271-.534-.024-.29z" style="fill:#ffffff"/>
    <path d="m764.42 545.45h.397s.216.217.325.47c.108.252.613 1.625.613 1.625l-.145.07-.072-.144-.649-1.155z" style="fill:#ffffff"/>
    <path d="m763.59 546.67c.134.163.463 1.902.463 1.902l-.189-.046-.497-1.387c0 .001.089-.632.223-.469z" style="fill:#ffffff"/>
    <path d="m759.4 544.28s.819-1.345-.432-1.624c-1.3-.288-2.888-.108-2.888-.108s-.957-.018-1.516.253c-.138.065-.252.668-.252.831 0 .162.072.595.234.757.162.163.325-.271.325-.271s-.054-.323.216-.27c.271.054.415.36.415.36l-.244.456-.212.534s-.013.219.257.219h3.303c.283-.084.038-.364-.062-.542-.135-.24-.371-.595-.371-.595s.178-.646.449-.375c.271.272.417.755.417.755z" style="fill:#0d6492"/>
   </g>
  </g>
 </g>
</svg>
