<?xml version="1.0" encoding="UTF-8" standalone="no"?>
<svg
   xmlns:dc="http://purl.org/dc/elements/1.1/"
   xmlns:cc="http://creativecommons.org/ns#"
   xmlns:rdf="http://www.w3.org/1999/02/22-rdf-syntax-ns#"
   xmlns:svg="http://www.w3.org/2000/svg"
   xmlns="http://www.w3.org/2000/svg"
   xmlns:sodipodi="http://sodipodi.sourceforge.net/DTD/sodipodi-0.dtd"
   xmlns:inkscape="http://www.inkscape.org/namespaces/inkscape"
   version="1.1"
   viewBox="0 0 13.226276 9.3125516"
   id="svg20"
   sodipodi:docname="bills.svg"
   width="13.226275"
   height="9.3125515"
   inkscape:version="0.92.3 (2405546, 2018-03-11)">
  <defs
     id="defs24" />
  <sodipodi:namedview
     pagecolor="#ffffff"
     bordercolor="#666666"
     borderopacity="1"
     objecttolerance="10"
     gridtolerance="10"
     guidetolerance="10"
     inkscape:pageopacity="0"
     inkscape:pageshadow="2"
     inkscape:window-width="1920"
     inkscape:window-height="1043"
     id="namedview22"
     showgrid="false"
     fit-margin-top="0"
     fit-margin-left="0"
     fit-margin-right="0"
     fit-margin-bottom="0"
     inkscape:zoom="19.096942"
     inkscape:cx="1.233835"
     inkscape:cy="4.5918301"
     inkscape:window-x="0"
     inkscape:window-y="0"
     inkscape:window-maximized="1"
     inkscape:current-layer="svg20" />
  <metadata
     id="metadata2">
    <rdf:RDF>
      <cc:Work
         rdf:about="">
        <dc:format>image/svg+xml</dc:format>
        <dc:type
           rdf:resource="http://purl.org/dc/dcmitype/StillImage" />
        <dc:title></dc:title>
      </cc:Work>
    </rdf:RDF>
  </metadata>
  <path
     d="M 12.029924,1.3097996 C 11.686764,0.53775524 10.72819,0.08691084 10.72819,0.08691084 l 0.08572,0.3008275 C 9.8698926,-0.04167496 9.5264676,0.00118694 9.5264676,0.00118694 l 0.171712,0.3005629 -1.0300097,-0.042862 0.085724,0.2145744 C 6.865851,0.38800294 5.6643932,2.1038042 5.6643932,2.1038042 4.4415044,2.3398095 3.4329255,3.3912505 3.4329255,3.3912505 L 1.2014577,3.5629629 0,5.7081775 2.5743634,5.2792933 c 0,0.6005966 -1.0297454,1.2869172 -1.3731702,1.2869172 C 1.2871817,7.1670716 1.0297453,7.5102319 0.600332,7.5102319 0.6863205,7.8536567 0.3428956,8.196817 0.3428956,8.196817 L 1.1154692,9.3125512 1.544618,7.9396452 1.9737668,7.6819443 1.8020543,8.1110931 2.531766,8.9693902 3.0037767,7.6819443 5.2349798,5.8796254 C 5.5889879,5.9198414 6.1252915,6.048692 6.1252915,6.048692 L 6.4364376,5.7939014 H 6.9944368 L 6.6941385,6.0087404 6.2972685,7.1535781 7.2090112,6.7379229 H 7.6378954 L 7.3804591,7.6819443 8.2387566,7.3390486 C 9.7725266,7.2715806 10.212524,6.9069895 10.07309,5.673253 l 0.39687,0.1206484 -0.171712,1.03001 0.643723,-0.5603805 0.04286,0.098953 0.783157,-0.7858026 c 0.675737,0.1717124 0.947461,-1.0628179 0.947461,-1.0628179 0,0 0.231772,-0.1021279 0.414861,-0.6080048 0.214574,-0.593453 0.04974,-1.8935991 -0.300298,-2.3169271 -0.442643,-0.5363037 -0.80009,-0.2791319 -0.80009,-0.2791319 z"
     style="fill:#ffffff;stroke-width:0.26458001"
     id="path6"
     inkscape:connector-curvature="0" />
  <path
     d="M 11.916154,1.5664422 C 11.744442,0.88012174 10.964989,0.46155614 10.964989,0.46155614 l 0.02143,0.214839 c -0.201081,-0.1111236 -0.783157,-0.418301 -1.0300104,-0.39687 l 0.08599,0.2145744 C 9.7849626,0.39752784 8.9695266,0.45123754 8.9695266,0.45123754 l 0.118267,0.2685487 C 7.6609139,0.34408264 6.0803129,1.7389484 5.9660144,2.1966718 4.7645566,2.4824182 4.0459573,3.0367133 3.7025325,3.3798735 L 12.574165,2.6184123 c -0.654306,0.5765198 -0.772309,0.9307924 -0.514873,1.2522571 0,0 -0.214574,0.1608647 0.07488,0.3540081 -0.139433,0.083078 -0.600596,-0.064028 -0.461163,-0.4048074 L 2.8479391,5.1999193 C 2.7905252,5.7436312 2.0827737,6.5767937 1.3887804,6.7162273 1.4747689,7.2308354 1.3030565,7.5173756 0.7881838,7.6599842 L 0.5878967,8.1751214 1.0741948,8.8900162 1.3318957,7.9462597 C 1.7607799,7.5742603 2.1936327,7.4358849 2.2648048,7.1855922 3.0588093,5.9627035 3.9239859,5.2618311 6.0194595,5.8364988 L 6.3734676,5.5549857 7.9500998,5.6298618 7.2420837,5.8364988 7.1992218,6.0185299 6.8237827,6.1254202 6.5771942,6.8231176 7.145512,6.5310213 c 1.4697419,0.1500169 1.8846036,-0.1608646 2.1420396,-0.5611742 0.186794,-0.2905088 0.153986,-0.6484855 0.153986,-0.6484855 0,0 1.1334604,0.3190834 1.1763224,0.3910492 0.04948,0.08202 -0.114563,0.7675466 -0.114563,0.7675466 l 0.50429,-0.5357745 0.06456,0.093661 0.600597,-0.6222922 c 0.547151,0.085989 0.707222,-0.4460818 0.901159,-0.9307924 0.171448,-0.4291488 0.22357,-0.099482 0.418301,-0.6008612 0.07514,-0.1928788 0.171713,-0.8474497 -0.06059,-1.6665894 -0.351364,-1.23796946 -1.01546,-0.6508665 -1.01546,-0.6508665 z"
     style="fill:#244a9a;stroke-width:0.26458001"
     id="path8"
     inkscape:connector-curvature="0" />
  <path
     d="M 4.9577,5.8050138 C 3.6596705,5.7301377 3.1231023,6.3521652 2.6619393,6.824176 2.6296606,7.3147073 2.5439367,7.4006958 2.2327906,7.5967496 L 2.0182162,8.0793435 2.4902269,8.6262302 2.9193757,7.5104965 Z"
     style="fill:#0d4ba0;stroke-width:0.26458001"
     id="path10"
     inkscape:connector-curvature="0" />
  <path
     d="m 9.5587466,5.484872 c 0,0.772309 -0.676002,1.2842713 -1.7486096,1.2199784 L 7.5847148,7.4586388 8.207007,7.1900901 c 1.898891,0.0082 1.830629,-0.8749661 1.7234736,-1.5827176 z"
     style="fill:#0d4ba0;stroke-width:0.26458001"
     id="path12"
     inkscape:connector-curvature="0" />
  <path
     d="M 11.942612,2.7967392 1.329779,3.7407606 0.3569184,5.4573557 11.642314,3.669324 c -0.304002,-0.496352 0.08228,-0.7749548 0.300298,-0.8725848 z"
     style="fill:#eb2d2e;stroke-width:0.26458001"
     id="path14"
     inkscape:connector-curvature="0" />
</svg>
