<?xml version="1.0" encoding="UTF-8"?>
<svg version="1.1" viewBox="0 0 19.917 11.762" xmlns="http://www.w3.org/2000/svg" xmlns:cc="http://creativecommons.org/ns#" xmlns:dc="http://purl.org/dc/elements/1.1/" xmlns:rdf="http://www.w3.org/1999/02/22-rdf-syntax-ns#">
 <metadata>
  <rdf:RDF>
   <cc:Work rdf:about="">
    <dc:format>image/svg+xml</dc:format>
    <dc:type rdf:resource="http://purl.org/dc/dcmitype/StillImage"/>
    <dc:title/>
   </cc:Work>
  </rdf:RDF>
 </metadata>
 <g transform="translate(50.024 -320.6)">
  <g transform="matrix(.26458 0 0 .26458 -209.17 183.48)">
   <path d="m611.35 518.26c0 3.379-.599 9.638 5.849 9.039 0 0-2.336-2.272-2.688-3.463-.274-.931-.502-2.651.299-4.33.784 1.328.852 1.631 1.991 2.345 1.063.664 2.06 1.328 3.921.797.535-.153 4.502-2.76 5.52-3.065 1.266-.377 2.516-.717 3.861-.79 3.625-.194 7.448.525 10.621 2.36 1.438.831 2.574 1.802 3.559 3.091.776 1.011 1.874 3.589 2.824 4.386 0 0 3.298-.087 4.786.265 1.831.433 3.661 3.017 5.316 3.789 1.995.93 4.256 1.127 6.116 1.795 1.296.466 2.461 1.046 2.147 2.901 1.008.287 7.856 4.412 8.885 5.207.582.449 1.162 1.4.931 3.688-.113 1.125 1.625.891 1.495 1.794-.077.546.007 1.247-.199 1.795-.393 1.047-1.096 1.347-1.994 3.241-.65-1.985-2.305-3.599-4.212-4.216-.866-.28-1.704-.506-2.628-.296-.142.032-1.794 1.05-1.263 1.145 1.775.314 3.738 1.626 5.512 1.722-.062.854-2.183 2.592-2.891 2.592-1.396 0-5.688.65-5.284-.398.831-2.161-4.288-4.686-4.288-4.686-.536.121-1.68.458-2.201.667-.989.398-2.389.359-3.476.264-1.625-.139-3.038-.996-4.595-1.366-2.669-.635-4.435.89-6.254 2.704-1.442 1.439-4.18 5.919-4.122 11.479 0 0-1.099-2.415-1.427-3.257-2.184-5.573-5.242-11.023-13.881-12.385-2.91-.461-11.793-4.549-14.755-5.684-2.693-1.029-8.64-5.98-7.043-9.949 1.395.91 3.433 1.4 5.345 1.176.84-.098 1.909-.615 1.909-.615.63-1.03-.344-3.266-.476-6.164-.166-3.645 1.15-5.838 2.393-7.442" style="fill:#3a368a"/>
   <path d="m609.88 540.06c-.798-.398 1.584-1.3 2.491-1.75.792-.392 4.996-2.788 8.973-4.598 5.483-2.491 10.136-3.488 15.619-3.722 4.442-.189 9.095 1.081 13.472 1.817-.311-.676-.848-1.141-1.438-1.694 2.538-.939 5.296 1.353 6.61 3.169.969 1.338 1.166-.227 8.241 3.188.09.557-.213.911-.531 1.329.974.383 9.667 5.976 10.235 6.343.886.571.224 1.112.232 1.783.015 1.179-.366 2.192 1.339 2.664.601 1.116-.366.998-.742 1.672-1.908-2.007-4.206-3.971-7.605-3.022-.931.259-2.143 1.717-1.579 2.895.489 1.019 3.538 1.879 4.584 1.75-1.271 1.277-2.912.688-4.584.651.337-1.976-5.337-5.3-5.337-5.3s-2.11.309-3.217.638c-1.422.425-3.376.267-4.755-.258-1.26-.482-2.962-1.527-4.26-1.312-1.091.183-1.292.481-2.357.868-4.951 1.795-7.042 9.498-7.075 9.594-1.165-2.396-3.06-6.471-3.06-6.471 1.263-2.508 4.982-4.616 7.418-5.593-2.021.154-3.239.547-4.989 1.443-.817.417-3.115 2.258-3.958 3.019-.359.325-.865-.597-3.256-2.192-2.281-1.52-4.234-2.013-4.234-2.013s3.782-2.832 4.565-3.238c2.125-1.101 9.97-4.253 15.854-.866 0 0 1.192 2.493 2.489 3.791 1.196 1.197 2.932 1.946 4.193 2.19 1.368.265 2.411-.057 3.708-.426.611-.171 1.366-.47 1.975-.538.989-.11.622-.146 1.632.448.893.527 1.72.854 2.671 1.13l-4.01-3.203-1.835.731c-2.285.664-3.267.968-5.276-.2-2.061-1.195-2.3-2.173-2.751-3.12-.297-.626-1.037-2.928-1.037-2.928-1.544-.663-10.35-3.703-10.35-3.703s1.079 1.681 1.276 2.649c-1.579-.035-6.25.27-10.068 1.586-5.011 1.728-9.171 4.586-9.171 4.586s-2.199-.586-4.52-1.329c-2.016-.646-3.782-1.881-5.849-2.46" style="fill:#ffffff"/>
   <polygon points="667.21 542.14 661.88 538.15 656.59 535.81 660.13 539.3 661.03 538.6" style="fill:#3a368a"/>
   <path d="m672.59 544.68c-.682.092-.665.399-.432 1.097.213.639.786 1.2.831 1.396-3.189-1.196-2.353-3.525-.085-2.593-.044.187-.112.026-.213.1" style="fill:#3a368a"/>
   <path d="m652.12 531.77c-.244.026-.647.162-.795.198 1.59.285 1.623.316 2.986 1.201-.233-1.184-2.058-2.147-2.99-2.38-.001.001.751.646.799.981z" style="fill:#3a368a"/>
   <path d="m605.65 534.7c2.463-.118 2.634-1.033 4.582-1.721 1.8-.637 3.438 1.547 4.986 1.775-1.548.859-1.49 1.375-4.126 2.062-1.019.266-.918.502-3.381.345-2.692-.171-3.777-1.565-4.529-3.405.804.597 1.695.98 2.468.944z" style="fill:#f7931e"/>
   <path d="m610.68 520.6c-1.309 1.628-2.177 6.236-.409 8.653 1.967 2.691 3.882 3.591 6.524 3.764 0 0 4.815-1.771 7.443-2.593 2.623-.819 5.384-1.396 8.707-1.529.442-2.535-1.729-2.324-5.251-1.86-.909.12-6.342 1.19-10.435 1.529-2.418.198-2.73.345-4.652-.464-2.104-.888-1.972-3.375-1.927-7.5z" style="fill:#f7931e"/>
   <path d="m615.45 521.99c.998 7.577 9.637 4.319 14.489 3.057 1.197-.312 2.799-.655 3.915.073.599.392.894 1.032 1.06 1.705.034.144.247 1.288.19 1.975 0 0 6.095-.454 10.715.859.314-2.161-3.409-6.007-4.98-7.004-2.712-1.723-5.942-2.66-9.171-2.66-3.481 0-8.773 3.648-11.565 4.056-3.19.466-4.653-2.061-4.653-2.061z" style="fill:#f7931e"/>
   <path d="m660.73 537.65-.287.193c-.178.097-.423-.007-.43-.18.004.001-.007-.13.21-.255l-.482-.217s-.424.618.125.946c.499.3 1.287.143 1.337-.281z" style="fill:#f7931e"/>
  </g>
 </g>
</svg>
