<?xml version="1.0" encoding="UTF-8"?>
<svg version="1.1" viewBox="0 0 20.338 17.927" xmlns="http://www.w3.org/2000/svg" xmlns:cc="http://creativecommons.org/ns#" xmlns:dc="http://purl.org/dc/elements/1.1/" xmlns:rdf="http://www.w3.org/1999/02/22-rdf-syntax-ns#">
 <metadata>
  <rdf:RDF>
   <cc:Work rdf:about="">
    <dc:format>image/svg+xml</dc:format>
    <dc:type rdf:resource="http://purl.org/dc/dcmitype/StillImage"/>
    <dc:title/>
   </cc:Work>
  </rdf:RDF>
 </metadata>
 <g transform="translate(134.15 44.583)">
  <g transform="matrix(.26458 0 0 .26458 -291.81 -51.583)">
   <path d="m601.13 32.48c4.737 3.805 13.334 10.376 26.816 9.423 18.489-1.306 31.077 4.84 35.224 20.051 1.363 4.999-1.199 11.497-2.95 14.011-2.485 3.568-4.128 8.296-4.128 8.296-4.158 4.157-3.848 4.64-6.116 7.496-8.051-12.956-21.699-10.839-21.699-10.839-5.076-13.66-10.482-7.923-13.618-23.028l-11.721-10.647 4.045.124-4.416-4.419 5.054.437z" stroke-miterlimit="6" style="fill:#a12d50;stroke-linecap:round;stroke-miterlimit:6;stroke-width:2.8346;stroke:#000000"/>
   <path d="m628.54 55.37s12.774-.266 17.52-2.185c5.871 3.29 13.847 5.262 13.847 5.262l1.106 2.634c11.893 2.751 11.748 13.399 11.748 13.399-4.87 2.414-12.544 1.485-12.544 1.485-2.243 2.985-4.128 8.296-4.128 8.296-2.063 1.749-4.779 5.47-6.116 7.496-.984-1.474-2.06-3.138-4.13-5.053.312-.816 2.24-6.9.629-11.111l-2.412-.061s-5.958-7.227-2.548-16.527c-7.296-.992-12.972-3.635-12.972-3.635z"/>
   <path d="m655.99 67.629s1.754 1.3 3.817 6.313c0 0 6.913.785 10.482-.433l-6.779-4.849h-3.29v-.94h3.694l6.933 5.067s-1.437-7.687-9.446-9.724c.001 0-2.574 3.152-5.411 4.566z" style="fill:#facc26"/>
   <path d="m647.88 55.743c-.656 10.669 10.166 11.789 11.423 4.34l-1.189-.207c-1.47 4.831-6.936 3.185-7.221.354l2.848-.567.042-.248-3.066-1.137s-.122-.594-.056-1.457c-1.755-.617-2.781-1.078-2.781-1.078z" style="fill:#ffffff"/>
  </g>
 </g>
</svg>
