<?xml version="1.0" encoding="UTF-8"?>
<svg version="1.1" viewBox="0 0 21.211 10.835" xmlns="http://www.w3.org/2000/svg" xmlns:cc="http://creativecommons.org/ns#" xmlns:dc="http://purl.org/dc/elements/1.1/" xmlns:rdf="http://www.w3.org/1999/02/22-rdf-syntax-ns#">
 <metadata>
  <rdf:RDF>
   <cc:Work rdf:about="">
    <dc:format>image/svg+xml</dc:format>
    <dc:type rdf:resource="http://purl.org/dc/dcmitype/StillImage"/>
    <dc:title/>
   </cc:Work>
  </rdf:RDF>
 </metadata>
 <g transform="translate(-79.353 -91.255)">
  <g transform="matrix(.26458 0 0 .26458 -207.43 25.028)">
   <path d="m1163.9 282.88c-.01-.083-.646-8.307-6.508-16.361-3.442-4.732-7.989-8.498-13.507-11.192-6.858-3.349-15.242-5.038-24.919-5.022l-2.447.004s3.03 2.475 4.236 3.46c-2.389-.016-6.093.148-10.33 1.019-6.691 1.375-16.1 4.839-22.923 13.542l-1.064 1.358s2.514.081 3.521.113c-1.947 2.602-5.999 9.063-5.999 17.793l.024 1.247.106 2.414 1.465-1.922c.075-.096 7.549-9.803 21.222-19.204l1.02-.702s-2.854-2.075-3.907-2.84c1.929-.488 5.536-1.248 10.285-1.558 6.784-.441 17.364-.034 29.229 4.407l2.924 1.095s-3.577-4.55-5.121-6.513c4.971 2.769 13.917 8.803 21.095 19.412l1.824 2.694z" style="fill:#fde92b"/>
   <path d="m1163 282.94s-2.221-31.83-44.059-31.761l4.375 3.572s-22.259-2.324-35.15 14.117l3.561.114s-7.42 7.752-6.894 19.82c0 0 7.454-9.789 21.423-19.395l-4.361-3.172s18.513-6.332 41.79 2.382l-5.611-7.134s14.336 5.805 24.926 21.457z" style="fill:#515367"/>
   <path d="m1160.2 276.85s-5.392-22.556-37.555-24.398l3.516 3.618s-21.01-3.081-35.322 11.598l3.607.195s-7.753 7.876-8.382 17.77c0 0 4.226-6.665 18.205-16.259l-4.912-3.516s17.002-7.019 40.509.081l-4.98-6.767s9.743 1.168 25.314 17.678z" style="fill:#ffffff"/>
  </g>
 </g>
</svg>
