<?xml version="1.0" encoding="UTF-8"?>
<svg version="1.1" viewBox="0 0 20.094 12.579" xmlns="http://www.w3.org/2000/svg" xmlns:cc="http://creativecommons.org/ns#" xmlns:dc="http://purl.org/dc/elements/1.1/" xmlns:rdf="http://www.w3.org/1999/02/22-rdf-syntax-ns#">
 <metadata>
  <rdf:RDF>
   <cc:Work rdf:about="">
    <dc:format>image/svg+xml</dc:format>
    <dc:type rdf:resource="http://purl.org/dc/dcmitype/StillImage"/>
    <dc:title/>
   </cc:Work>
  </rdf:RDF>
 </metadata>
 <g transform="translate(-221.27 -52.586)">
  <g transform="matrix(.26458 0 0 .26458 -96.023 6.6919)">
   <g>
    <path d="m1272.1 196.52-4.194-3.18s-.29-1.301-1.3-1.591c-1.013-.289-1.881-.867-2.747-1.01-.868-.146-2.169-1.158-2.747-1.88-.579-.723-1.735-2.023-2.17-2.313-.433-.29-1.732-.579-2.746-.579-1.012 0-2.456-.144-3.613-1.156-1.156-1.012-2.312-2.024-3.035-2.024-.724 0-2.169-.144-2.748-.144-.577 0-2.022-1.012-2.746-1.446-.723-.434-1.447-.868-2.458-.868-1.012 0-2.891-.288-3.613-.433s-2.893-1.446-3.614-1.879c-.723-.434-.723-.722-2.459-.722-1.734 0-2.312.433-3.179.433-.868 0-2.169-.867-2.748-1.012-.577-.144-2.168-.578-3.325-.578h-3.181c-1.443 0-3.18-.723-4.19-.434-1.013.289-1.879-.144-1.446 1.735.434 1.879 1.156 4.048 1.156 4.048s.434 1.3 0 2.168c-.435.867 0 1.012-.723 1.589-.723.579-1.156 1.012-1.879 1.012-.722 0-2.024-.433-2.024-.433s-.721-.29-1.3-.29-1.013.145-1.592.145h-1.59c-.578 0-2.457 1.157-2.169 2.603.289 1.445.724 2.458.289 3.179-.433.724-2.456 4.917-2.601 6.362-.146 1.445.577 3.181.866 4.915.288 1.734.288 3.036.288 3.758v2.458c0 .578-.433.289 1.157 0 1.591-.29 2.603-.433 3.325-.29.723.145 1.156-.29 2.314-.29 1.155 0 2.455-.579 3.18 0 .723.579 1.301 1.157 1.301 2.025 0 .867-1.156 6.938-1.156 6.938s-.723 1.736 2.603 1.446c3.324-.29 4.19-.578 5.203-.578 1.014 0 3.325.289 4.047.289.724 0 2.313-.578 2.748-.723.434-.144 1.446-1.011 3.181-1.011s2.458-.146 3.759-.434 3.614-1.59 3.614-1.59 1.735-.579 2.89-.579c1.157 0 2.747-.723 3.472-1.157.722-.434 3.18-.868 3.18-.868s1.735-.433 2.746-1.156c1.012-.723 2.458-1.88 3.036-1.88.579 0 3.47-.723 5.638-2.312 2.169-1.591 4.628-2.458 4.628-2.458s1.589-1.445 2.602-2.602c1.011-1.157 1.733-1.445 3.469-2.025 1.734-.577 3.035-.577 3.325-1.155.287-.577.287-1.444-.724-2.023z" style="fill:#ffffff"/>
    <path d="m1273.4 194.78-4.192-3.181.809 1.263c-.264-1.183-1.16-2.735-2.824-3.211-.313-.088-.652-.239-1.011-.397-.576-.255-1.231-.544-1.979-.668.029.005.045.01.045.01-.308-.091-1.11-.677-1.451-1.102-.018-.022-1.713-2.133-2.662-2.766-1.035-.691-2.932-.943-3.953-.943-1.007 0-1.698-.196-2.18-.618-1.57-1.375-2.928-2.562-4.469-2.562-.308 0-.871-.039-1.367-.074-.554-.038-1.033-.071-1.381-.071.233 0 .372.047.378.05-.278-.097-1.057-.59-1.429-.827-.207-.131-.402-.255-.575-.358-.826-.497-1.961-1.178-3.578-1.178-.739 0-2.407-.235-3.186-.392.046.009.072.018.072.018-.138-.043-.763-.291-2.993-1.629-.078-.047-.148-.095-.234-.155-.855-.594-1.574-.877-3.346-.877-1.271 0-2.071.192-2.656.332-.235.057-.422.102-.522.102.055 0 .085.005.087.005-.205-.036-.743-.295-1.03-.435-.436-.211-.849-.41-1.274-.518 0-.001-.176-.044-.176-.044-.765-.194-2.355-.599-3.68-.599h-3.181c-.411 0-.982-.114-1.535-.225-1.068-.213-2.175-.434-3.254-.125-.069.02-.197.036-.322.053-.521.068-1.604.211-2.309 1.227-.69.997-.544 2.147-.339 3.038.452 1.957 1.183 4.153 1.214 4.247.056.185.098.5.076.618 0-.001.01-.043.041-.11-.341.681-.41 1.194-.446 1.47 0 .018-.01.042-.01.051.041-.256.21-.558.345-.679 0 0-.01.007-.024.021l-.266.213c-.171.14-.402.33-.487.375.041-.021.141-.053.232-.053h.01c-.229-.007-.922-.181-1.34-.322l.118.044c-.261-.104-1.184-.444-2.107-.444-.445 0-.81.052-1.104.095-.196.027-.353.049-.488.049h-1.59c-1.275 0-2.651.969-3.389 1.869-.819 1.001-1.145 2.186-.913 3.338.074.385.159.735.234 1.044.082.342.195.812.195.966 0-.048.023-.207.126-.378-.359.598-2.698 5.231-2.901 7.265-.134 1.317.196 2.601.512 3.842.148.578.288 1.125.375 1.647.259 1.558.259 2.712.259 3.401v2.458c0-.169.042-.319.06-.374l-.421 1.329c-.011.049 1.021.987 1.021.987.244.222 1.136.905 2.386.372.166-.071.462-.132.679-.172.677-.123 2.09-.38 2.508-.297.864.172 1.547-.006 1.997-.126.277-.072.46-.121.744-.121.573 0 1.101-.087 1.565-.163.244-.04.614-.101.739-.093-.062-.004-.274-.051-.486-.22.402.321.502.449.524.49-.014-.028-.04-.101-.04-.166v-.035c-.027.577-.604 3.858-1.117 6.566l.129-.43c-.328.782-.406 1.988.352 3.023 1.248 1.707 3.656 1.498 4.447 1.428 1.829-.159 2.929-.316 3.732-.431.602-.086.965-.139 1.283-.139.449 0 1.384.085 2.136.154.918.083 1.503.135 1.911.135.834 0 1.907-.311 3.266-.776l.172-.059c.292-.098.543-.236.784-.369.447-.249.953-.53 1.707-.53 1.95 0 2.834-.175 4.229-.486 1.538-.341 3.776-1.574 4.21-1.818l-.379.168c.584-.193 1.656-.468 2.202-.468 1.694 0 3.684-.921 4.592-1.466-.027.016-.045.024-.045.024.3-.146 1.483-.438 2.482-.615l.074-.013.074-.019c.357-.089 2.202-.58 3.484-1.497 0 .001.61-.444.61-.444.467-.342 1.332-.978 1.633-1.103 0 .001-.18.074-.472.074 1.115 0 4.478-.939 6.926-2.734 1.857-1.362 4.041-2.153 4.062-2.16l.415-.146.327-.296c.067-.062 1.692-1.544 2.775-2.779.634-.727.934-.864 2.52-1.394.543-.18 1.062-.301 1.52-.406 1.135-.263 2.423-.56 3.062-1.841.771-1.537.473-3.71-1.589-4.888zm-2.541 2.785c.247-.493.624-.653.628-.655-.115.048-.498.136-.776.201-.524.121-1.177.272-1.915.519-1.893.631-3.03 1.064-4.422 2.656-.919 1.05-2.413 2.412-2.429 2.425l.742-.442c-.113.039-2.79.994-5.19 2.753-1.704 1.251-3.986 1.848-4.445 1.896 0 0 .035-.003.095-.003-1.13 0-2.156.712-3.738 1.874l-.563.41c-.505.362-1.592.712-2.009.815l.15-.031c-1.065.188-2.992.587-3.925 1.145-.649.392-1.819.847-2.349.847-1.436 0-3.234.575-3.579.69l-.197.066-.181.102c-.846.476-2.343 1.212-3.02 1.362-1.224.273-1.779.383-3.286.383-1.881 0-3.19.728-3.821 1.077-.062.035-.148.083-.178.098 0-.001.051-.025.132-.053 0 .001-.211.073-.211.073-1.292.443-1.735.529-1.885.54 0 0 .013-.001.034-.001-.231 0-.943-.065-1.516-.117-.927-.085-1.883-.172-2.531-.172-.629 0-1.164.077-1.901.183-.753.107-1.782.255-3.49.404-.723.063-.983-.016-.987-.018.09.029.385.196.562.581.229.495.072.874.02.998l.087-.208.042-.222c.447-2.343 1.195-6.413 1.195-7.346 0-2.03-1.484-3.217-2.118-3.725-1.232-.985-2.706-.742-3.681-.581-.314.052-.642.104-.858.104-.848 0-1.451.159-1.851.264-.084.022-.2.053-.239.059.025-.004.109-.01.203.009-1.146-.229-2.439-.028-4.142.281-.847.155-1.302.322-1.604.45.606-.254 1.546-.229 2.252.417l.612 2.229c.038-.118.15-.465.15-.954v-2.458c0-.77 0-2.205-.319-4.116-.117-.704-.287-1.368-.45-2.007-.224-.877-.452-1.782-.398-2.334.105-.912 1.811-4.639 2.302-5.458.789-1.312.465-2.658.179-3.845-.067-.284-.138-.577-.198-.88.031.153 0 .288-.025.329.059-.113.321-.328.478-.389 0 0-.154.06-.419.06h1.59c.445 0 .811-.052 1.103-.093.197-.029.353-.05.489-.05h-.016c.098.006.353.074.518.137l.048.019c.012.004.062.021.062.021.385.128 1.715.546 2.713.546 1.411 0 2.297-.722 3.007-1.302l.232-.188c.975-.779 1.197-1.557 1.283-2.215 0-.028.01-.066.012-.078 0 .006 0 .017-.01.022 0 0 .01-.014.02-.043.798-1.595.239-3.471.119-3.832-.01-.02-.696-2.096-1.101-3.848-.054-.236-.06-.329-.06-.333.022.508-.513 1.263-1.145 1.389.028-.006.115-.018.176-.026.243-.031.574-.076.951-.184-.049.014-.076.017-.076.017.213-.021.854.107 1.28.193.727.145 1.547.309 2.389.309h3.181c.779 0 2.062.325 2.606.464l.193.049c-.044-.011-.067-.019-.069-.02.086.031.328.148.504.232.795.385 1.785.864 2.839.864.616 0 1.106-.117 1.539-.221.454-.109.881-.212 1.64-.212.618 0 .801.044.819.048-.022-.005-.066-.024-.09-.037.021.012.085.056.131.088.117.081.277.192.479.313 2.676 1.607 3.633 2.013 4.308 2.147.744.149 2.796.476 4.039.476.392 0 .711.18 1.336.557.13.077.303.187.485.302 1.385.879 2.369 1.455 3.383 1.455.199 0 .669.033 1.081.061.595.041 1.21.082 1.667.082-.221 0-.351-.051-.354-.051.372.152 1.362 1.019 1.954 1.538 1.305 1.141 2.955 1.695 5.048 1.695.643 0 1.435.18 1.652.278 0 0-.046-.021-.113-.066-.032-.02-.049-.034-.05-.035.25.2 1.134 1.156 1.728 1.898.708.886 2.444 2.393 4.088 2.667.206.034.577.199.936.357.457.2.974.429 1.572.601-.175-.051-.279-.147-.303-.176.027.032.07.128.085.19 0 0 0-.014-.01-.045l.174.779.637.483 4.193 3.18.111.086.122.07c.018.009.025.016.025.016-.151-.116-.333-.535-.171-.859z"/>
   </g>
   <g>
    <polygon points="1225 192.82 1225 186.61 1226.7 186.61 1226.7 184.58 1217.6 184.58 1217.6 186.32 1219.1 186.32 1219.1 198.46 1217.6 198.46 1217.6 200.48 1226.4 200.48 1226.4 198.61 1225 198.61 1225 196.87 1231.7 192.97 1237 198.46 1236 198.46 1236 200.34 1245.5 200.34 1245.5 198.39 1245 198.32 1236.6 190 1242.3 186.46 1244.5 186.46 1244.5 185.02 1235.6 185.02 1235.6 186.32 1236.1 186.32" style="fill:#d0392b;stroke-width:2;stroke:#000000"/>
   </g>
   <path d="m1254.2 190.33-1.421.843s-4.723-1.209-7.469-1.349c-3.302-.169-6.916.411-7.639 1.132l3.107 3.108s2.314-.77 4.193-.867c1.883-.097 5.344.925 6.649 1.734 1.013.627 2.46 2.169 2.46 2.169h2.166v-6.796z" style="fill:#d0392b;stroke-width:2;stroke:#000000"/>
   <path d="m1247.5 208.73c-2.386.434-6.216.651-9.181.362-1.428-.14-5.637-1.012-7.229-2.53-1.22-1.166-3.106-3.253-2.746-5.928.323-2.38.94-3.614 1.663-4.408.723-.795 1.735-1.808 1.735-1.808l2.745 2.892s-1.589 1.301-1.228 3.614 3.18 3.687 3.542 3.976c.361.289 5.06 1.229 8.167.651" style="stroke-width:2;stroke:#000000"/>
   <path d="m1232.5 194.21 2.748 2.892s-1.591 1.3-1.229 3.615c.36 2.312 3.179 3.686 3.541 3.975.36.289 5.058 1.229 8.168.651 3.107-.579 4.408-1.013 5.493-1.953 1.084-.939 2.096-2.168 2.096-2.168h3.397s-.145 1.735-1.519 3.252c-1.371 1.519-4.554 3.614-6.938 4.049-2.386.433-6.217.65-9.181.361-1.427-.14-5.637-1.012-7.227-2.53-1.223-1.165-3.108-3.253-2.748-5.927.322-2.381.94-3.614 1.663-4.409.724-.797 1.736-1.808 1.736-1.808z" style="fill:#d0392b;stroke-width:2;stroke:#000000"/>
   <polygon points="1226.9 200.71 1217.5 200.71 1217.5 198.83 1217.5 198.25 1219 198.25 1219.1 186.54 1217.7 186.54 1217.3 184.59 1216.3 185.82 1216.3 187.41 1217.6 187.41 1217.6 197.68 1215.9 199.41 1215.9 201.87 1226 201.87"/>
   <polygon points="1225.2 186.85 1226.7 186.83 1225.1 187.84"/>
   <polygon points="1236.3 198.11 1231.6 193.34 1231.2 193.63 1235.5 198.4 1235 199.12 1235 201.87 1244.5 201.87 1245.7 200.42 1235.6 200.44 1235.8 199.05"/>
   <polygon points="1244.8 186.69 1244.1 187.27 1240.7 187.27 1242.4 186.54"/>
   <path d="m1242.3 193.92c1.302-.146 5.493.217 7.012 1.157 1.133.701 1.734 1.373 2.239 2.168.418.656 1.013 1.445 1.013 1.445h2.891l1.013-1.518-2.456-.072-4.12-3.037-5.278-.94c0 .001-3.616.941-2.314.797z"/>
  </g>
 </g>
</svg>
