<?xml version="1.0" encoding="UTF-8"?>
<svg version="1.1" viewBox="0 0 13.004 13.687" xmlns="http://www.w3.org/2000/svg" xmlns:cc="http://creativecommons.org/ns#" xmlns:dc="http://purl.org/dc/elements/1.1/" xmlns:rdf="http://www.w3.org/1999/02/22-rdf-syntax-ns#">
 <metadata>
  <rdf:RDF>
   <cc:Work rdf:about="">
    <dc:format>image/svg+xml</dc:format>
    <dc:type rdf:resource="http://purl.org/dc/dcmitype/StillImage"/>
    <dc:title/>
   </cc:Work>
  </rdf:RDF>
 </metadata>
 <g transform="translate(-174.93 100.67)">
  <g transform="matrix(.26458 0 0 .26458 -94.077 -109.26)">
   <path d="m1023.2 32.486-.731 5.584 2.561-.101s.761 0 .152 1.218c-.61 1.219-7.356 9.883-8.188 16.855-.992 8.321.621 13.741 5.598 19.549 4.569 5.33 9.591 7.506 14.318 8.225 10.549 1.602 16.371-2.052 19.856-4.684 6.406-4.835 8.583-10.034 8.931-14.965.226-3.204.543-7.418-1.436-12.597-1.98-5.179-5.57-10.708-5.57-10.708s-1.372-2.589.608-2.285l1.974.157c.307-.914-.183-5.561-.183-5.561s-6.287-.3-7.122-.08c-1.561.221-3.808 1.828-3.503 5.027.305 3.198 4.028 8.234 4.874 10.205 1.186 2.761 3.514 8.528 2.394 14.003-1.087 5.319-3.747 8.341-7.011 10.638 0 0-4.368 2.776-9.09 2.625-4.723-.153-7.618-1.828-9.291-2.743-1.676-.913-5.27-4.575-6.247-6.854-1.001-2.337-2.169-4.875-1.218-10.966.33-2.113 1.98-6.093 4.112-9.749 0 0 3.585-4.757 4.238-6.969.642-2.166.235-3.351-.725-4.532-.652-.803-1.149-1.27-3.514-1.293-1.369-.013-5.787.001-5.787.001z" style="fill:#0067a1"/>
   <ellipse cx="1028.8" cy="40.254" rx=".646" ry=".862" style="fill:#ffffff"/>
   <ellipse cx="1054.9" cy="40.764" rx=".647" ry=".861" style="fill:#ffffff"/>
   <ellipse cx="1061.9" cy="57.366" rx=".645" ry=".862" style="fill:#ffffff"/>
   <path d="m1057.9 73.154c.354 0 .644-.386.644-.862s-.289-.861-.644-.861c-.359 0-.648.385-.648.861s.288.862.648.862z" style="fill:#ffffff"/>
   <ellipse cx="1041.2" cy="79.756" rx=".646" ry=".862" style="fill:#ffffff"/>
   <ellipse cx="1024.6" cy="71.683" rx=".646" ry=".862" style="fill:#ffffff"/>
   <ellipse cx="1021.1" cy="57.061" rx=".646" ry=".861" style="fill:#ffffff"/>
  </g>
 </g>
</svg>
