<?xml version="1.0" encoding="UTF-8" standalone="no"?>
<!-- Created with Inkscape (http://www.inkscape.org/) -->

<svg
   xmlns:dc="http://purl.org/dc/elements/1.1/"
   xmlns:cc="http://creativecommons.org/ns#"
   xmlns:rdf="http://www.w3.org/1999/02/22-rdf-syntax-ns#"
   xmlns:svg="http://www.w3.org/2000/svg"
   xmlns="http://www.w3.org/2000/svg"
   xmlns:sodipodi="http://sodipodi.sourceforge.net/DTD/sodipodi-0.dtd"
   xmlns:inkscape="http://www.inkscape.org/namespaces/inkscape"
   width="16.743628mm"
   height="19.321198mm"
   viewBox="0 0 16.743628 19.321198"
   version="1.1"
   id="svg24361"
   inkscape:version="0.92.3 (2405546, 2018-03-11)"
   sodipodi:docname="dolphins.svg">
  <defs
     id="defs24355">
    <radialGradient
       gradientUnits="userSpaceOnUse"
       r="0"
       cy="352.4863"
       cx="894.19427"
       id="SVGID_1_">
      <stop
         id="stop795"
         style="stop-color:#FFFFFF"
         offset="0" />
      <stop
         id="stop797"
         style="stop-color:#D3D4D6"
         offset="0.0787" />
      <stop
         id="stop799"
         style="stop-color:#ABADB0"
         offset="0.1673" />
      <stop
         id="stop801"
         style="stop-color:#8B8D8F"
         offset="0.2612" />
      <stop
         id="stop803"
         style="stop-color:#707174"
         offset="0.3587" />
      <stop
         id="stop805"
         style="stop-color:#58595B"
         offset="0.4607" />
      <stop
         id="stop807"
         style="stop-color:#434345"
         offset="0.5689" />
      <stop
         id="stop809"
         style="stop-color:#272627"
         offset="0.6861" />
      <stop
         id="stop811"
         style="stop-color:#0D0C0D"
         offset="0.8187" />
      <stop
         id="stop813"
         style="stop-color:#000000"
         offset="1" />
    </radialGradient>
    <radialGradient
       gradientUnits="userSpaceOnUse"
       gradientTransform="translate(3.25,1.5)"
       r="2.6842999"
       cy="327.13571"
       cx="883.19733"
       id="SVGID_2_">
      <stop
         id="stop830"
         style="stop-color:#FFFFFF"
         offset="0" />
      <stop
         id="stop832"
         style="stop-color:#D3D4D6"
         offset="0.0787" />
      <stop
         id="stop834"
         style="stop-color:#ABADB0"
         offset="0.1673" />
      <stop
         id="stop836"
         style="stop-color:#8B8D8F"
         offset="0.2612" />
      <stop
         id="stop838"
         style="stop-color:#707174"
         offset="0.3587" />
      <stop
         id="stop840"
         style="stop-color:#58595B"
         offset="0.4607" />
      <stop
         id="stop842"
         style="stop-color:#434345"
         offset="0.5689" />
      <stop
         id="stop844"
         style="stop-color:#272627"
         offset="0.6861" />
      <stop
         id="stop846"
         style="stop-color:#0D0C0D"
         offset="0.8187" />
      <stop
         id="stop848"
         style="stop-color:#000000"
         offset="1" />
    </radialGradient>
  </defs>
  <sodipodi:namedview
     id="base"
     pagecolor="#ffffff"
     bordercolor="#666666"
     borderopacity="1.0"
     inkscape:pageopacity="0.0"
     inkscape:pageshadow="2"
     inkscape:zoom="0.35"
     inkscape:cx="-412.6442"
     inkscape:cy="102.22679"
     inkscape:document-units="mm"
     inkscape:current-layer="layer1"
     showgrid="false"
     fit-margin-top="0"
     fit-margin-left="0"
     fit-margin-right="0"
     fit-margin-bottom="0"
     inkscape:window-width="1920"
     inkscape:window-height="1043"
     inkscape:window-x="0"
     inkscape:window-y="0"
     inkscape:window-maximized="1" />
  <metadata
     id="metadata24358">
    <rdf:RDF>
      <cc:Work
         rdf:about="">
        <dc:format>image/svg+xml</dc:format>
        <dc:type
           rdf:resource="http://purl.org/dc/dcmitype/StillImage" />
        <dc:title></dc:title>
      </cc:Work>
    </rdf:RDF>
  </metadata>
  <g
     inkscape:label="Layer 1"
     inkscape:groupmode="layer"
     id="layer1"
     transform="translate(-54.372229,-156.55964)">
    <g
       transform="matrix(0.26458333,0,0,0.26458333,-165.96827,75.103428)"
       id="g855">
      <path
         style="fill:#ef8037"
         inkscape:connector-curvature="0"
         id="path769"
         d="m 890.271,336.609 c -1.26,-0.704 -2.271,-1.4 -3.041,-2.111 -0.333,-0.31 -0.623,-0.623 -0.868,-0.941 -0.341,-0.45 -0.591,-0.912 -0.752,-1.385 -0.64,-1.899 0.174,-4.034 2.4,-6.75 -6.412,-0.539 -8.099,-3.025 -6.16,-9.139 -6.11,1.945 -8.596,0.256 -9.136,-6.157 -4.973,4.082 -8.006,3.437 -11.187,-2.26 -3.181,5.696 -6.213,6.342 -11.188,2.26 -0.54,6.413 -3.021,8.103 -9.137,6.157 1.943,6.113 0.256,8.6 -6.158,9.139 4.083,4.974 3.438,8.006 -2.261,11.188 5.698,3.181 6.343,6.213 2.261,11.189 6.414,0.538 8.101,3.021 6.158,9.135 6.116,-1.942 8.598,-0.255 9.137,6.157 4.975,-4.082 8.007,-3.437 11.188,2.262 3.181,-5.698 6.214,-6.344 11.187,-2.262 0.54,-6.412 3.025,-8.1 9.136,-6.157 -1.939,-6.114 -0.252,-8.597 6.16,-9.135 -4.079,-4.977 -3.436,-8.009 2.261,-11.19 z m -28.743,22.086 c -12.198,0 -22.087,-9.887 -22.087,-22.086 0,-12.198 9.889,-22.088 22.087,-22.088 11.103,0 20.289,8.188 21.851,18.854 0.156,1.056 0.238,2.135 0.238,3.233 0,12.201 -9.888,22.087 -22.089,22.087 z" />
      <path
         style="fill:#006899"
         inkscape:connector-curvature="0"
         id="path771"
         d="m 894.018,330.695 c -0.026,0.014 -0.054,0.031 -0.084,0.04 -0.861,0.33 -1.971,-1.024 -2.809,-2.338 -0.1,0.01 -0.192,0.023 -0.297,0.032 -0.093,0.004 -0.175,0.004 -0.266,0.007 -0.378,2.233 -1.319,3.038 -2.112,3.301 -1.611,0.532 -3.401,-0.754 -4.541,-2.132 -0.783,-0.949 -1.509,-2.253 -1.661,-3.516 -0.542,-0.16 -1.125,-0.292 -1.76,-0.368 -3.721,-0.447 -6.292,4.051 -6.317,4.097 -0.133,0.234 -0.433,0.319 -0.671,0.185 -0.236,-0.129 -0.32,-0.428 -0.189,-0.664 0.118,-0.213 2.917,-5.119 7.291,-4.593 0.603,0.071 1.148,0.188 1.662,0.33 0.339,0.091 0.658,0.193 0.968,0.306 0.675,0.242 1.298,0.521 1.912,0.795 1.396,0.628 2.736,1.218 4.544,1.286 0.316,0.013 0.646,0.012 0.993,-0.014 0.025,0 0.048,0 0.073,0 0.157,-0.013 0.298,-0.026 0.436,-0.042 0.087,-0.009 0.17,-0.02 0.249,-0.03 0.49,-0.069 0.838,-0.158 1.089,-0.255 -0.093,-0.364 -0.213,-0.747 -0.358,-1.134 -0.136,-0.355 -0.296,-0.71 -0.479,-1.065 -0.653,-1.26 -1.615,-2.487 -2.936,-3.368 -5.513,-3.672 -9.289,-4.488 -16.795,-3.926 -7.507,0.564 -12.628,5.661 -12.628,5.661 -4.874,-0.493 -8.245,0.092 -10.562,1.101 -4.587,2 -5.061,5.668 -4.937,5.978 0.245,0.608 3.903,-0.169 4.517,0.244 0.416,0.281 1.098,0.611 0.853,1.953 -0.244,1.343 -2.195,1.83 -4.149,12.69 -1.953,10.86 0.488,19.77 0.488,19.77 0,0 -5.491,1.709 -7.079,7.201 -2.299,7.96 2.199,8.664 2.199,8.664 -0.366,-1.222 0.244,-2.808 1.708,-4.883 1.463,-2.074 4.271,-2.074 5.492,-2.439 1.221,-0.368 1.708,-1.708 1.708,-1.708 0,0 0.609,1.099 1.708,1.099 1.099,0 2.442,-1.099 2.932,-1.099 0.485,0 1.707,0.975 1.707,0.975 0.365,-0.365 0.977,-2.807 -0.122,-4.88 -1.091,-2.06 -6.59,-2.686 -6.59,-2.686 0.435,-5.825 2.643,-10.754 5.011,-13.994 3.632,-4.969 7.925,-7.118 7.925,-7.118 0.123,4.026 -1.587,5.248 -0.611,5.98 1.708,1.281 4.882,-1.221 7.079,-3.416 2.196,-2.199 3.905,-7.568 3.905,-7.568 1.585,0.733 3.783,5.248 4.638,5.248 0.854,0 0.975,-0.244 1.83,-2.439 0.855,-2.196 0,-5.615 0,-5.615 0,0 5.004,-0.73 8.177,-0.241 3.173,0.487 8.907,2.562 8.907,-1.101 -0.003,-2.074 -1.097,-3.48 -2.048,-4.311 z" />
      <path
         style="fill:#ffffff"
         inkscape:connector-curvature="0"
         id="path773"
         d="m 874.275,332.199 -0.667,-0.069 c -3.153,1.788 -3.17,5.688 -4.178,8.977 -0.558,1.816 -0.966,3.491 -2.408,4.885 -1.253,1.214 -2.772,2.008 -4.105,3.062 1.792,0.598 3.744,-1.154 5.948,-3.821 2.336,-2.829 2.582,-7.622 2.95,-9.345 0.371,-1.721 2.46,-3.689 2.46,-3.689 z" />
      <path
         style="fill:#ffffff"
         inkscape:connector-curvature="0"
         id="path775"
         d="m 882.801,333.265 c -1.671,-0.29 -3.586,-0.273 -5.242,0.062 -1.182,0.238 -2.918,0.631 -4.064,1.421 -1.01,1.484 -0.941,2.862 -0.941,2.862 1.843,-1.107 6.517,-2.952 9.715,-2.952 2.661,0 7.024,1.448 9.617,1.861 -1.112,-0.351 -2.138,-0.97 -3.247,-1.452 -1.852,-0.802 -3.857,-1.457 -5.838,-1.802 z" />
      <path
         style="fill:#ffffff"
         inkscape:connector-curvature="0"
         id="path777"
         d="m 894.562,334.413 c 0.929,-0.516 0.538,-1.334 -0.231,-2.111 0.121,0.815 -0.253,1.823 -0.826,2.33 0.395,0.011 0.759,-0.051 1.057,-0.219 z" />
      <path
         style="fill:#00a5b9"
         inkscape:connector-curvature="0"
         id="path779"
         d="m 890.915,335.561 c -1.907,-0.635 -4.016,-2.623 -5.492,-3.442 -1.475,-0.819 -1.885,-0.574 -2.296,-0.819 -0.41,-0.247 0.164,-0.247 0.164,-0.247 2.295,-0.163 3.281,1.229 5.74,2.705 0.927,0.557 1.723,0.845 2.374,0.988 -0.046,-0.018 -0.09,-0.036 -0.136,-0.053 -2.462,-1.087 -4.453,-3.354 -4.453,-3.354 0,0 4.14,3.217 6.688,3.293 0.573,-0.507 0.947,-1.515 0.826,-2.33 -1.062,-1.073 -2.841,-2.069 -2.841,-2.069 -0.328,-0.081 -1.134,-0.534 -0.984,-0.735 0.984,-1.354 -2.212,-5.78 -2.212,-5.78 1.844,1.106 3.563,4.303 3.563,4.303 0.124,-1.72 -2.401,-5.377 -4.056,-6.271 -8.444,-4.549 -18.092,-1.856 -18.853,-1.681 -10.865,2.468 -20.721,22.26 -20.721,22.26 1.523,-7.578 5.124,-13.059 9.03,-16.964 -1.71,0.612 -3.66,2.687 -3.66,2.687 0,0 0,-1.709 -1.831,-2.074 -3.371,-0.676 -5.867,2.291 -5.635,2.917 0.191,0.511 2.934,0.054 3.619,0.411 0.783,0.409 1.406,1.551 1.04,2.528 -0.653,1.739 -2.929,5.124 -5.002,13.91 -0.923,3.901 -1.266,11.907 1.026,20.765 -4.47,0.374 -5.793,2.264 -6.96,4.892 -1.047,2.354 -1.079,5.507 0.002,7.976 -0.303,-2.321 1.636,-4.729 3.552,-5.864 1.789,-1.059 5.518,-0.524 5.654,-3.158 0.834,1.101 1.943,1.481 3.282,1.269 0.613,-0.097 1.185,-0.566 1.804,-0.571 0.53,-10e-4 1.195,0.124 1.459,0.639 -0.528,-1.033 -1.414,-1.204 -2.494,-1.383 -1.201,-0.196 -2.354,-0.555 -3.139,-1.554 -0.291,-0.371 -0.409,-0.79 -0.628,-1.196 -0.259,-0.484 -0.444,-1.005 -0.55,-1.545 -0.071,-0.351 -0.111,-0.71 -0.127,-1.07 -0.023,-0.532 0.325,-4.858 0.28,-4.831 -0.86,0.492 -1.476,3.195 -1.476,3.195 -0.368,-0.86 -2.212,-5.899 2.706,-17.582 4.918,-11.679 14.753,-13.276 14.753,-13.276 -9.835,5.164 -9.097,8.729 -9.097,8.729 2.211,-3.812 8.359,-6.886 8.359,-6.886 -0.862,0.861 -1.721,1.763 -1.353,2.092 1.062,0.941 1.353,3.318 1.353,6.516 0,3.194 -2.581,5.532 -1.599,6.024 0.107,0.053 0.214,0.095 0.322,0.132 1.333,-1.055 2.853,-1.849 4.105,-3.062 1.442,-1.394 1.851,-3.068 2.408,-4.885 1.008,-3.289 1.025,-7.188 4.178,-8.977 l -2.776,-0.298 c 0.903,-0.86 3.281,-1.107 4.55,-1.107 2.462,0 3.935,0.737 3.935,0.737 -3.255,0.628 -4.945,1.999 -5.822,3.286 1.146,-0.79 2.882,-1.183 4.064,-1.421 1.655,-0.336 3.571,-0.353 5.242,-0.062 1.981,0.346 3.986,1 5.838,1.803 1.109,0.482 2.135,1.102 3.247,1.452 0.521,0.082 0.976,0.128 1.323,0.106 0.719,-0.042 1.154,-0.244 1.424,-0.489 -0.748,-0.017 -2.296,-0.103 -3.717,-0.579 z" />
      <path
         style="fill:#ffffff"
         inkscape:connector-curvature="0"
         id="path781"
         d="m 894.788,335.977 c 0.346,-0.443 0.266,-0.947 0.266,-0.947 -1.209,0.429 -2.479,0.208 -3.649,-0.284 -0.651,-0.144 -1.447,-0.432 -2.374,-0.988 -2.459,-1.476 -3.445,-2.868 -5.74,-2.705 0,0 -0.573,0 -0.164,0.247 0.411,0.245 0.821,0 2.296,0.819 1.477,0.819 3.585,2.808 5.492,3.442 1.421,0.477 2.969,0.562 3.718,0.576 0.055,-0.054 0.109,-0.107 0.155,-0.16 z" />
      <path
         style="fill:#ffffff"
         inkscape:connector-curvature="0"
         id="path783"
         d="m 846.734,368.465 c 0.701,0.747 0.687,2.018 0.093,2.805 -0.729,0.968 -1.883,0.751 -2.893,1.006 -1.997,0.505 -3.962,2.098 -3.963,4.308 0.002,-2.478 0.004,-4.113 1.444,-6.282 1.136,-1.711 3.406,-3.877 5.319,-1.837 z" />
      <path
         style="fill:#ffffff"
         inkscape:connector-curvature="0"
         id="path785"
         d="m 862.139,338.667 c 0,0 0.976,1.464 0.367,4.147 0,0 -5.614,1.101 -12.205,12.571 0,0.001 0.489,-12.081 11.838,-16.718 z" />
      <path
         style="fill:#00a5b9"
         inkscape:connector-curvature="0"
         id="path787"
         d="m 877.449,337.613 c 0.011,-0.525 0.219,-0.813 0.844,-0.455 0.518,0.297 0.477,1.822 0.496,2.312 0.04,1.208 -0.179,2.985 -1.453,3.54 0.587,-0.732 0.739,-1.793 0.676,-2.702 -0.016,-0.186 -0.581,-1.789 -0.563,-2.695 z" />
      <path
         style="fill:#00a5b9"
         inkscape:connector-curvature="0"
         id="path789"
         d="m 855.682,368.867 c -0.559,-1.222 -2.397,-2.618 -3.827,-2.066 -0.414,0.159 -0.615,0.775 -0.346,1.137 0.339,0.456 1.083,0.593 1.583,0.76 1.071,0.36 2.445,0.726 2.86,1.921 0.01,-0.224 0.055,-0.431 0.031,-0.66 -0.041,-0.383 -0.14,-0.74 -0.301,-1.092 z" />
      <path
         style="fill:#ffffff"
         inkscape:connector-curvature="0"
         id="path791"
         d="m 847.965,325.669 c 0,0 3.11,-2.353 10.952,-1.89 l -1.222,1.099 c 0,0 -3.751,-0.675 -9.73,0.791 z" />
      <path
         style="fill:#00a5b9"
         inkscape:connector-curvature="0"
         id="path793"
         d="m 878.371,325.364 c 0,-0.74 -0.548,-1.341 -1.222,-1.341 -0.132,0 -0.258,0.026 -0.375,0.073 -0.144,0.336 -0.167,0.744 -0.182,1.085 -0.019,0.431 0.063,0.869 0.195,1.272 0.021,0.063 0.043,0.137 0.067,0.21 0.096,0.025 0.191,0.044 0.295,0.044 0.674,0.001 1.222,-0.602 1.222,-1.343 z" />
      <radialGradient
         gradientUnits="userSpaceOnUse"
         r="0"
         cy="352.4863"
         cx="894.19427"
         id="radialGradient24321">
        <stop
           id="stop24301"
           style="stop-color:#FFFFFF"
           offset="0" />
        <stop
           id="stop24303"
           style="stop-color:#D3D4D6"
           offset="0.0787" />
        <stop
           id="stop24305"
           style="stop-color:#ABADB0"
           offset="0.1673" />
        <stop
           id="stop24307"
           style="stop-color:#8B8D8F"
           offset="0.2612" />
        <stop
           id="stop24309"
           style="stop-color:#707174"
           offset="0.3587" />
        <stop
           id="stop24311"
           style="stop-color:#58595B"
           offset="0.4607" />
        <stop
           id="stop24313"
           style="stop-color:#434345"
           offset="0.5689" />
        <stop
           id="stop24315"
           style="stop-color:#272627"
           offset="0.6861" />
        <stop
           id="stop24317"
           style="stop-color:#0D0C0D"
           offset="0.8187" />
        <stop
           id="stop24319"
           style="stop-color:#000000"
           offset="1" />
      </radialGradient>
      <path
         inkscape:connector-curvature="0"
         style="fill:url(#SVGID_1_)"
         id="path816"
         d="M 894.194,352.486" />
      <path
         style="fill:#f7931e"
         inkscape:connector-curvature="0"
         id="path818"
         d="m 891.19,327.407 c 0.087,-0.009 0.17,-0.02 0.249,-0.03 -0.082,-0.014 -0.167,-0.002 -0.249,0.03 z" />
      <path
         style="fill:none"
         inkscape:connector-curvature="0"
         id="path820"
         d="m 883.33,326.468 c 0.203,0.802 0.655,1.687 1.336,2.513 1.155,1.395 2.549,2.128 3.475,1.822 0.688,-0.227 1.177,-1.052 1.423,-2.362 -1.96,-0.091 -3.415,-0.735 -4.823,-1.366 -0.459,-0.208 -0.921,-0.416 -1.411,-0.607 z" />
      <path
         style="fill:none"
         inkscape:connector-curvature="0"
         id="path822"
         d="m 893.558,329.745 c 0.026,-0.095 0.054,-0.258 0.054,-0.55 0,-0.318 -0.033,-0.788 -0.131,-1.468 -0.307,0.217 -0.727,0.388 -1.274,0.51 0.524,0.751 1.074,1.365 1.351,1.508 z" />
      <path
         style="fill:none"
         inkscape:connector-curvature="0"
         id="path824"
         d="m 893.076,326.72 c 0.003,-0.205 -0.387,-0.557 -0.906,-0.731 0.146,0.387 0.266,0.77 0.358,1.134 0.418,-0.156 0.548,-0.323 0.548,-0.403 z" />
      <path
         style="fill:#f7931e"
         inkscape:connector-curvature="0"
         id="path826"
         d="m 893.076,326.72 c 0,0.08 -0.13,0.247 -0.548,0.402 0.271,1.085 0.301,2.044 0.12,2.637 0,0 0.642,0.3 1.369,0.937 0.667,-0.34 0.747,-1.481 0.29,-3.991 -0.033,-0.178 -0.158,-0.308 -0.316,-0.367 -0.258,-0.755 -1.255,-1.339 -2.167,-1.428 -0.046,-0.007 -0.09,0.005 -0.133,0.014 0.183,0.355 0.343,0.71 0.479,1.065 0.519,0.174 0.909,0.526 0.906,0.731 z" />
      <path
         style="fill:#f7931e"
         inkscape:connector-curvature="0"
         id="path828"
         d="m 892.528,327.122 c -0.251,0.097 -0.599,0.186 -1.089,0.255 -0.079,0.011 -0.162,0.021 -0.249,0.03 -0.138,0.016 -0.278,0.029 -0.436,0.042 -0.025,0 -0.048,0 -0.073,0 -0.348,0.025 -0.677,0.026 -0.993,0.014 -1.808,-0.068 -3.148,-0.658 -4.544,-1.286 -0.613,-0.274 -1.236,-0.553 -1.912,-0.795 -0.311,-0.112 -0.629,-0.215 -0.968,-0.306 -0.514,-0.142 -1.059,-0.259 -1.662,-0.33 -4.373,-0.526 -7.172,4.38 -7.291,4.593 -0.131,0.236 -0.047,0.535 0.189,0.664 0.238,0.135 0.538,0.05 0.671,-0.185 0.025,-0.046 2.596,-4.544 6.317,-4.097 0.635,0.076 1.218,0.208 1.76,0.368 0.151,1.263 0.877,2.566 1.661,3.516 1.14,1.378 2.93,2.664 4.541,2.132 0.793,-0.263 1.734,-1.067 2.112,-3.301 0.091,-0.003 0.173,-0.003 0.266,-0.007 0.104,-0.009 0.197,-0.022 0.297,-0.032 0.838,1.313 1.947,2.668 2.809,2.338 0.03,-0.009 0.058,-0.026 0.084,-0.04 -0.728,-0.637 -1.369,-0.937 -1.369,-0.937 0.18,-0.592 0.15,-1.551 -0.121,-2.636 z" />
      <radialGradient
         gradientUnits="userSpaceOnUse"
         gradientTransform="translate(3.25,1.5)"
         r="2.6842999"
         cy="327.13571"
         cx="883.19733"
         id="radialGradient24350">
        <stop
           id="stop24330"
           style="stop-color:#FFFFFF"
           offset="0" />
        <stop
           id="stop24332"
           style="stop-color:#D3D4D6"
           offset="0.0787" />
        <stop
           id="stop24334"
           style="stop-color:#ABADB0"
           offset="0.1673" />
        <stop
           id="stop24336"
           style="stop-color:#8B8D8F"
           offset="0.2612" />
        <stop
           id="stop24338"
           style="stop-color:#707174"
           offset="0.3587" />
        <stop
           id="stop24340"
           style="stop-color:#58595B"
           offset="0.4607" />
        <stop
           id="stop24342"
           style="stop-color:#434345"
           offset="0.5689" />
        <stop
           id="stop24344"
           style="stop-color:#272627"
           offset="0.6861" />
        <stop
           id="stop24346"
           style="stop-color:#0D0C0D"
           offset="0.8187" />
        <stop
           id="stop24348"
           style="stop-color:#000000"
           offset="1" />
      </radialGradient>
      <path
         inkscape:connector-curvature="0"
         style="fill:url(#SVGID_2_)"
         id="path851"
         d="m 888.142,330.803 c -0.926,0.306 -2.32,-0.428 -3.475,-1.822 -0.682,-0.826 -1.133,-1.711 -1.336,-2.513 0.49,0.191 0.952,0.399 1.411,0.606 1.408,0.631 2.863,1.275 4.823,1.366 -0.247,1.311 -0.736,2.136 -1.423,2.363 z" />
      <path
         inkscape:connector-curvature="0"
         id="path853"
         d="m 893.558,329.745 c -0.276,-0.144 -0.826,-0.757 -1.352,-1.508 0.548,-0.122 0.968,-0.293 1.274,-0.51 0.098,0.68 0.131,1.149 0.131,1.468 0,0.292 -0.027,0.455 -0.053,0.55 z" />
    </g>
  </g>
</svg>
