<?xml version="1.0" encoding="UTF-8" standalone="no"?>
<!-- Created with Inkscape (http://www.inkscape.org/) -->

<svg
   xmlns:dc="http://purl.org/dc/elements/1.1/"
   xmlns:cc="http://creativecommons.org/ns#"
   xmlns:rdf="http://www.w3.org/1999/02/22-rdf-syntax-ns#"
   xmlns:svg="http://www.w3.org/2000/svg"
   xmlns="http://www.w3.org/2000/svg"
   xmlns:sodipodi="http://sodipodi.sourceforge.net/DTD/sodipodi-0.dtd"
   xmlns:inkscape="http://www.inkscape.org/namespaces/inkscape"
   width="23.26932mm"
   height="9.7780762mm"
   viewBox="0 0 23.26932 9.7780762"
   version="1.1"
   id="svg27022"
   inkscape:version="0.92.3 (2405546, 2018-03-11)"
   sodipodi:docname="eagles.svg">
  <defs
     id="defs27016" />
  <sodipodi:namedview
     id="base"
     pagecolor="#ffffff"
     bordercolor="#666666"
     borderopacity="1.0"
     inkscape:pageopacity="0.0"
     inkscape:pageshadow="2"
     inkscape:zoom="0.35"
     inkscape:cx="-1454.5979"
     inkscape:cy="169.90682"
     inkscape:document-units="mm"
     inkscape:current-layer="layer1"
     showgrid="false"
     fit-margin-top="0"
     fit-margin-left="0"
     fit-margin-right="0"
     fit-margin-bottom="0"
     inkscape:window-width="1920"
     inkscape:window-height="1043"
     inkscape:window-x="0"
     inkscape:window-y="0"
     inkscape:window-maximized="1" />
  <metadata
     id="metadata27019">
    <rdf:RDF>
      <cc:Work
         rdf:about="">
        <dc:format>image/svg+xml</dc:format>
        <dc:type
           rdf:resource="http://purl.org/dc/dcmitype/StillImage" />
        <dc:title></dc:title>
      </cc:Work>
    </rdf:RDF>
  </metadata>
  <g
     inkscape:label="Layer 1"
     inkscape:groupmode="layer"
     id="layer1"
     transform="translate(-330.05582,-184.00977)">
    <g
       transform="matrix(0.26458333,0,0,0.26458333,15.121248,97.424239)"
       id="g4415">
      <path
         style="stroke:#00653a;stroke-width:3"
         inkscape:connector-curvature="0"
         id="path4397"
         d="m 1202.483,337.958 -0.772,-1.852 c 0,0 5.368,0.37 14.7,-4.159 0,0 5.525,-2.868 13.096,-2.953 7.571,-0.086 5.893,-0.215 5.893,-0.215 l -2.604,1.258 c 0,0 15.668,-0.757 21.222,0.94 l -3.481,1.53 c 0,0 18.082,2.563 24.642,4.317 0,0 -8.918,7.96 -9.678,8.336 l 4.657,1.636 c 0,0 -9.893,6.454 -12.416,7.15 l 1.758,1.574 c 0,0 -11.557,6.547 -16.655,7.053 0,0 -2.536,0.475 -5.035,-0.391 l -0.252,-2.55 c 0,0 -3.291,4.975 -11.172,1.513 0,0 4.66,-6.389 -1.678,-8.154 0,0 -3.17,-0.938 -5.355,-0.148 0,0 -4.851,4.948 -7.812,5.78 0,0 -2.483,1.475 -6.031,1.783 0,0 -0.652,-1.746 0.193,-4.579 0,0 2.492,-3.257 1.927,-5.455 0,0 -1.026,-2.395 -3.556,-1.808 0,0 -3.46,-0.143 -3.713,1.32 0,0 -1.113,2.066 0.639,3.529 0,0 -5.227,2.183 -8.07,-2.894 0,0 -2.623,-3.088 0.113,-8.03 0,0 1.195,-2.517 6.911,-3.948 z" />
      <path
         style="fill:#c9cdd3;stroke:#c9cdd3;stroke-width:0.5"
         inkscape:connector-curvature="0"
         id="path4399"
         d="m 1249.821,333.661 c 0,0 13.446,1.373 18.629,4.429 0,0 -3.271,3.3 -7.288,5.194 0,0 -16,-5.24 -19.777,-5.031 l -2.006,-10e-4 c 0,0 19.321,4.835 23.332,8.848 0,0 -2.932,3.393 -7.991,4.565 0,0 -11.676,-7.6 -22.771,-6.761 l -2.784,0.042 c 0,0 15.306,0.713 22.949,9.981 0,0 -2.425,2.475 -10.102,4.683 0,0 -2.27,-10.793 -20.81,-9.542" />
      <path
         style="fill:#c9cdd3;stroke:#c9cdd3;stroke-width:0.5"
         inkscape:connector-curvature="0"
         id="path4401"
         d="m 1222.259,351.011 c 0,0 8.571,-2.147 14.051,6.242 0,0 -0.594,1.369 -4.562,2.147 -10e-4,0 0.25,-7.591 -9.489,-8.389 z" />
      <path
         style="fill:#c9cdd3;stroke:#c9cdd3;stroke-width:0.5"
         inkscape:connector-curvature="0"
         id="path4403"
         d="m 1220.06,342.813 -1.609,-0.876 c 0,0 0.855,-0.643 1.921,-1.518 0.743,-0.612 1.663,-0.835 1.663,-0.835 0,0 -0.32,-0.276 -0.687,-0.334 -0.665,-0.103 -1.116,-0.013 -1.116,-0.013 0,0 1.991,-2.932 6.04,-3.603 4.049,-0.67 1.21,3.053 0.01,4.16 -1.201,1.105 -5.757,3.364 -5.757,3.364 z" />
      <path
         style="fill:#ffffff;stroke:#ffffff;stroke-width:0.5"
         inkscape:connector-curvature="0"
         id="path4405"
         d="m 1215.33,340.588 -0.762,0.32 c 0,0 -0.133,0.621 0.267,0.766 0.396,0.145 0.684,0.296 0.684,0.296 0,0 -0.485,-0.698 -0.189,-1.382 z" />
      <path
         style="fill:#ffffff"
         inkscape:connector-curvature="0"
         id="path4407"
         d="m 1204.432,336.958 c 0,0 3.824,0.641 10.177,-2.68 0,0 6.794,-3.425 11.158,-3.739 2.442,-0.177 5.476,-0.379 5.476,-0.379 l -2.724,1.116 c 0,0 10.436,-0.689 20.409,0.317 l -5.599,1.538 c 0,0 12.836,0.401 20.722,5.982 0,0 -9.613,-2.589 -13.385,-2.268 0,0 5.765,1.464 7.986,3.346 0,0 -11.904,-3.686 -22.302,-2.329 0,0 11.568,1.698 19.474,9.616 0,0 -6.623,-4.869 -17.002,-5.184 0,0 5.197,1.27 6.065,2.895 0,0 -5.368,-2.377 -15.724,-0.244 l -1.869,0.438 c 0,0 11.379,0.261 14.645,4.87 0,0 -7.134,-4.062 -14.775,-3.192 0,0 4.821,0.513 7.068,2.839 0,0 -4.005,-1.894 -9.658,-1.357 0,0 -1.649,0.424 -3.372,1.524 l -0.776,0.042 c 0,0 2.475,-1.586 2.887,-2.165 0,0 -8.838,1.344 -11.729,-4.588 0,0 1.77,1.796 3.885,1.791 0,0 -2.836,-0.956 -2.713,-2.748 0,0 -0.114,-0.735 -0.818,-1.365 l 0.635,0.039 0.776,-0.043 c 0,0 -0.342,2.358 1.688,2.806 0,0 1.564,0.58 3.415,-0.191 2.879,-1.198 3.496,-3.258 3.496,-3.258 0,0 1.26,-0.403 1.809,-0.546 0.869,-0.224 3.45,-1.083 3.45,-1.083 0,0 -2.601,0.25 -3.546,0.363 -0.827,0.102 -1.838,-0.008 -1.404,-0.256 0.431,-0.247 1.719,-1.728 2.01,-1.894 0.324,-0.185 0.76,-0.822 1.724,-1.099 1.606,-0.46 3.868,-0.548 3.868,-0.548 l 2.123,0.105 c 0,0 -0.259,-0.655 -3.158,-0.718 -2.226,-0.047 -3.791,-0.013 -4.674,0.147 -0.883,0.161 -1.652,0.315 -3.399,0.97 -1.746,0.652 -2.383,1.245 -2.383,1.245 0,0 -0.314,0.352 -0.142,-0.549 0.172,-0.9 0.722,-1.043 0.722,-1.043 0,0 -1.549,0.198 -2.059,1.006 -0.514,0.809 -1.558,2.091 -2.655,2.376 -1.1,0.282 -3.846,0.993 -6.11,0.338 -2.268,-0.651 -3.328,-1.706 -3.692,-2.243 z" />
      <path
         style="fill:#c9cdd3;stroke:#c9cdd3;stroke-width:0.5"
         inkscape:connector-curvature="0"
         id="path4409"
         d="m 1199.416,353.003 c 0,0 -7.736,-0.854 -4.908,-9.144 0,0 1.63,-2.765 6.602,-3.542 0,0 3.869,-0.55 4.261,-0.515 0,0 1.393,1.036 3.594,1.528 0,0 2.697,7.426 10.417,8.001 0,0 -3.482,7.547 -13.046,9.917 0,0 -0.856,-3.408 2.359,-6.705 l 0.08,-2.567 0.725,0.017 c 0,0 1.323,0.704 0.794,2.238 0,0 -2.284,3.024 -2.354,3.752 -0.071,0.729 -0.097,1.287 -0.097,1.287 0,0 2.307,0.429 7.61,-6.439 0,0 -4.308,-4.329 -9.278,-4.554 0,0 -5.084,-0.277 -6.523,0.918 0,0 -3.827,1.271 -0.188,5.637" />
      <path
         style="stroke:#000000;stroke-width:0.5"
         inkscape:connector-curvature="0"
         id="path4411"
         d="m 1204.708,341.956 2.668,-0.147 c -0.176,0.845 1.15,1.663 1.15,1.663 -0.953,-0.114 -2.134,-0.272 -2.753,-0.404 -0.715,-0.155 -1.598,-0.691 -1.065,-1.112 z" />
      <path
         style="fill:#ffffff;stroke:#ffffff;stroke-width:0.5"
         inkscape:connector-curvature="0"
         id="path4413"
         d="m 1219.442,338.392 -0.844,0.863 c 0,0 0.065,-0.15 0.102,0.515 0.038,0.667 0.15,1.33 -0.118,1.863 -0.268,0.536 -0.461,1.064 -1.489,1.27 -1.027,0.207 -1.543,0.311 -2.375,0.059 -0.83,-0.251 -1.588,-0.506 -1.588,-0.506 l 0.207,-0.309 c 0,0 1.701,0.63 2.225,0.6 0.518,-0.026 1.749,-0.096 2.19,-0.678 0.3,-0.396 0.427,-1.359 0.401,-1.804 -0.024,-0.445 -0.229,-1.122 -0.229,-1.122 z" />
    </g>
  </g>
</svg>
