<?xml version="1.0" encoding="UTF-8"?>
<svg version="1.1" viewBox="0 0 17.45 16.936" xmlns="http://www.w3.org/2000/svg" xmlns:cc="http://creativecommons.org/ns#" xmlns:dc="http://purl.org/dc/elements/1.1/" xmlns:rdf="http://www.w3.org/1999/02/22-rdf-syntax-ns#">
 <metadata>
  <rdf:RDF>
   <cc:Work rdf:about="">
    <dc:format>image/svg+xml</dc:format>
    <dc:type rdf:resource="http://purl.org/dc/dcmitype/StillImage"/>
    <dc:title/>
   </cc:Work>
  </rdf:RDF>
 </metadata>
 <g transform="translate(379.9 -26.216)">
  <g transform="matrix(.26458 0 0 .26458 -608.25 -76.914)">
   <path d="m874.73 392.78-5.685 18.024c5.819-4.952 14.479-7.632 14.479-7.632-2.231 11.528 0 25.168 4.872 31.827 3.021 4.128 8.423 9.294 11.637 12.015 2.301 1.948 7.578 5.196 7.578 3.086 0-1.199-1.9-.029-2.843-5.684-.54-3.247-.271-51.637-.271-51.637h-29.767z" style="fill:none;stroke-width:6;stroke:#eb2d2e"/>
   <path d="m904.43 393.97-.073 8.866s9.894-1.257 12.211-1.611c1.548-.237 4.769-1.528 5.669-1.402 0 0-.414-1.263-.689-1.668-.294-.43-.384-2.303-5.712-2.494-.534-.02-.311-.078-.625-.215-.316-.135-.406-.315-1.219-.631-.545-.213-5.008-1.396-7.681-1.736l-1.938-.172s-.211-.076-.985-.004c-.774.07-2.644.528-2.644.528" style="fill:none;stroke-width:6;stroke:#eb2d2e"/>
   <polygon points="925.1 418.95 924.46 415.89 904.7 404.28 904.7 411.73 911.81 411.62 916.42 414.6 916.14 416.09 920.07 418.73 920.23 417.16 923.4 418.53" style="fill:none;stroke-width:6;stroke:#eb2d2e"/>
   <path d="m874.73 392.78-5.685 18.024c5.819-4.952 14.479-7.632 14.479-7.632-2.231 11.528 0 25.168 4.872 31.827 3.021 4.128 8.423 9.294 11.637 12.015 2.301 1.948 7.578 5.196 7.578 3.086 0-1.199-1.9-.029-2.843-5.684-.54-3.247-.271-51.637-.271-51.637h-29.767z" style="stroke:#ffffff"/>
   <path d="m905.43 392.9c2.301.29 7.918 1.661 8.561 1.912.812.315.902.496 1.219.631.314.137.091.195.625.215 5.328.191 5.418 2.064 5.712 2.494.275.405.689 1.668.689 1.668-.9-.126-2.8.676-4.348.912-2.318.355-13.407 1.759-13.407 1.759v-9.663l.984.072" style="fill:#ffffff;stroke:#ffffff"/>
   <polygon points="924.78 418.95 924.15 415.89 904.38 404.28 904.38 411.73 911.5 411.62 916.1 414.6 915.83 416.09 919.75 418.73 919.92 417.16 923.09 418.53" style="stroke:#ffffff"/>
   <line x1="882.92" x2="888.84" y1="415.04" y2="407.64" style="fill:none;stroke-linecap:round;stroke:#ffffff"/>
   <line x1="884.59" x2="890.51" y1="425.46" y2="412.98" style="fill:none;stroke-linecap:round;stroke:#ffffff"/>
   <line x1="888.6" x2="892.19" y1="434.97" y2="418.32" style="fill:none;stroke-linecap:round;stroke:#ffffff"/>
   <line x1="893.72" x2="895.39" y1="441.02" y2="422.55" style="fill:none;stroke-linecap:round;stroke:#ffffff"/>
   <line x1="898.72" x2="899.14" y1="445.86" y2="425.61" style="fill:none;stroke-linecap:round;stroke:#ffffff"/>
   <path d="m904.4 393.01s2.404.309 5.294 1.26c0 0 3.529.337 3.841.458.812.315 1.28.761 1.595.896.316.135.092.17.626.215 4.571.378 5.009 1.738 5.474 2.306.66.807.926 1.854.926 1.854-.771-.107-2.702.701-4.33 1.045-3.119.66-13.425 1.628-13.425 1.628v-9.662z" style="stroke:#ffffff"/>
   <circle cx="913.63" cy="396.83" r=".49" style="fill:#ffffff"/>
   <path d="m922.08 399.32s-1.067-1.631-.953-.697c.044.355-1.566.053-1.566.053s-5.086-.411-4.739.767c.13.449 4.122-.238 4.519.185.8.854-5.182 2.004-5.182 2.004l7.888-1.688z" style="fill:#ffffff"/>
   <path d="m874.73 392.78-5.685 18.024c5.819-4.952 14.479-7.632 14.479-7.632-2.231 11.528 0 25.168 4.872 31.827 3.021 4.128 8.423 9.294 11.637 12.015 2.301 1.948 7.578 5.196 7.578 3.086 0-1.199-1.9-.029-2.843-5.684-.54-3.247-.271-51.637-.271-51.637h-29.767z" style="fill:none;stroke:#ffffff"/>
  </g>
 </g>
</svg>
