<?xml version="1.0" encoding="UTF-8" standalone="no"?>
<!-- Created with Inkscape (http://www.inkscape.org/) -->

<svg
   xmlns:dc="http://purl.org/dc/elements/1.1/"
   xmlns:cc="http://creativecommons.org/ns#"
   xmlns:rdf="http://www.w3.org/1999/02/22-rdf-syntax-ns#"
   xmlns:svg="http://www.w3.org/2000/svg"
   xmlns="http://www.w3.org/2000/svg"
   xmlns:sodipodi="http://sodipodi.sourceforge.net/DTD/sodipodi-0.dtd"
   xmlns:inkscape="http://www.inkscape.org/namespaces/inkscape"
   width="12.802658mm"
   height="10.057606mm"
   viewBox="0 0 12.802658 10.057606"
   version="1.1"
   id="svg25810"
   inkscape:version="0.92.3 (2405546, 2018-03-11)"
   sodipodi:docname="giants.svg">
  <defs
     id="defs25804" />
  <sodipodi:namedview
     id="base"
     pagecolor="#ffffff"
     bordercolor="#666666"
     borderopacity="1.0"
     inkscape:pageopacity="0.0"
     inkscape:pageshadow="2"
     inkscape:zoom="0.35"
     inkscape:cx="-948.66314"
     inkscape:cy="521.86363"
     inkscape:document-units="mm"
     inkscape:current-layer="layer1"
     showgrid="false"
     fit-margin-top="0"
     fit-margin-left="0"
     fit-margin-right="0"
     fit-margin-bottom="0"
     inkscape:window-width="1920"
     inkscape:window-height="1043"
     inkscape:window-x="0"
     inkscape:window-y="0"
     inkscape:window-maximized="1" />
  <metadata
     id="metadata25807">
    <rdf:RDF>
      <cc:Work
         rdf:about="">
        <dc:format>image/svg+xml</dc:format>
        <dc:type
           rdf:resource="http://purl.org/dc/dcmitype/StillImage" />
        <dc:title></dc:title>
      </cc:Work>
    </rdf:RDF>
  </metadata>
  <g
     inkscape:label="Layer 1"
     inkscape:groupmode="layer"
     id="layer1"
     transform="translate(-196.19391,-276.85215)">
    <g
       transform="matrix(0.26458333,0,0,0.26458333,-72.380131,156.4834)"
       id="g489">
      <path
         style="fill:#a62e40;stroke:#a62e40;stroke-miterlimit:1"
         inkscape:connector-curvature="0"
         id="path477"
         d="m 1041.799,475.313 v 6.928 h -7.644 v -0.005 c -0.033,0.001 -0.065,0.005 -0.099,0.005 -1.779,0 -3.225,-1.438 -3.233,-3.217 v 0 -13.992 0 c 0.01,-0.924 -0.224,-1.849 -1.861,-1.857 v 0 c -1.483,0.027 -1.793,0.807 -1.83,1.646 V 482.2 h -7.854 v -18.45 0 c 0,-0.627 -0.378,-1.063 -0.965,-1.142 h -2.73 v -6.928 h 11.549 v 0.886 c 1.213,-0.707 2.739,-1.129 4.398,-1.129 3.932,0 7.122,2.362 7.149,5.283 h 10e-4 v 13.58 c 0.062,0.609 0.504,1.008 1.148,1.008 v 0.006 h 1.976 z"
         stroke-miterlimit="1" />
      <g
         id="g483">
        <path
           style="fill:#a62e40"
           inkscape:connector-curvature="0"
           id="path479"
           d="m 1063.394,487.099 v 0 c 0,0.036 0,0.073 0,0.11 0,3.124 -2.535,5.658 -5.66,5.658 -0.067,0 -0.132,-0.003 -0.197,-0.005 v 0.005 h -38.247 v -7.854 h 35.298 c 0.563,-0.079 0.931,-0.491 0.951,-1.087 v -2.096 c -1.278,0.562 -2.796,0.888 -4.421,0.888 -0.058,0 -0.115,0 -0.171,0 0,0 -0.164,-0.015 -0.267,-0.015 -3.949,0 -7.151,-2.274 -7.151,-5.081 h 7.499 v -0.008 h -7.499 v -13.911 c -0.026,-0.659 -0.48,-1.096 -1.154,-1.096 v 0 h -2.542 v -6.928 h 11.55 v 6.897 0 11.015 c 0.063,0.843 0.442,1.604 2.029,1.634 v -0.001 c 1.673,0.001 2.063,-0.777 2.127,-1.638 v -17.845 h 7.855 z" />
        <path
           style="fill:#a62e40"
           inkscape:connector-curvature="0"
           id="path481"
           d="m 1063.39,487.017 -0.081,0.083 c 0,0.018 0,0.032 0,0.049 0,0.021 0,0.04 0,0.061 0,3.074 -2.502,5.577 -5.577,5.577 -0.055,0 -0.111,-0.003 -0.167,-0.004 h -0.028 l -0.085,0.08 0.083,-0.076 h -38.247 l 0.082,0.081 v -7.854 l -0.082,0.082 h 35.298 0.01 v 0 c 0.608,-0.086 0.999,-0.533 1.022,-1.165 0,-0.004 0,-2.1 0,-2.1 l -0.115,-0.075 c -1.312,0.576 -2.83,0.883 -4.389,0.883 l -0.171,-0.002 c 0,0 -0.161,-0.014 -0.267,-0.014 -2.291,0 -4.451,-0.791 -5.777,-2.118 -0.845,-0.845 -1.293,-1.842 -1.293,-2.882 l -0.081,0.081 h 7.499 0.082 v -0.081 -0.082 c 0,-0.008 -0.082,-0.008 -0.082,-0.008 h -7.499 l 0.081,0.082 v -13.911 c -0.029,-0.706 -0.525,-1.176 -1.235,-1.176 l 0.082,0.08 v -0.08 h -0.082 -2.542 l 0.08,0.08 v -6.928 l -0.08,0.08 h 11.55 l -0.081,-0.08 v 6.897 0.081 h 0.081 l -0.081,-0.081 v 11.015 c 0.054,0.726 0.332,1.683 2.107,1.716 l 0.084,-0.082 -0.081,0.082 c 1.865,0 2.153,-0.979 2.21,-1.716 0,-0.005 0,-17.85 0,-17.85 l -0.083,0.08 h 7.855 l -0.083,-0.08 v 31.356 c 0,10e-4 0.083,-0.081 0.079,-0.081 z m 0,-31.357 h -7.855 -0.082 v 0.082 17.845 c -0.053,0.722 -0.335,1.558 -2.045,1.558 l -0.084,0.08 0.086,-0.08 c -1.627,-0.03 -1.897,-0.85 -1.951,-1.558 0,0.005 0,-11.01 0,-11.01 v -0.081 h -0.08 l 0.08,0.081 v -6.897 -0.083 h -0.08 -11.55 -0.082 v 0.083 6.928 0.083 h 0.082 2.542 l -0.082,-0.083 v 0.083 h 0.082 c 0.627,0 1.048,0.398 1.072,1.016 0,-0.003 0,13.908 0,13.908 v 0.083 h 0.082 7.499 l -0.081,-0.083 0.081,-0.074 -7.499,10e-4 h -0.082 v 0.081 c 0,1.085 0.463,2.12 1.343,2.998 1.354,1.355 3.558,2.165 5.891,2.165 0.098,0 0.258,0.013 0.259,0.013 0.01,0 0.179,0.002 0.179,0.002 1.582,0 3.121,-0.31 4.453,-0.894 l -0.114,-0.076 v 2.096 c -0.018,0.546 -0.356,0.933 -0.881,1.008 l 0.012,-10e-4 h -35.298 -0.08 v 0.08 7.854 0.082 h 0.08 38.247 0.08 v -0.082 l -0.084,0.075 0.028,0.003 c 0.058,10e-4 0.115,0.004 0.173,0.004 3.163,0 5.74,-2.576 5.74,-5.74 0,-0.023 0,-0.046 0,-0.066 0,-0.016 0,-0.03 0,-0.046 l -0.08,0.084 h 0.08 c 0,0 0,-0.082 0,-0.082 v -31.356 -0.082 h -0.081 z" />
      </g>
      <path
         style="fill:#1d466d;stroke:#1d466d;stroke-miterlimit:1"
         inkscape:connector-curvature="0"
         id="path485"
         d="m 1039.6,476.236 c -1.154,0 -1.848,-0.925 -1.848,-1.847 v -13.399 0 c 0,-0.037 0,-0.076 0,-0.116 0,-2.486 -2.792,-4.504 -6.235,-4.504 -2.247,0 -4.214,0.858 -5.312,2.146 v -1.913 h -9.701 v 5.083 h 1.848 c 1.154,0 1.849,0.922 1.849,1.846 v 0 17.787 h 6.005 v -16.366 c 0.01,-1.846 0.914,-2.661 2.788,-2.666 0,-0.002 0,-0.002 0,-0.002 1.769,0.011 2.666,0.753 2.756,2.411 v 14.366 0 c 0.028,1.252 1.05,2.257 2.306,2.257 0,0 0,-0.001 0.01,-0.001 v 0.001 h 6.719 v -5.082 h -1.188 z"
         stroke-miterlimit="1" />
      <path
         style="fill:#1d466d;stroke:#1d466d;stroke-miterlimit:1"
         inkscape:connector-curvature="0"
         id="path487"
         d="m 1062.467,456.603 v 30.519 0 c -0.015,2.594 -2.066,4.704 -4.635,4.816 v 0.005 h -37.633 v -6.005 h 34.445 c 1.137,-0.015 1.817,-0.93 1.817,-1.846 v -3.999 c -1.499,1.029 -3.554,1.662 -5.825,1.662 -0.057,0 -0.114,0 -0.172,0 l 0.017,-0.007 c -3.256,-0.077 -5.878,-1.951 -6.023,-4.295 h -0.01 v -13.922 c 0,-0.924 -0.692,-1.846 -1.846,-1.846 h -1.85 v -5.083 h 9.702 v 2.771 0 14.318 c 0.065,1.604 0.864,2.371 2.453,2.466 h 0.861 c 1.749,-0.029 2.626,-0.795 2.69,-2.484 v -17.07 h 6.007 z"
         stroke-miterlimit="1" />
    </g>
  </g>
</svg>
