<?xml version="1.0" encoding="UTF-8"?>
<svg version="1.1" viewBox="0 0 18.132 15.239" xmlns="http://www.w3.org/2000/svg" xmlns:cc="http://creativecommons.org/ns#" xmlns:dc="http://purl.org/dc/elements/1.1/" xmlns:rdf="http://www.w3.org/1999/02/22-rdf-syntax-ns#">
 <metadata>
  <rdf:RDF>
   <cc:Work rdf:about="">
    <dc:format>image/svg+xml</dc:format>
    <dc:type rdf:resource="http://purl.org/dc/dcmitype/StillImage"/>
    <dc:title/>
   </cc:Work>
  </rdf:RDF>
 </metadata>
 <g transform="translate(418.04 37.191)">
  <g transform="matrix(.26458 0 0 .26458 -660.25 -45.785)">
   <path d="m956.69 32.726c-5.379-.867-17.813.425-27.416 6.074-2.95 1.735-8.156 5.032-10.76 8.328-2.602 3.297-6.224 16.602 2.258 19.781 6.595 2.473 14.922 10.239 17.524 12.842 0 0 6.033 6.328 6.074 6.246 0 0 2.776 2.083 6.42 3.47 0 0 13.015 5.032 18.348-13.842 0 0-10.353 3.688-8.632-.908.272-.724 5.989-1.735 6.13-2.409l3.842.228 4.952-2.156 3.122-4.685c9.545-5.033 3.65-13.267 3.65-13.267l-1.566-1.657-4.859-3.817s4.939-10.353-19.087-14.228z"/>
   <g>
    <path d="m977.75 58.725 1.9-1.902.173-1.729-.692-1.382-1.728-1.557-.345 1.038-1.21-2.939-.692 1.383-.691-2.767h-1.384l.174-1.901.52-.519-.175-2.42s-6.636-6.54-12.445-7.778c-5.155-1.099-3.824-1.299-12.068-1.033-6.051.196-14.311 3.765-15.426 4.322-1.33.664-3.856 2.128-3.856 2.128s12.646-.329 14.235-.231c1.589.099 3.285.346 3.285.346s-19.706 9.854-20.916 11.064c-1.21 1.209-5.014-2.593-5.014-2.593s-2.765 5.186-2.074 8.815c0 0 6.57-2.766 8.816-2.766h15.73l7.434 1.902s5.188 2.075 5.705 2.248c.518.172 4.494 3.457 5.013 3.631.519.172 3.285 1.037 3.285 1.037l3.63-.346 3.456-.691 1.556-1.73s-3.969-2.948-6.044-3.64c-2.074-.691-6.491-1.683-6.491-1.683s8.113.308 9.498.481c1.383.173 4.594 1.73 4.594 1.73z" style="fill:#ecb12a"/>
    <path d="m931.25 70.999s3.113 1.038 4.668 2.247c1.557 1.21 5.358 4.667 7.261 7.088 1.899 2.419 4.667 4.667 5.185 5.186.52.519 1.557 1.21 2.248 1.556s3.112.519 4.84.346c1.729-.173 2.594-1.21 3.285-1.729.69-.518 1.555-1.21 1.555-1.21s-2.593-1.383-3.283-1.383c-.692 0-2.421-.172-3.632.519-1.208.691-2.765.691-3.284.518-.518-.172-2.073-1.901-2.937-2.938-.865-1.038-3.286-4.149-4.15-4.841-.863-.69-4.147-3.457-4.147-3.457l-2.076-1.383-1.922-.661-1.863-.265z" style="fill:#ecb12a"/>
    <path d="m981.21 57.688-2.659 2.701s-1.835 1.792-1.662 2.312c.173.518 1.21.777 2.245.086 1.038-.691 1.753-1.815 1.753-1.815s.906-1.815.842-2.334c-.066-.518-.519-.95-.519-.95z" style="fill:#ecb12a"/>
    <path d="m923.96 54.301s-2.645-.248-2.645 0c0 .25-.448 1.547-.249 1.697.2.149 1.446-.15 2.294-.35.848-.199 1.098-.448 1.147-.797.05-.35.2-.448-.05-.498-.249-.052-.497-.052-.497-.052z"/>
    <path d="m930.9 52.889s-.797-.499-1.645.049c-.849.55-1.696 1.397-1.298 1.498.399.099 1.944-.3 2.393-.449.45-.15.849-.2.748-.449-.097-.25-.198-.649-.198-.649z"/>
    <path d="m961.52 37.48c.464.067.88.267.946.599.066.333-.299 1.147-.299 1.147s-.267.232-.98.465c-.715.233-.799-.516-.865-.715-.065-.2.532-1.014.532-1.014z"/>
    <path d="m976.72 64.776-2.074-.173s-1.212.863-2.421 1.21c-1.21.346-1.038.518-2.593.863-1.557.346-5.014-.172-5.878-.172-.865 0-2.42-.865-2.939-1.21-.519-.346-2.592-1.729-2.592-1.729s-2.593-2.075-3.284-2.075c-.189 0-3.545 1.038-3.545 1.038-.519.691.477.887 1.686 1.297.82.278 1.168.454 2.377.778 1.017.271 4.495 1.556 4.495 1.556l2.42 2.075-2.243 3.62s2.071-.336 3.28-.855c1.21-.519 2.938-1.902 2.938-1.902s.364-.102.962.164c.149.067.523-.671.688-.712.215-.053.304.606.511.579.14-.018.604-.731.73-.731l.398.532c.151-.021.599-.466.599-.466s.41.303.737.223c.438-.106.972-.842.972-.842l-1.274 2.809s3.283-1.037 3.803-1.901c.518-.865 2.247-3.976 2.247-3.976z" style="fill:#ffffff"/>
    <path d="m944.33 74.844s1.966 2.377 2.484 2.724c.518.345 1.901 2.248 1.901 2.248l1.556 2.247h1.384c1.382 0 2.419-.519 3.284-.519.864 0 3.111-.691 3.803-.345.69.345 1.901 1.555 1.901 1.555s1.557.519 2.075-.172 1.729-3.284 1.729-3.284l-2.939 1.382-.648-.714-.778.196-.648-.196.065-.453h-1.231l-.391-.454-1.035.258-.345-2.441-2.594 2.074s-1.211.692-1.902.692-1.837-1.102-1.837-1.102l-2.139-2.01z" style="fill:#ffffff"/>
    <path d="m954.07 68.751.865 5.532s.496.972-.368 1.664c-.864.69-1.814 1.037-2.334 1.037-.519 0-1.771-.648-2.981-2.203-1.209-1.557-1.75-3.264-1.75-3.264l-.865-2.248-3.025-.454s1.469-2.657 2.681-2.657c1.21 0 2.593-.174 2.767 1.037.171 1.209 1.383 3.977 1.383 3.977l1.037-3.113z" style="fill:#0cbacd"/>
    <polygon points="926.58 50.6 920.36 46.452 931.77 47.143" style="fill:#ffffff"/>
    <path d="m957.63 48.85 1.196.898-9.074.498 4.315 1.219 2.364 1.375 2.395 2.094c1.596-2.892 6.304-3.641 6.304-3.641-2.814-.447-3.712-1.843-5.307-2.941l-1.595-.398-4.589.499z"/>
    <path d="m935.99 54.435 9.974.73 6.782 1.596 7.029 2.136 4.872 2.252s-.066.533-.599.466c-.532-.068-3.856-1.663-4.721-1.995-.865-.333-5.053-1.861-5.053-1.861l-7.514-1.862z"/>
    <path d="m960.27 51.721s-.449.747-1.441.719-1.536-.099-1.536-.099l.19.448s.533.367 1.526.395c.992.028 1.056-.594 1.386-.843.33-.25-.125-.62-.125-.62z" style="fill:#ffffff"/>
    <path d="m937.37 49.535s-.441-.974-.92-.611c-.48.362-.314.146-.656.863-.342.716-.476.772-.939 1.056-.465.282-.59.299-.745.682-.154.381.404.692 1.196.635.791-.056 1.386-.501 1.621-.726.251-.241.562-.639.566-1.09.002-.453-.123-.809-.123-.809z"/>
    <path d="m940.21 50.956s.751.003 1.177.504c.763.898 1.691.384 2.297.343.604-.04.928-.202 1.252-.161.322.04.725.282.362.685-.362.405-1.01.809-1.413.85-.403.04-1.696.283-2.666-.162s-1.009-.688-1.293-1.13c-.183-.289-.323-1.01.284-.929z"/>
    <path d="m949.35 52.605s.473-.121 1.417.121c.673.173 1.053.297.945 1.01-.072.484-.544.403-.872.403s-2.253 0-2.219-.647c.037-.644.109-.765.729-.887z"/>
    <path d="m941.85 49.715s.276.399 1.003.449c.809.053.761.143 1.473-.065.294-.086.761-.232.573-.703-.242-.611-1.013-.692-1.62-.727-.606-.033-1.393.074-1.456.27-.065.195-.336.406.027.776z"/>
    <path d="m945.95 47.894s-.849-.688-1.776-.889c-.671-.146-1.656-.041-2.343.202s-.971.081-1.01-.242c-.04-.323.767-.848 1.13-.969s1.334-.323 1.857-.283c.526.041 1.104.139 1.656.323.365.121.889.364 1.253.889.16.233.403.929-.162 1.05-.565.12-.605-.081-.605-.081z"/>
    <path d="m951.17 45.62s-.812.277-1.628-.125c-.449-.221-.434-.323-1.055-.994-.472-.509-.187-.68-.85-.985-.227-.104-1.195.682-.898 1.084.188.257.679 1.015.92 1.267.39.402.936.698 1.413.841.479.144 1.117.44 1.624.488.506.049 1.099-.054 1.495-.122.44-.077.908-.248.926-.659.02-.411-.404-.902-.752-.957-.349-.053-1.195.162-1.195.162z"/>
    <path d="m935.33 39.674s-1.729.465-1.729.731-.332.399.399.467c.731.066 1.063-.266 1.396-.467.332-.199 1.064-.397.799-.796-.331-.496-.865.065-.865.065z"/>
    <path d="m940.71 38.344s-1.262.067-1.661.466c-.398.398-.864.864-.731 1.13.134.266.798.332 1.53.266.73-.066.795-.133 1.396-.397.597-.267.664-.666.597-.932s-.267-.599-1.131-.533z"/>
    <path d="m946.33 36.898s-.265.133-.465.532c-.199.399-.205.83-.331.997-.499.648-1.064.731-1.264.799-.2.065-.533.065-.601.465-.064.398 0 .532.4.731.399.199.998.398 1.596.199.599-.199 1.13-.532 1.463-1.197.332-.666.738-1.417.698-2.011-.034-.482-.433-.915-.832-.782-.397.136-.664.267-.664.267z"/>
    <path d="m950.42 39.355s.293-.337.579.148c.288.485.347 1.325-.028 1.983-.376.659-.8 1.511-1.122 1.428-.322-.082-.546-.277-.639-.987-.092-.711.234-1.45.317-1.772.084-.323.507-.9.893-.8z"/>
    <path d="m954.41 44.129s-.666.465-.599.864.73.798 1.064.798c.331 0 2.26-.132 2.26-.132l1.262-.133s.601-.133.667-.333c.065-.2.53-.997-.134-1.13-.665-.133-2.526.133-2.526.133z"/>
    <path d="m961.66 45.525s.874.303 1.197.731c.397.532.797.798.464 1.197-.332.399-.549.299-.847.299-.398 0-.749-.299-1.213-.897-.657-.846-.399-1.33.399-1.33z"/>
    <path d="m966.24 47.454s3.059-1.13 3.988-.732c.932.399.864 0 1.265.666.399.665 0 .998-.6.998-.81 0-1.463-.267-2.26 0-.798.265-1.597.531-1.995.664-.398.132-.932.132-.932-.399s.534-1.197.534-1.197z"/>
    <path d="m965.61 44.512s0-.6-.664-1.064c-.664-.466-1.529-.533-1.729-1.064-.199-.532-1.15-1.177-1.463-1.064-.731.267-.466 1.529-.066 1.928.399.399 1.195 1.33 1.529 1.33.332 0 .688.318 1.129.466.799.265.999-.067.999-.067z"/>
    <path d="m956.35 41.885s1.53-.333 1.729-.731c.2-.399.532-.998.2-1.13-.332-.133-1.663-.133-1.663-.133l-1.328.266s-.41.297-.533.665c-.133.399 0 .865.398.931.401.066 1.197.132 1.197.132z"/>
    <path d="m958.53 36.749s-1.53-.754-2.128-.731c-.597.024-1.465.101-2.261.2-.795.097-1.329.597-1.329.597s-.877.679-.533.998c.348.319 1.53.14 1.729.133.2-.008 1.916-.199 1.916-.199l1.338.213 1.069.452s.737-.267.73-.465c-.007-.2.211-.962-.531-1.198z"/>
    <path d="m964.22 39.924s.948 0 1.296.299c.35.299.947.897.947 1.247 0 .349.052.548-.199.599-.248.049-.35.099-.848-.101-.498-.199-1.047-.648-1.146-.847s-.348-.548-.299-.848c.05-.299.249-.349.249-.349z"/>
    <path d="m968.6 40.971s1.197 1.047 1.295 1.396c.102.35.301.598.102.798s-.349.25-.647.299c-.301.05-.648-.25-.848-.649-.199-.398-.4-1.096-.549-1.396-.151-.299-.3-.499-.449-.698s.051-.399.249-.349c.199.051.847.599.847.599z"/>
    <path d="m947.86 59.621-1.495 1.796s-12.167-2.294-15.758-1.896c-3.59.4-6.281.897-7.679 1.197-1.396.299-1.695.299-1.695.299s4.09-1.895 5.386-2.094c1.296-.2 6.283-1.197 11.068-.599 4.788.599 10.173 1.297 10.173 1.297z" style="fill:#ffffff"/>
    <path d="m944.07 63.56-1.098 1.198-12.266-1.597-5.884-.398s5.485-.4 7.778-.4c1.399 0 6.283.499 6.283.499z" style="fill:#ffffff"/>
    <path d="m971.05 52.24c-3.242-.199-5.685 1.396-5.685 1.396l1.445.299c.998-.897 4.24-1.695 4.24-1.695z"/>
   </g>
  </g>
 </g>
</svg>
