<?xml version="1.0" encoding="UTF-8"?>
<svg version="1.1" viewBox="0 0 20.467 12.603" xmlns="http://www.w3.org/2000/svg" xmlns:cc="http://creativecommons.org/ns#" xmlns:dc="http://purl.org/dc/elements/1.1/" xmlns:rdf="http://www.w3.org/1999/02/22-rdf-syntax-ns#">
 <metadata>
  <rdf:RDF>
   <cc:Work rdf:about="">
    <dc:format>image/svg+xml</dc:format>
    <dc:type rdf:resource="http://purl.org/dc/dcmitype/StillImage"/>
    <dc:title/>
   </cc:Work>
  </rdf:RDF>
 </metadata>
 <g transform="translate(-248.3 108.44)">
  <g transform="matrix(.26458 0 0 .26458 -68.622 -117.04)">
   <path d="m1236.5 80.101c21.699-.485 38.674-10.913 38.674-24.373s-18.528-23.664-38.211-23.235c-23.39.511-39.493 12.471-39.138 23.49.463 14.297 21.074 24.511 38.675 24.118z" style="fill:#008f48"/>
   <polyline points="1216.6 52.664 1216.6 45.77 1212.9 45.77 1212.9 43.983 1222.4 43.983 1224.3 46.664" style="fill:none;stroke-width:2;stroke:#ffffff"/>
   <polyline points="1217.3 63.131 1217.3 64.408 1216.4 65.685 1212.9 65.685 1212.9 67.983 1223.1 67.983 1223.1 66.195 1219.4 66.195 1219.4 62.366" style="fill:none;stroke-width:2;stroke:#ffffff"/>
   <polyline points="1241.4 49.6 1239.5 47.046 1238.4 46.025 1235.6 46.025 1234.2 46.792 1234.2 49.6" style="fill:none;stroke-width:2;stroke:#ffffff"/>
   <path d="m1232.5 49.6v-2.936l-.984-.894h-2.664v-1.787h19.453v1.532h-3.242s-.868.447 0 2.042c.377.693 1.157 2.043 1.157 2.043" style="fill:none;stroke-width:2;stroke:#ffffff"/>
   <line x1="1226.1" x2="1226.5" y1="49.089" y2="49.664" style="fill:none;stroke-width:2;stroke:#ffffff"/>
   <line x1="1234.2" x2="1234.2" y1="59.43" y2="61.536" style="fill:none;stroke-width:2;stroke:#ffffff"/>
   <line x1="1228" x2="1229.8" y1="61.472" y2="63.643" style="fill:none;stroke-width:2;stroke:#ffffff"/>
   <polyline points="1245.3 57.961 1246 59.238 1246 64.791 1245.1 65.94" style="fill:none;stroke-width:2;stroke:#ffffff"/>
   <polyline points="1251.2 61.918 1251.2 64.854 1252 65.685 1254.6 65.685 1254.6 67.536 1245.4 67.536" style="fill:none;stroke-width:2;stroke:#ffffff"/>
   <path d="m1256.2 49.472 2.722-3.767h2.719v-1.979h-10.015v1.979h3.821s.694.383.405 1.022c-.29.638-1.505 2.681-1.505 2.681" style="fill:none;stroke-width:2;stroke:#ffffff"/>
   <path d="m1220.5 47.749-5.038 9.957h-1.39s.233-1.085.755-2.042c.52-.958.752-1.468.752-1.468h-5.153l-1.679 3.255s-.231 1.468.059 2.171c.289.701.637 1.468 1.62 1.851.985.383 1.144.432 1.144.432l5.471-.048s1.202-.255 2.07-1.148c.869-.894 7.005-12.958 7.005-12.958h-5.616z" style="fill:#ffffff"/>
   <polygon points="1230.3 54.578 1230.8 53.302 1236.1 53.302 1237.3 50.876 1226.6 50.812 1221.9 60.707 1232.7 60.707 1234.1 58.217 1228.2 58.217 1228.7 57.067 1233.9 57.067 1235.2 54.578" style="fill:#ffffff"/>
   <polygon points="1238.9 50.812 1237.5 53.43 1240.6 53.43 1237.1 60.579 1243 60.579 1246.5 53.366 1249.2 53.366 1250.3 50.876" style="fill:#ffffff"/>
   <path d="m1261.5 53.749-.116-1.724s-1.101-1.212-2.316-1.34-4.457 0-4.457 0-1.796.063-2.549.893c0 0-.983.831-1.157 1.148-.174.32-.405 1.405-.405 1.661 0 .255.058 1.212.348 1.404.289.191.984.703 1.389.766s1.854.51 1.854.51.752.255.752.639-.116.575-.521.702c-.406.128-.463.128-.752 0-.29-.127-.29-.83-.29-.83v-.192h-4.458s-.173 1.277-.173 1.596c0 .32.404 1.022.578 1.213.173.192 1.331.831 2.084.958.752.127 4.689.063 5.037.063s1.273-.191 1.678-.447c.406-.255 1.448-1.34 1.564-1.788.115-.446.348-.701.348-1.276 0-.574 0-.894-.058-1.212-.06-.32-.522-.895-.928-1.086-.404-.191-3.068-.958-3.068-.958s-.579-.574-.463-.958c.115-.382.115-.446.348-.574.231-.127.637-.063.637-.063s.29 0 .347.318c.058.319.174.831.174.831h4.575v-.254z" style="fill:#ffffff"/>
   <path d="m1228 67.265s.362-1.315 1.78-2.776c1.347-1.388 4.602-2.203 4.602-2.203h3.345c5.427.047 7.12 5.027 7.12 5.027h-3.428s-.521-1.771-1.304-1.771h-7.165s-.696.144-1.042.814c-.349.67-.349.766-.349.766h-3.646" style="fill:#ffffff"/>
   <path d="m1227.9 68.03s.607 1.006 1.867 2.634c1.26 1.627 4.429 2.059 4.429 2.059h3.345c5.428-.048 7.25-4.788 7.25-4.788h-3.473s-.477 1.437-1.043 1.484h-7.555s-.739-.43-.911-.67c-.175-.239-.261-.718-.261-.718h-3.648z" style="fill:#ffffff"/>
   <line x1="1233.5" x2="1233.5" y1="66.451" y2="68.748" style="fill:none;stroke-width:2;stroke:#ffffff"/>
   <line x1="1239.4" x2="1239.4" y1="66.451" y2="68.748" style="fill:#ffffff;stroke-width:2;stroke:#ffffff"/>
   <line x1="1238" x2="1238" y1="66.881" y2="68.27" style="fill:#ffffff;stroke-width:2;stroke:#ffffff"/>
   <line x1="1236.5" x2="1236.5" y1="66.881" y2="68.27" style="fill:none;stroke-width:4;stroke:#ffffff"/>
   <line x1="1235" x2="1235" y1="66.881" y2="68.27" style="fill:#ffffff;stroke-width:2;stroke:#ffffff"/>
  </g>
 </g>
</svg>
