<?xml version="1.0" encoding="UTF-8"?>
<svg version="1.1" viewBox="0 0 19.709 14.721" xmlns="http://www.w3.org/2000/svg" xmlns:cc="http://creativecommons.org/ns#" xmlns:dc="http://purl.org/dc/elements/1.1/" xmlns:rdf="http://www.w3.org/1999/02/22-rdf-syntax-ns#">
 <metadata>
  <rdf:RDF>
   <cc:Work rdf:about="">
    <dc:format>image/svg+xml</dc:format>
    <dc:type rdf:resource="http://purl.org/dc/dcmitype/StillImage"/>
    <dc:title/>
   </cc:Work>
  </rdf:RDF>
 </metadata>
 <g transform="translate(-201.81 67.926)">
  <g transform="matrix(.26458 0 0 .26458 -87.34 -76.121)">
   <path d="m1094.6 49.507c1.177-.77 3.587-1.419 5.014-1.356.598.026 1.221.121 1.752.377.573.28 1.068.996 1.749 1.145-.068.26.088.638.033.892.93.324 2.731.896 3.337 1.584.783.885 1.488 3.567 1.787 4.806.484 2.013 2.962 4.814 5.548 4.062.499-.145 1.433-1.486 2.156-1.944 1.163-.732 2.448-1 3.55-1.853 1.071-.83 1.936-1.878 2.945-2.736.643-.544 1.712-.809 1.438-1.844-.221.002-.541-.087-.752-.05 1.027-.321 1.234-1.812-.126-1.614-.01-.747 1.101-1.141 1.621-1.465-.489-.884-.799-1.765-.828-1.661 1.122-.219 1.751-1.209 2.587-1.858-.146-.1-.34-.429-.526-.539.473-.274.998-.536 1.415-.924-.189-.019-.423-.054-.619-.05-.013-.076-.026-.15-.037-.225-.111-.014-.244.009-.348-.011.778-.548 1.978-1.483 1.702-2.562-.468-.104-.495-.318-.813-.701.716-.638 2.025-.442 2.891-.802.468-.194.816-.542 1.302-.707-.254-1.39.74-1.084 1.24-1.871.659-1.034-.441-.649-.804-1.731 1.605-.112 3.29.521 4.863.243.777-.137 1.374-.609 2.146-.841-.198-.462-.658-.922-1.062-1.162 1.473-.096 2.462.01 3.763-.592-.062-.292.11-.709.043-1.007 1.977-.257 4.119 1.237 5.818 2.134.973.513 2.846.754 3.638 1.33.587.429.787 1.329 1.498 1.918 2.256 1.869 5.483 2.305 6.851 4.979 1.139 2.231-.879 3.255-.591 5.395 1.396.681 3.198-.025 4.686.431 1.741.534 2.287 2.714 2.032 4.466-.228 1.569-.639 2.183-2.175 2.297-1.742.13-3.621.068-5.251-.25-.469.714-2.009 1.285-1.65 2.42.146.469 2.291 1.711 2.741 1.984 1.663 1.005 2.917.37 4.743.582 1.884.217 2.192 1.508 1.858 3.247-.591 3.083-4.958 3.945-7.692 3.28-2.042-.495-4.023-1.323-6.111-1.696-1.877-.336-2.855.555-4.593.723-2.296.219-4.398-1.247-6.359-1.498-1.389-.179-3.595 0-4.539.945-1.346 1.347-.65 4.389-3.54 4.978 1.593.154 2.512 1.848 2.462 3.137-.063 1.757-1.431 3.288-3.176 3.792-2.489.72-4.747-.011-7.321.015-.382.001-2.067-.242-2.424-.346-.797-.233-2.406-1.285-3.115-.963-1.22.554-3.556 2.091-3.812 2.623-.631 1.319.155 1.347.573 2.602.836 2.507-2.102 4.234-4.177 4.062-1.728-.145-3.075-1.953-3.316-3.441-.269-1.685-.424-3.64-.122-5.021.385-1.778.953-3.214 1.803-4.812.992-1.867.841-3.619.733-5.709-1.116.04-2.078-.32-2.942-.811-1.074-.608-1.912-1.645-2.537-2.68-1.129-1.872-1.147-4.481-2.531-6.243-1.738-2.213-4.377-1.511-6.394-2.951-.845-.601-3.628-3.669-1.357-4.33" style="fill:none;stroke-width:3;stroke:#373b93"/>
   <path d="m1096.1 50.521c1.226-.308 2.885-1.195 4.157-.826.541.159.643.059 1.087.352.135.09.604 1.182.643 1.251 0 .001.927.517 1.961 1.369 1.323 1.093 1.895 2.096 2.761 3.531.9 1.495 1.1 3.367 2.466 4.507 1.452 1.21 2.882 2.225 4.786 1.621 1.252-1.083 2.12-1.956 3.078-2.335 1.149-.453 2.134-.712 2.919-1.51 3.167-3.224 5.671-4.137 7.018-5.995-.269.054-.652-.083-.926-.049.068-.81.981-1.563-.293-1.754.719-.487.889-1.271.728-2.09-.347-.266-.097-.134-.269-.488.941-.319 1.051-1.371 2.054-1.517.043.046.015-.458.01-.436-.121-.022-.318.026-.416-.014.728-.415 1.403-.904 2.196-1.175.111-.84-.746-.804-1.286-1.269.549-.564.748-1.303.689-2.086 1.467.275 2.435-1.277 3.688-1.677-.093-.133-.15-.441-.319-.621.831-.618 2.207-.812 2.926-1.587-.188-.059-.418-.056-.611-.061 0-.001-.043-.476 0-.443 2.244.532 4.118.294 5.974-.795-.235.003-.508-.026-.755-.028.314-.058.594-.275.899-.363-.017-.029 0-.527.01-.596-.156-.031-.303-.001-.454-.056.36-.148 1.478-.89 1.928-.952 1.477-.2 3.204 1.003 4.584 1.474.935.319 1.896.562 2.58 1.13.655.544 1.113 1.785 1.911 2.407 2.156 1.679 5.207 2.054 6.223 4.855.315.877-.848 1.59-2.761 2.344-.084.268-.082.816 0 1.085.528.095 1.021.276 1.575.215.143.691-.142 1.37-.451 1.895 1.769-.014 3.669.274 5.509.353 1.146.049 1.328-.343 1.784.812.209.532.099 2.141-.166 2.589-.852 1.453-3.687.288-5.353.658-1.481.329-2.823 1.942-3.719 3.211 1.13.675.762.618 1.652 1.484.539.527 1.789 1.252 2.426 1.803 1.629 1.413 1.719.531 3.691.313 1.317-.146 2.546.772 2.279 2.281-.196 1.123-1.97 2-3.069 2.279-1.433.364-2.263-.042-3.435-.522-1.38-.563-2.75-.843-4.236-1.109-1.421-.252-2.938-.504-4.362-.486-.923.01-1.117.433-2.055.583-2.215.351-2.394.113-3.958-.779-1.894-1.082-4.059-1.184-5.685-.25-1.158.664-2.195.521-3.579 1.38.03 1.103.267 1.273-.309 2.998-.391 1.171-3.837 2.872-5.003 3.24-1.537 1.941 3.688 1.251 4.657 1.295.11 2.195 1.294 4.563-9.554 3.548-2.774-.261-3.183-.635-2.072-2.538.966-1.658 2.231-2.908-.663-2.306.195 1.941-1.354 2.548-2.632 3.701-.648.586-1.26 1.116-1.939 1.621-.957.709-2.617 1.276-3.23 2.087.092.024-.257 1.544-.163 1.563.948.472 1.542 1.093 1.616 2.205.135 2.061-2.646 2.63-4.107 1.472-1.991-1.577-.375-7.024.202-9.077.778-2.761 3.488-6.875.454-9.241-1.536-1.199-3.179-1.662-4.241-3.414-.729-1.206-1.625-2.757-1.938-4.134-.542-2.389-2.334-3.891-3.45-4.364-1.084-.461-1.935.295-3.281-.438-.239-.25-1.046-.866-1.284-1.117-.325-.338-.797-.653-1.085-1.014z" style="fill:#373b93"/>
   <path d="m1151.8 49.507c-1.582.929 2.064 2.61 1.465.293-.404-.365-1.003-.573-1.578-.404-.016.264-.16.197-.293.381" style="fill:#ffffff"/>
  </g>
 </g>
</svg>
