<?xml version="1.0" encoding="UTF-8"?>
<svg version="1.1" viewBox="0 0 25.521 13.961" xmlns="http://www.w3.org/2000/svg" xmlns:cc="http://creativecommons.org/ns#" xmlns:dc="http://purl.org/dc/elements/1.1/" xmlns:rdf="http://www.w3.org/1999/02/22-rdf-syntax-ns#">
 <metadata>
  <rdf:RDF>
   <cc:Work rdf:about="">
    <dc:format>image/svg+xml</dc:format>
    <dc:type rdf:resource="http://purl.org/dc/dcmitype/StillImage"/>
    <dc:title/>
   </cc:Work>
  </rdf:RDF>
 </metadata>
 <g transform="translate(231.23 -38.287)">
  <g transform="matrix(.26458 0 0 .26458 -517.92 -64.82)">
   <path d="m1107.7 412.79c-4.668 3.503-17.228 14.818-17.228 14.818s23.45-5.161 41.923 4.207c17.467 8.855 22.544 8.011 26.983 8.414l-1.596-8.271s3.045-.141 3.479-.724c.438-.584-.145-7.834-.145-7.834s8.973-16.132 9.119-17.59c.145-1.458-.588-5.321-.588-5.321s2.203-5.372 2.203-6.247-3.808-.609-3.808-.609-6.927-2.65-22.318-1.751c-11.852.693-19.035 3.211-19.035 3.211s-7.404-.913-7.985.946c-.443 1.402 3.682 6.056 3.682 6.056s-10.018 7.194-14.686 10.695z" style="stroke-width:4;stroke:#ffffff"/>
   <path d="m1170.4 402.36s5.01.271 5.428.689c.42.419 3.984 3.527 4.054 4.225.068.698.443 1.424-.951 1.634-1.396.21-5.127-.21-7.153 0-2.022.21-2.854.948-2.854.948" style="fill:#ffffff"/>
   <polygon points="1167.9 404.56 1168 404.14 1165.3 404.84" style="fill:#d7dade"/>
   <polygon points="1167.3 407.35 1167.6 406.74 1164.9 407.31" style="fill:#d7dade"/>
   <polygon points="1167.9 405.88 1167.9 405.13 1165.1 405.99" style="fill:#d7dade"/>
   <path d="m1121 397.02c0-.879 6.98-.14 6.98-.14s9.214-2.707 19.265-3.208c13.26-.664 19.541 2.091 19.541 2.091s3.016-.863 2.932-.139c-.086.75-1.954 3.909-1.954 3.909s.545 3.908.418 5.165c-.221 2.225-8.653 18.147-8.653 18.147s.378 6.755 0 7.257c-.377.505-3.63.839-3.63.839l.978 6.979c-10.709-.96-21.775-7.258-33.083-10.609-11.306-3.352-26.383-2.513-26.383-2.513 9.632-10.469 27.919-22.055 27.919-22.055s-4.33-4.844-4.33-5.723" style="fill:none;stroke-width:4;stroke:#00b4e2"/>
   <path d="m1098.8 424.1c1.22-.104 9.353.245 9.353.245l-.07 1.15s-11.694.15-15.008 1.116l8.691-7.257 5.583-4.434" style="fill:#00b4e2"/>
   <path d="m1123 399.95s3.352 2.047 4.562 2.511c0 0-.232 3.491 1.303 7.539l2.513 5.212-2.885-4.467c-2.141-3.49-1.861-6.979-1.861-6.979l-1.211-.56z" style="fill:#00b4e2;stroke:#00b4e2"/>
   <path d="m1160.8 416.15c.374.188.744-6.792.744-6.792s-3.312-2.971-8.559-1.397c-2.794.837-4.003 2.512-4.003 2.512s.745 5.119 1.023 5.119 1.304-5.119 1.304-5.119l.837.096.185-.839s1.49-1.396 3.443-1.302c1.677.078 2.794.931 2.794.931l.464.65.561-.466s.837 6.422 1.207 6.607z" style="fill:#d7dade"/>
   <path d="m1152.2 402.02c-.127.581 1.407 1.128 2.244 2.013.604.637 1.013 1.396 1.57 1.059.339-.206 2.514-2.84 2.701-3.35.185-.513-1.397-.325-1.771-.325-.37 0-4.677.298-4.744.603z" style="fill:#d7dade"/>
   <path d="m1157.7 424.66-.14 2.093s-1.954 1.046-6.072.839c-1.302-.068-2.722-.63-2.722-.63l-.209-2.163 1.535 1.813 6.718-.264.68-1.133z" style="fill:#d7dade"/>
   <path d="m1106.8 424.59s4.467-4.258 6.072-5.795c1.441-1.38 2.636-2.513 2.636-2.513s-3.543 3.422-5.147 6.423l-1.048 2.023z" style="fill:#00b4e2;stroke:#00b4e2"/>
   <polyline points="1135 431.03 1136.6 428.72 1135.9 431.72" style="fill:#00b4e2;stroke:#00b4e2"/>
   <path d="m1146.2 398.9s-5.166-2.043-6.423-2.094c-1.744-.069-2.93 1.187-3.35 1.466-.42.281 2.443-.768 3.35-.698.909.071 2.653.837 2.653.837s-1.048.629-1.188.909c-.139.278.07.697.49.977.418.279 2.651.279 2.651.279l3.77-.419 1.187-.209z" style="fill:#d7dade"/>
   <path d="m1160.4 398.64c.42-.139.11-2.374-.209-2.232l-2.374 1.257-2.442 1.464c-.001-.001 4.607-.349 5.025-.489z" style="fill:#d7dade"/>
   <path d="m1145.8 404.27c-.502-.121-3.612-1.268-9.746-.702-5.323.489-9.607 2.598-9.607 2.598s5.925-1.797 9.414-2.041c3.94-.276 5.717-.159 7.691.262 1.663.357 1.655.354 2.003.401.345.048.934-.351.245-.518z" style="fill:#d7dade"/>
   <path d="m1143 405.41c-.514-.05-3.79-.918-9.751.637-4.955 1.294-6.427 2.327-6.427 2.327s3.016-1.085 6.438-1.804c3.865-.812 5.515-.884 7.529-.734 1.698.125 1.688.122 2.036.122.351.003.878-.476.175-.548z" style="fill:#d7dade"/>
   <path d="m1143.2 407c-.518-.024-3.836-.707-9.703 1.174-4.876 1.565-6.289 2.68-6.289 2.68s2.951-1.251 6.329-2.158c3.814-1.024 5.459-1.187 7.479-1.148 1.7.03 1.689.027 2.038.01.349-.021.852-.526.146-.558z" style="fill:#d7dade"/>
   <path d="m1169 404.1s1.72-.032 4.096.037c2.216.065 1.493.38 1.493.38s-1.852-.071-2.565-.046c-1.701.061-2.81.296-2.81.296z"/>
   <path d="m1169.2 405.15s1.3-.134 3.678-.068c2.512.068 3.988.229 4.582.674.558.42-1.582-.232-5.071-.162-1.611.03-3.374.231-3.374.231z"/>
   <path d="m1168.7 406.8s.835-.177 3.211-.165c4.583.024 5.839.5 6.818.938.976.437-3.234-.489-6.445-.332-1.608.079-4.027.245-4.027.245z"/>
   <polygon points="1124 398.36 1125.3 399.3 1125.2 399.47 1124 398.48" style="fill:#d7dade"/>
  </g>
 </g>
</svg>
