<?xml version="1.0" encoding="UTF-8"?>
<svg version="1.1" viewBox="0 0 24.977 11.698" xmlns="http://www.w3.org/2000/svg" xmlns:cc="http://creativecommons.org/ns#" xmlns:dc="http://purl.org/dc/elements/1.1/" xmlns:rdf="http://www.w3.org/1999/02/22-rdf-syntax-ns#">
 <metadata>
  <rdf:RDF>
   <cc:Work rdf:about="">
    <dc:format>image/svg+xml</dc:format>
    <dc:type rdf:resource="http://purl.org/dc/dcmitype/StillImage"/>
    <dc:title/>
   </cc:Work>
  </rdf:RDF>
 </metadata>
 <g transform="translate(37.435 107.24)">
  <g transform="matrix(.26458 0 0 .26458 -349.85 -135.96)">
   <path d="m1227.6 121.91c-16.044 3.164-23.234.908-24.712.881 16.05-2.136 20.191-4.146 24.084-5.024z" style="fill:#d0392b"/>
   <path d="m1225.5 109.48c-22.973 4.519-25.609 8.034-44.689 9.813 18.076 2.865 27.867-3.789 45.568-4.667z" style="fill:#d0392b"/>
   <path d="m1227 109.48c.128.628.624 3.436 1.004 5.146 2.818.096 7.056.113 9.393 1.95-3.225-.081-5.943.888-9.016 1.063.108.551.369 2.627.503 4.143 7.405-.879 10.095.575 13.265 2.804-1.987.098-7.993-.419-19.787 2.432 17.067 4.053 27.485 13.594 35.52 25.645.443.666 3.039-2.147 3.306-2.917.361-1.042-.219-1.753-.445-2.702-.273-1.145.121-1.285.659-2.355.461-.911.463-1.492.52-2.494.529-.086 2.016-.38 2.341-.8.706-.921-.646-2.95-.741-3.882-.328-3.215.5-3.577 3.47-4.35.835-.218 1.594-.521 1.95-1.408.243-.614 5.562-14.619 6.265-16.877-3.153 1.434-8.024.064-11.137-1.164-4.231-1.67-8.752-3.828-13.316-4.518-10.574-1.599-23.754.284-23.754.284z" style="fill:#244a9a"/>
   <path d="m1257.6 118.44c.52.09 3.949 1.805 4.162 1.585.861-.899 1.776-2.186 2.827-2.816.424 1.183.407 2.673.561 3.945 1.224.518 2.842.858 3.819 1.75-.301.142-3.569.826-3.565.887.118 1.763-.202 3.534.181 5.261-.371-.456-2.949-4.35-3.321-4.258-1.607.403-3.515 1.504-5.2 1.171.135-.536 2.87-3.649 2.69-3.933-.687-1.091-1.847-2.346-2.154-3.592z" style="fill:#cfd2d8"/>
   <path d="m1247.7 133.08c1.338-1.161 2.186-1.985 4.092-2.162 2.148-.199 3.843-.152 5.677.678.013.156 0 .304 0 .458-1.179.303-2.37.109-3.377.9-1.665 1.311-.731 1.832 1.288 1.883 1.234.032 2.455.159 3.446-.405 1.045-.594 1.827-1.997 3.162-1.836.148 2.342.709 4.752 1.212 7.827-1.187.072-3.051-.357-4.188-.044.071.862 2.188 1.01 1.802 2.492-.439.063-3.574-.074-4.188 1.609.674-.085 4-.417 3.911-.139-.241.752-1.417 1.982-1.856 1.292.603.078 1.368 1.585 1.444 2.197.141 1.163-.127 1.694-1.005 2.572-1.281.72-4.644-4.361-5.519-5.487-1.801-2.326-4.601-5.137-6.848-6.876-.683-.53-1.273-1.254.063-1.447 4.33-.625 6.768 4.38 6.907 4.154.123-.196.579-2.197-.499-3.366-1.763-1.915-5.527-4.3-5.527-4.3z" style="fill:#cfd2d8"/>
  </g>
 </g>
</svg>
