<?xml version="1.0" encoding="UTF-8"?>
<svg width="190.03" height="134.99" version="1.1" viewBox="0 0 190.04 134.99" xml:space="preserve" xmlns="http://www.w3.org/2000/svg" xmlns:cc="http://creativecommons.org/ns#" xmlns:dc="http://purl.org/dc/elements/1.1/" xmlns:rdf="http://www.w3.org/1999/02/22-rdf-syntax-ns#"><metadata><rdf:RDF><cc:Work rdf:about=""><dc:format>image/svg+xml</dc:format><dc:type rdf:resource="http://purl.org/dc/dcmitype/StillImage"/><dc:title/></cc:Work></rdf:RDF></metadata><g transform="matrix(1.25 0 0 -1.25 -286.2 561.4)"><g><path d="m378.93 421.62c-2.2137 6.488-7.2723 15.642-18.648 22.352-5.6872 3.3564-13.125 5.1482-20.774 5.1496-1.9945 0-4.0056-.12129-5.9987-.37492-11.199-1.406-20.895-6.7086-27.241-14.962-.42178-.54997-.82013-1.1234-1.2033-1.705-35.267-5.559-63.065-28.429-64.297-29.441l-11.804-9.7989 15.292-1.2281c22.805-1.8388 38.919-9.8113 48.418-16.162 10.405-6.9567 15.396-13.558 15.406-13.569l1.9435-2.6479 2.0249-2.7636 5.1179 4.3915c.54998.4714 1.0627.99105 1.5397 1.5466l.4204-.34875c.62442-.5031 1.0765-.87802 1.6582-1.5231.0841-.22605.13096-.47003.1337-.75948-.0193-1.1234-.0772-1.1206-.38317-1.876l-.153-.35563c-.16955-.41352-.43557-.94557-.65335-1.3729-.11028-.21228-.20677-.39835-.27708-.53343-.0372-.0648-.0648-.11992-.0841-.15575h.003l-1.5438-2.8146 20.538-11.541.36802.10337c.0165.001 1.6168.4466 1.9752.55135.32393.0772 3.5907.918 3.6058.92215 4.4136 1.1013 7.2254 1.814 9.0311 2.6658l1.6899.8229.97175 1.6086c.26465.4466 5.7354 9.6818 8.5073 22.618.99383.90145 3.4349 3.1234 3.4349 3.1234l.2605.23848.1158 1.2254.1144 1.184c.10062 1.0958.14888 2.1999.14888 3.2998 0 1.7822-.1351 3.6252-.3887 5.4901 6.222 3.6596 9.0008 8.852 10.662 12.968 1.428 3.5176 2.131 7.4446 2.131 11.508 0 4.0097-.68645 8.1531-2.062 12.164" style="fill:#ffffff"/><path d="m362.75 439.62c-1.1468.83667-2.3377 1.6499-3.621 2.4066l.003.001h-.003c-1.2502.73608-2.6134 1.3963-4.0635 1.9794-1.7767.7126-3.694 1.2929-5.7024 1.7492-3.1096.70573-6.4398 1.1013-9.8733 1.1041-11.213 0-23.459-4.0841-31.437-14.456-.204-.26327-.3749-.54997-.56787-.82012-.36665-.51278-.74158-1.0186-1.0752-1.5534-.35563-.0689-.62993-.11853-.7967-.14472-3.2571-.50863-6.4494-1.1689-9.5632-1.9463-30.097-7.5217-52.744-26.134-53.846-27.037l-7.5328-6.2565h.001l4.8795-.3942 4.8808-.39422c45.161-3.6279 65.331-30.473 65.444-30.623l1.4694-1.9959 1.0779-1.468 3.2654 2.805c.0551.0469.10062.0979.15437.14472 1.0434.9304 1.8567 1.967 2.4811 3.0104l.001.001c.38732-.34735.81325-.7264 1.2819-1.1385 1.0269-.89042 1.7299-1.3453 2.6424-2.317.15299-.16402.31152-.34047.48104-.54032.23296-.45763.33495-.94833.38733-1.4446.0193-.1723.0538-.34183.0552-.51413v-.002c0-.0248-.001-.0455-.003-.0717-.01-.60925-.0496-1.0393-.1144-1.3839-.11716-.5996-.31703-.9635-.5982-1.6527-.39423-.94695-1.1482-2.3267-1.1482-2.3295l-.43694-.79393 17.78-9.9891 1.4942.41215 1.7988.46037 1.7988.46175c4.171 1.0448 6.9952 1.7492 8.619 2.5224l.83527.40112.24675.1199.61888 1.0296c.0165.029.0538.0924.1089.18885.65887 1.1413 3.898 6.9567 6.448 15.289.68093 2.2233 1.3136 4.6217 1.8332 7.1634.17505.1599.3887.35563.61475.55963.52378.4783 1.1262 1.0269 1.6403 1.4942.5996.5431 1.0669.96762 1.0669.96762l.2605.24123.15437 1.5328c.0455.5238.0441 1.031.0662 1.5452.022.51413.0661 1.0365.0661 1.5452 0 1.8112-.14197 3.5866-.38042 5.2916-.0662.47693-.13785.9497-.21778 1.4142 6.415 3.242 9.2641 8.1944 11.037 12.6.1461.36112.25637.74845.38732 1.1206 1.0117 2.8974 1.5714 6.1338 1.5714 9.5618.001 4.0221-.75123 8.291-2.3336 12.49-2.4273 6.4356-6.8506 12.693-13.638 17.653" style="fill:#002244"/><path d="m358.2 440.44-.001.004c-4.7871 2.8298-11.543 4.5804-18.706 4.5748-9.4446 0-19.544-3.0049-26.971-10.328-1.06-1.0462-2.0676-2.1806-3.009-3.4074-.43142-.56237-.83529-1.1523-1.224-1.7519-.17367-.2674-.3501-.53068-.51412-.80358l-.20952-.34322-.19848-.0414-.19988-.04c-.17505-.0344-.31012-.0607-.45762-.0882-.3308-.0648-.61888-.11715-.80635-.14748-13.532-2.102-25.981-6.8878-36.159-11.955-15.493-7.712-25.707-16.077-26.357-16.625l-4.0648-3.3729 5.2571-.42315c30.071-2.4218 49.28-14.966 59.033-23.441.0152-.0124.0317-.0248.0455-.0386.5486-.47692 1.0558-.93455 1.5452-1.3825 4.0566-3.7258 6.069-6.3832 6.1572-6.506l1.3715-1.8663 1.7616 1.5093c1.2585 1.0834 2.131 2.3653 2.7568 3.6348l.26878.54582.26877.5486.90835-.8215c.6065-.5555 1.2984-1.1648 2.1296-1.8966 1.0627-.93592 2.0331-1.5286 3.3839-3.1317l.0607-.0745.0441-.0786c.12957-.24123.23985-.48658.32944-.7333.26878-.73745.37078-1.4873.37078-2.1834v-.001c.0179-1.712-.34185-2.6341-.7016-3.4639-.051-.11717-.102-.23432-.15437-.3515-.23433-.56512-.55411-1.2033-.80635-1.7009l15.545-8.7279.7774.21365 3.6237.92903c3.6307.89732 6.2689 1.5865 7.7217 2.1613.20677.0813.3901.16127.5486.23982l.58583.2757.33632.55548c.0537.0896.4783.81325 1.111 2.04.69608 1.3453 1.6444 3.3109 2.6589 5.7699 1.5838 3.8291 3.315 8.8382 4.4536 14.542l.0579.29498.22327.20262c.17368.15853.41353.37905.6823.6244.86838.79395 2.0758 1.8898 2.6052 2.368l.0772.8229c.0869.9814.13233 1.9546.13233 2.918 0 .11992-.008.23707-.01.357-.0248 2.3102-.28254 4.5762-.69054 6.6962l-.12958.7002.64233.30325c3.927 1.865 6.4246 4.3184 8.1834 6.9539.0193.0262.0372.0538.0565.0799.062.0937.11714.18882.1778.28255.96625 1.5135 1.705 3.0779 2.3364 4.6231 1.1 2.7085 1.712 5.8705 1.7933 9.2365.006.255.0317.49897.0317.75535v.001c-.004 10.62-5.4198 23.132-18.684 30.961" style="fill:#ffffff"/><path d="m361.89 435.51c-3.3839 2.7058-7.0724 4.4921-10.673 5.6348-.0138.004-.029.0111-.0441.0152-.0965.0303-.19297.0551-.28947.0841-9.73 2.9911-18.666 1.4487-18.747 1.4349.004 0 .0179 0 .0524.003.0386.003.0951.008.1709.0152 1.479.11715 10.058.61613 18.649-2.9332 1.6499-.68092 3.3398-1.5976 4.9994-2.6989 4.2647-2.8367 8.2923-6.9898 10.818-12.083.98003-1.9807 1.7464-4.0952 2.193-6.3364.0979-.48795.17368-.96213.24813-1.4349.29635-1.8884.4259-3.6624.4259-5.2985v-.004l-.003-.50862c-.0979-6.2785-1.989-10.5-2.6244-11.824-.19573-.40937-.4659-.86425-.7719-1.3315-1.0269-1.5686-2.5293-3.304-3.6306-4.1048-.29498-.21503-.58305-.39835-.86423-.55548-.57342-.32117-1.1138-.52102-1.5976-.62027-.003-.003-.007-.004-.011-.004-.24123-.0496-.46866-.0717-.67955-.0717-.16266 0-.31428.0138-.45626.0413h-.004c-.14472.0248-.2812.0676-.40663.11993-.79532.3694-1.0668 1.3232-2.8946 3.887-.47968.6754-1.0062 1.3343-1.4707 1.8912-.71125.85045-1.2722 1.4528-1.2722 1.4528.15162.13785.28673.2743.42593.41903h.001c.01.0124.0221.0221.0331.0345l.0372.0358c.0165.0152.029.0317.0427.0482.0303.0303.0607.0634.091.0937.16817.1792.32255.3832.47555.5927.1792.2426.3377.51138.49344.78293.23296.41075.44798.84217.62718 1.3164.008.0331.0248.0606.0289.091.0482.1268.0855.2605.12818.39145.0427.12958.091.25775.1282.39285 1.3301 4.7375.1406 11.788-4.9098 17.028-.58027.60097-1.1978 1.184-1.8828 1.7312-1.7671 1.4142-3.5673 2.5045-5.3729 3.3054-5.417 2.4011-10.868 2.1999-15.507.34182-10.407-4.1765-16.703-16.703-9.2682-26.943 3.5976-4.9663 9.4557-5.2847 13.093-2.4976 3.4115 2.6134 5.6968 10.609-2.6906 14.891 6.3185.5348 13.9-6.4935 11.507-15.922-.15987-.62855-.36388-1.2667-.61475-1.916-.29635-.75535-.64095-1.468-1.031-2.1254-.18885-.37767-.39697-.75672-.6189-1.1358-.18332-.31425-.37492-.62715-.58167-.94142-6.783-10.21-26.958-9.5673-34.328 6.7513-4.1779 9.2517-3.162 16.761-1.4239 21.62.7898 2.2095 1.7299 3.8705 2.3984 4.9001.26053.72365.55135 1.4404.85873 2.1448-30.735-6.6438-50.631-25.23-50.656-25.253 28.222-5.8595 44.64-19.042 52.592-27.413 4.1558-4.3764 5.9987-7.4336 6.0056-7.4474 1.5948 1.3687 2.4576 3.2088 2.9456 4.7237-2.4232 3.9656-2.0138 7.7313-1.7754 9.0036.0551.29357.10063.45485.10063.45485.65195-3.2874 1.8539-5.7037 3.0531-7.4281.3184-.45072 1.3632-1.5259 2.2164-2.368.51138-.50725.95523-.92902 1.1289-1.0834.13783-.0896.21778-.13095.21778-.13095l.007-.0648c2.1558-1.9132 4.7168-4.0607 5.1703-4.8794.72227-1.2998.98552-2.6548 1.0021-3.9036.007-.50035-.0234-.98278-.0813-1.4376-.25638-2.0455-1.0172-3.5383-1.0214-3.5452l13.017-7.1276c2.9015.81875 9.6955 2.3019 11.57 3.1992 0 0 .204.33907.5486.97725.37218.68645.91525 1.734 1.5424 3.0614 1.8966 4.0083 4.6121 10.687 6.0745 18.63l.001.001 3.4101 3.1014c.0441.45487.0731.90972.0924 1.3646v.011c.006.15163.008.30463.011.4535.0138.2867.0165.5789.0165.867v.0165c0 .19022-.003.37767-.004.5679-.006.24947-.0152.4976-.0276.74707-.01.2109-.0152.42868-.029.63543-.008.18747-.029.37217-.0413.55687-.0772.98278-.19297 1.9504-.33907 2.8891-.008.04-.0152.0717-.0152.11165-.0579.35837-.12127.714-.18882 1.0655-.13645.71812-.2798 1.4252-.44385 2.1089v.002c.27982.0675.55962.14472.84082.24257.67955.22883 1.3591.5293 2.0386.9056 2.4411 1.355 4.816 3.6692 6.6617 6.7389 3.7188 6.1889 5.275 15.46.816 26.226-2.4439 5.9064-5.8816 10.153-9.7148 13.219" style="fill:#002244"/><path transform="matrix(.8 0 0 -.8 228.25 449.93)" d="m150.29 63.754v.006c.01.012 6.42 8.032 8.06 18.615.35 2.254.49 4.616.3 7.049l-1.7 1.578-.88.816c.03 2.445-.05 6.335-1.1 10.952-.57 2.48-1.4 5.16-2.68 7.97-1.37-2.48-3.34-4.65-5.46-6.45-2.34-2-4.87-3.54-6.96-4.542-1.23-.584-2.31-.985-3.12-1.178-1.33.755-3.58 2.01-5.83 3.57-1.71 1.17-3.41 2.51-4.71 3.95.26.36.58 1.03.85 1.7.26.66.48 1.31.53 1.63.18.98.28 1.89.31 2.74.11 2.43-.29 4.33-.73 5.81.01 0 2.26 1.26 3.93 2.16 1 .55 1.79.97 1.76.91.13-.46.21-.87.29-1.29.54-2.69.13-4.62-.62-6.25-.52-1.14-1.19-2.14-1.79-3.19.34-.21.79-.47 1.29-.76 1.77-1.02 4.26-2.37 5.58-2.92 1.7 2.36 2.58 6.24.75 11.78-.41 1.24-.97 2.51-1.42 3.55-.15.35-.3.67-.41.97 0 0 .03.03.07.05.34.23 2.17 1.2 2.15 1.13h.01c1.51-.3 2.94-.99 4.13-1.96 1.1-.91 1.98-2.06 2.48-3.41.31-.84.18-1.48.07-2.13-.14.18-.32.42-.51.65s-.41.46-.64.62c-.75-1.74-.76-3.11.19-4.15.49-.54 1.03-.73 1.69-.76.27-.01.51.04.75.12.61.21 1.08.68 1.3 1.22.2.5.3.99.34 1.48.23 3.04-2.25 5.81-2.25 5.81s3.22-.14 4.14-.6c.55-1.11 1.44-2.97 2.46-5.33 2.49-5.76 5.77-14.6 6.95-23.52l2.96-2.654c.02-.966-.01-1.913-.08-2.838-1.11-13.865-12.45-22.904-12.45-22.904zm.25 17.885v.002c0 .001.03.556 0 1.306-.03.61-.1 1.347-.28 2.039-1.54.82-2.6 2.449-2.6 4.328 0 2.7 2.19 4.887 4.89 4.887 0 0 .18-.42.37-1.14h-.01c-.56 0-1.08-.163-1.53-.426-.91-.529-1.52-1.498-1.52-2.623 0-1.124.61-2.09 1.52-2.619.45-.264.97-.426 1.53-.426 0 0 .01.001.01.002.05 0 .1.006.15.011-.18-.844-.46-1.729-.87-2.628-.41-.896-.95-1.807-1.66-2.713zm2.86 8.666s-.03.025-.07.064c-.09.081-.27.229-.51.352-.25.12-.57.214-.94.179-.24-.022-.51-.102-.79-.269.4.97 1.45 1.201 2.06.951.04-.079.07-.157.1-.236.2-.56.15-1.041.15-1.041zm-37.49 11.145.01.08zm20.2 9.17s-1.89.14-2.03.8c1.26 1.14 1.13 4.34 1.14 6.57 0 .32.01.61.02.88.12-.45 2.21-3.5.87-8.25z" style="fill:#ffffff"/></g></g></svg>
