<?xml version="1.0" encoding="UTF-8"?>
<svg version="1.1" viewBox="0 0 23.673 11.281" xmlns="http://www.w3.org/2000/svg" xmlns:cc="http://creativecommons.org/ns#" xmlns:dc="http://purl.org/dc/elements/1.1/" xmlns:rdf="http://www.w3.org/1999/02/22-rdf-syntax-ns#">
 <metadata>
  <rdf:RDF>
   <cc:Work rdf:about="">
    <dc:format>image/svg+xml</dc:format>
    <dc:type rdf:resource="http://purl.org/dc/dcmitype/StillImage"/>
    <dc:title/>
   </cc:Work>
  </rdf:RDF>
 </metadata>
 <g transform="translate(110.11 -230.13)">
  <g transform="matrix(.26458 0 0 .26458 -270.93 125.71)">
   <path d="m678.9 426.56c5.096.568 8.563.368 14.785-.777l2.71 1.419c2.838-7.145-1.262-11.379-9.742-15.205l1.734-.62c-1.734-.63-4.002-1.418-5.8-1.859l.147-.683c-2.68-.295-5.213-.315-7.219-.399l-.23-4.099-1.271 1.976c-.947-2.195-2.375-3.697-3.552-5.736l-.221 1.88c-21.667-17.117-51.74-3.101-62.426 13.504 11.968-4.319 26.888-9.91 14.091 7.228 9.446-2.541 16.013-5.378 9.76 3.752 4.353-1.481 23.833-8.374 17.665 2.196 1.05-.062 2.186-.188 3.215-.43-.252 4.486.463 4.707 2.744 8.583 1.47-5.758 3.667-8.826 6.577-9.194l-.168 1.924c2.795-.715 4.813-1.577 7.061-3.583 3.394-.434 6.756-.182 10.14.123z" style="fill:#b9a759"/>
   <path d="m695.61 425.37c1.651-7.816-6.418-11.684-12.314-13.406.569-.264 1.22-.337 1.776-.601-1.627-.608-3.267-.965-4.896-1.092.43-.294.314-.421.746-.714-2.207-.199-4.403-.433-6.609-.137.137-.735.168-1.733.305-2.47-.389.305-.693.872-1.082 1.177-.41-1.554-1.167-3.11-2.07-4.656-.084.643.01 1.389-.074 2.03-13.45-15.1-42.293-12.021-56.605 5.883 15.898-5.159 18.871-2.301 11.085 9.194 10.465-3.771 13.01-1.671 10.372 2.375 9.856-2.521 17.664-2.081 14.911 4.846 1.019-.064 1.922-.369 2.71-.915-.356 2.721.159 5.927 1.271 8.153.18-3.342 2.953-6.294 7.567-8.521.042.694.179 1.104.221 1.798 1.471-.357 3.277-1.346 5.232-3.164 2.794-.388 5.327-.358 8.837-.137 5.265.608 11.517.714 16.666-.367z"/>
   <path d="m694.87 423.78c-1.094-5.075-5.066-9.94-19.41-11.97.632.673 1.146 1.115 1.776 1.776-1.113-.073-2.216-.146-3.331-.221.894.747 1.881 1.378 2.764 2.122-8.123-2.889-14.343-3.573-18.725-2.122 6.377.431 9.521.978 10.97 1.996-10.435-1.344-16.172.453-20.721 2.659 9.761-2.122 13.05-1.85 15.74-1.324-.893.662-1.628 1.776.651 3.006 2.501 1.345 3.521 1.587 2.564 4.634.473-.736 1.072-1.577 1.544-2.323.558.485 1.116.967 1.672 1.44 3.057-.726 7.786-.221 12.314.347 3.417.431 6.903.021 9.751-.777-5.378-1.893-11.138-3.501-19.733-3.877-2.174-.399-4.823-1.188-3.888 1.208-4.287-2.658-4.287-3.73 0-3.437 13.935 1.295 23.045 3.512 26.062 6.863z" style="fill:#ffffff"/>
   <path d="m646.36 403.7.905.054c1.271.179 1.081 3.393-2.638 3.077z" style="fill:#94678a"/>
   <path d="m666.97 410.06c.115.011.221.021.336.021-.158-1.449-1.23-1.954-2.122-2.092-2.039-.324-3.856 3.615-.105 3.794.84.043 1.146-.157 1.239-.567-3.53-.22-.494-3.562.652-1.156z" style="fill:#e93c35"/>
   <path d="m664.91 411.31c-2.069-1.281-.514-3.099 1.283-2.426-2.164-1.377-4.068 1.89-1.283 2.426z" style="fill:#ffffff"/>
   <path d="m671.48 411.97c.746-15.468-33.909-20.353-50.217-4.729 8.039-1.07 16.056-2.017 9.363 10.804.714-.241 1.743-.306 2.459-.546 1.617-6.674 3.867-12.305 8.648-14.376-4.74.337-9.763 1.01-14.953 2.008 3.099-2.858 8.91-4.624 15.981-5.76 12.861-2.501 17.885 4.477 7.452 8.135 3.393 1.942 4.035 4.15 1.407 5.367-5.263 1.21-9.372 4.341-11.958 7.232 10.394-2.051 15.795-.4 14.491 4.517 1.305.115 2.48-.2 3.648-.768-.012.462-.169 1.094-.401 1.713-1.439 1.671-2.363 3.111-1.923 3.614.904-.756 1.881-1.48 2.87-2.174 2.301-1.389 4.402-2.891 5.937-4.404.252 1.305.431 2.629.104 3.942.915-.705 1.829-1.42 2.744-2.124 1.144-3.31-.442-3.635-2.837-4.916-1.649-.873-1.376-2.007-.452-2.775-5.138-.893-10.465.127-15.751 1.408 5.117-3.12 12.745-3.751 20.742-2.858-1.292-.883-6.42-1.891-10.96-1.912 1.672-.599 3.856-.62 5.948-.786-3.036-.716-6.83-1.063-9.877-.621 1.45-1.326 3.898-1.882 6.493-2.334-.346-1.061-2.406-1.47-5.779-1.523 2.607-1.839 5.959-1.902 9.426-1.723-1.545-1.03-3.026-1.882-4.855-2.333 1.807-.757 5.118-.726 9.647 3.205-.747-.03-.893.095-1.64.062.999.747 2.008 2.153 2.124 2.838.826 1.417 1.299 1.681 2.119 1.817z" style="fill:#94678a"/>
   <path d="m626.37 405.16c6.82-5.138 19.134-7.009 25.039-5.948 5.665 1.009 6.652 5.665-1.313 8.312 3.131 1.325 3.784 3.059 2.616 5.159-3.287.695-7.156 2.217-9.54 4.121l-10.066.735c1.776-7.798 4.864-12.937 8.669-14.481-4.771.389-10.771 1.145-15.405 2.102zm16.991 4.024-1.964 5.192 2.773-.063c3.163-.062 4.423-4.876 1.502-5.223zm3.351-6.147-2.08 3.793c4.98.399 5.967-3.634 3.604-3.805z" style="fill:#ffffff"/>
   <path d="m630.13 403.67c14.805-2.649 24.977-3.164 18.547 3.614 15.088-5.958.376-10.729-18.547-3.614z" style="fill:#b9a759"/>
   <path d="m645.05 403.58c-4.16-.062-7.565 3.445-10.759 13.028 3.341-.178 6.419-.356 9.771-.535 2.333-1.303 4.75-2.27 7.324-3.078.61-2.187 2.564-5.254-8.227-5.338.631-1.356 1.26-2.71 1.891-4.077zm-2.133 4.864c1.145-.02 2.353-.042 3.499-.062 3.047.42 3.006 6-2.448 6.787-1.282.189-2.564.264-3.857.073.863-2.729 1.765-4.999 2.806-6.798z" style="fill:#b9a759"/>
   <path d="m643.12 409.9-1.682 4.477 1.849-.042c2.216-.779 3.069-3.953 1.156-4.425z" style="fill:#94678a"/>
  </g>
 </g>
</svg>
