<?xml version="1.0" encoding="UTF-8" standalone="no"?>
<!-- Created with Inkscape (http://www.inkscape.org/) -->

<svg
   xmlns:dc="http://purl.org/dc/elements/1.1/"
   xmlns:cc="http://creativecommons.org/ns#"
   xmlns:rdf="http://www.w3.org/1999/02/22-rdf-syntax-ns#"
   xmlns:svg="http://www.w3.org/2000/svg"
   xmlns="http://www.w3.org/2000/svg"
   xmlns:sodipodi="http://sodipodi.sourceforge.net/DTD/sodipodi-0.dtd"
   xmlns:inkscape="http://www.inkscape.org/namespaces/inkscape"
   width="14.856354mm"
   height="17.530762mm"
   viewBox="0 0 14.856354 17.530762"
   version="1.1"
   id="svg26414"
   inkscape:version="0.92.3 (2405546, 2018-03-11)"
   sodipodi:docname="saints.svg">
  <defs
     id="defs26408" />
  <sodipodi:namedview
     id="base"
     pagecolor="#ffffff"
     bordercolor="#666666"
     borderopacity="1.0"
     inkscape:pageopacity="0.0"
     inkscape:pageshadow="2"
     inkscape:zoom="0.35"
     inkscape:cx="478.07501"
     inkscape:cy="44.557572"
     inkscape:document-units="mm"
     inkscape:current-layer="layer1"
     showgrid="false"
     fit-margin-top="0"
     fit-margin-left="0"
     fit-margin-right="0"
     fit-margin-bottom="0"
     inkscape:window-width="1920"
     inkscape:window-height="1043"
     inkscape:window-x="0"
     inkscape:window-y="0"
     inkscape:window-maximized="1" />
  <metadata
     id="metadata26411">
    <rdf:RDF>
      <cc:Work
         rdf:about="">
        <dc:format>image/svg+xml</dc:format>
        <dc:type
           rdf:resource="http://purl.org/dc/dcmitype/StillImage" />
        <dc:title></dc:title>
      </cc:Work>
    </rdf:RDF>
  </metadata>
  <g
     inkscape:label="Layer 1"
     inkscape:groupmode="layer"
     id="layer1"
     transform="translate(181.29723,-143.09176)">
    <g
       transform="matrix(0.26458333,0,0,0.26458333,-341.66727,60.379838)"
       id="g525">
      <path
         inkscape:connector-curvature="0"
         id="path511"
         d="m 651.773,339.071 c -6.056,-1.652 -10.875,2.707 -14.454,6.837 3.396,-8.168 -0.644,-15.969 -3.121,-22.577 -2.478,6.608 -6.516,14.409 -3.121,22.577 -3.579,-4.13 -8.396,-8.489 -14.454,-6.837 -4.153,1.102 -7.296,4.451 -6.471,8.305 0.276,1.377 1.194,3.396 3.029,3.764 1.652,-3.854 5.323,-6.241 9.454,-5.415 3.855,0.826 7.043,4.176 7.984,6.608 -1.807,2.32 -1.1,4.956 0.827,6.332 -1.377,3.03 -4.405,5.048 -7.71,1.744 -4.268,4.682 2.494,8.551 8.322,2.724 0,0 -1.071,4.525 2.14,9.023 3.214,-4.498 2.142,-9.023 2.142,-9.023 5.829,5.827 12.589,1.958 8.322,-2.724 -3.305,3.304 -6.333,1.286 -7.71,-1.744 1.927,-1.376 2.635,-4.012 0.827,-6.332 0.941,-2.433 4.129,-5.782 7.983,-6.608 4.13,-0.826 7.801,1.561 9.452,5.415 1.837,-0.367 2.755,-2.387 3.03,-3.764 0.827,-3.854 -2.317,-7.203 -6.471,-8.305 z" />
      <path
         inkscape:connector-curvature="0"
         id="path513"
         d="m 630.545,321.96 -0.965,2.479 c -1.423,3.599 -3.026,7.697 -3.535,12.122 -2.912,-1.52 -6.431,-2.351 -10.449,-1.256 -5.698,1.511 -9.473,5.988 -9.473,10.878 0,0.658 0.069,1.325 0.212,1.993 0.573,2.816 2.467,6.067 6.081,6.79 l 3.104,0.621 1.248,-2.911 c 0.789,-1.839 2.536,-3.621 5.076,-3.129 1.803,0.396 3.372,1.715 4.312,2.886 -0.319,0.891 -0.484,1.813 -0.484,2.744 0,0.379 0.026,0.759 0.082,1.137 0.036,0.25 0.087,0.498 0.148,0.742 -0.749,-0.749 -2.296,-2.296 -2.296,-2.296 l -2.753,3.021 c -3.516,3.855 -2.656,7.96 -0.37,10.144 1.886,1.801 4.936,2.507 8.166,1.651 0.456,1.535 1.189,3.192 2.375,4.849 l 3.174,4.445 3.175,-4.443 c 1.185,-1.658 1.919,-3.315 2.375,-4.852 3.231,0.855 6.279,0.15 8.167,-1.65 2.285,-2.184 3.145,-6.288 -0.37,-10.144 l -2.753,-3.021 c 0,0 -1.548,1.547 -2.298,2.296 0.061,-0.246 0.113,-0.492 0.149,-0.743 0.055,-0.378 0.083,-0.757 0.083,-1.136 0,-0.931 -0.166,-1.854 -0.485,-2.744 0.94,-1.171 2.51,-2.489 4.311,-2.886 2.541,-0.492 4.288,1.29 5.075,3.129 l 1.249,2.911 3.104,-0.621 c 3.614,-0.723 5.509,-3.974 6.081,-6.79 0.143,-0.668 0.212,-1.335 0.212,-1.992 0,-4.888 -3.773,-9.362 -9.489,-10.882 -4.011,-1.089 -7.524,-0.259 -10.434,1.259 -0.507,-4.425 -2.111,-8.524 -3.535,-12.123 l -4.601,-11.826 z m 22.24,13.343 c 0.006,10e-4 0.011,0.002 0.016,0.003 l -0.026,-0.008 c 0.003,0.002 0.006,0.004 0.01,0.005 z m 9.277,12.874 c 0,0.006 0,0.013 -10e-4,0.018 l 0.011,-0.052 c -0.003,0.011 -0.007,0.024 -0.01,0.034 z m -55.725,0.017 c -10e-4,-0.005 -10e-4,-0.012 -10e-4,-0.018 -0.003,-0.01 -0.007,-0.022 -0.008,-0.034 z" />
      <path
         style="fill:#ffffff"
         inkscape:connector-curvature="0"
         id="path515"
         d="m 651.773,339.071 c -6.056,-1.652 -10.875,2.707 -14.454,6.837 3.396,-8.168 -0.644,-15.969 -3.121,-22.577 -2.478,6.608 -6.516,14.409 -3.121,22.577 -3.579,-4.13 -8.396,-8.489 -14.454,-6.837 -4.153,1.102 -7.296,4.451 -6.471,8.305 0.276,1.377 1.194,3.396 3.029,3.764 1.652,-3.854 5.323,-6.241 9.454,-5.415 3.855,0.826 7.043,4.176 7.984,6.608 -1.807,2.32 -1.1,4.956 0.827,6.332 -1.377,3.03 -4.405,5.048 -7.71,1.744 -4.268,4.682 2.494,8.551 8.322,2.724 0,0 -1.071,4.525 2.14,9.023 3.214,-4.498 2.142,-9.023 2.142,-9.023 5.829,5.827 12.589,1.958 8.322,-2.724 -3.305,3.304 -6.333,1.286 -7.71,-1.744 1.927,-1.376 2.635,-4.012 0.827,-6.332 0.941,-2.433 4.129,-5.782 7.983,-6.608 4.13,-0.826 7.801,1.561 9.452,5.415 1.837,-0.367 2.755,-2.387 3.03,-3.764 0.827,-3.854 -2.317,-7.203 -6.471,-8.305 z" />
      <path
         style="fill:#ffffff"
         inkscape:connector-curvature="0"
         id="path517"
         d="m 632.006,322.509 -0.975,2.505 c -1.652,4.178 -3.578,9.05 -3.59,14.265 -3.147,-2.246 -6.98,-3.683 -11.434,-2.466 -5.002,1.326 -8.323,5.188 -8.323,9.377 0,0.551 0.057,1.105 0.175,1.663 0.47,2.326 1.992,5.01 4.862,5.584 l 1.863,0.371 0.749,-1.746 c 1.294,-3.021 3.972,-4.604 6.826,-4.043 2.548,0.554 4.737,2.569 5.785,4.235 -0.456,0.937 -0.713,1.929 -0.713,2.929 0,0.302 0.022,0.605 0.066,0.908 0.15,1.037 0.57,2.027 1.192,2.89 -0.368,0.418 -0.762,0.703 -1.134,0.771 -0.677,0.122 -1.443,-0.474 -1.965,-0.996 l -1.734,-1.734 -1.651,1.811 c -2.825,3.099 -2.259,6.231 -0.447,7.964 1.812,1.729 4.978,2.188 8.221,0.752 0.315,1.793 1.022,3.887 2.513,5.972 l 1.904,2.666 1.905,-2.666 c 1.489,-2.085 2.197,-4.179 2.513,-5.972 3.245,1.435 6.411,0.978 8.221,-0.752 1.813,-1.732 2.379,-4.865 -0.445,-7.964 l -1.652,-1.812 -1.733,1.735 c -0.523,0.522 -1.29,1.118 -1.966,0.996 -0.371,-0.067 -0.766,-0.353 -1.134,-0.771 0.623,-0.862 1.042,-1.853 1.192,-2.89 0.044,-0.303 0.066,-0.606 0.066,-0.908 0,-1 -0.256,-1.992 -0.712,-2.929 1.047,-1.666 3.235,-3.682 5.783,-4.235 2.855,-0.562 5.533,1.021 6.828,4.043 l 0.748,1.746 1.864,-0.371 c 2.87,-0.574 4.392,-3.258 4.861,-5.584 0.118,-0.558 0.176,-1.112 0.176,-1.662 0,-4.186 -3.318,-8.045 -8.327,-9.379 -4.453,-1.214 -8.284,0.221 -11.43,2.467 -0.012,-5.215 -1.938,-10.087 -3.59,-14.265 l -3.156,-8.113 z m 20.379,14.303 c 10e-4,10e-4 0.003,10e-4 0.004,10e-4 l -0.016,-0.006 c 0.004,0.002 0.008,0.005 0.012,0.005 z m 8.152,11.041 c -0.001,0.005 -0.002,0.009 -0.002,0.015 l 0.005,-0.031 c -10e-4,0.005 -0.002,0.01 -0.003,0.016 z m -52.673,0.014 c -0.002,-0.006 -0.003,-0.01 -0.003,-0.015 -10e-4,-0.006 -0.003,-0.011 -0.004,-0.017 z" />
      <path
         inkscape:connector-curvature="0"
         id="path519"
         d="m 651.773,339.071 c -6.056,-1.652 -10.875,2.707 -14.454,6.837 3.396,-8.168 -0.644,-15.969 -3.121,-22.577 -2.478,6.608 -6.516,14.409 -3.121,22.577 -3.579,-4.13 -8.396,-8.489 -14.454,-6.837 -4.153,1.102 -7.296,4.451 -6.471,8.305 0.276,1.377 1.194,3.396 3.029,3.764 1.652,-3.854 5.323,-6.241 9.454,-5.415 3.855,0.826 7.043,4.176 7.984,6.608 -1.807,2.32 -1.1,4.956 0.827,6.332 -1.377,3.03 -4.405,5.048 -7.71,1.744 -4.268,4.682 2.494,8.551 8.322,2.724 0,0 -1.071,4.525 2.14,9.023 3.214,-4.498 2.142,-9.023 2.142,-9.023 5.829,5.827 12.589,1.958 8.322,-2.724 -3.305,3.304 -6.333,1.286 -7.71,-1.744 1.927,-1.376 2.635,-4.012 0.827,-6.332 0.941,-2.433 4.129,-5.782 7.983,-6.608 4.13,-0.826 7.801,1.561 9.452,5.415 1.837,-0.367 2.755,-2.387 3.03,-3.764 0.827,-3.854 -2.317,-7.203 -6.471,-8.305 z" />
      <path
         inkscape:connector-curvature="0"
         id="path521"
         d="m 633.102,322.92 -0.981,2.524 c -1.687,4.261 -3.526,8.91 -3.526,13.841 0,0.848 0.076,1.703 0.194,2.564 -3.33,-3.02 -7.464,-5.273 -12.474,-3.908 -5.14,1.362 -8.216,5.436 -7.306,9.681 0.389,1.944 1.631,4.204 3.943,4.667 l 0.931,0.185 0.375,-0.872 c 1.525,-3.558 4.723,-5.413 8.148,-4.729 3.295,0.709 5.887,3.44 6.872,5.365 -0.569,0.928 -0.876,1.915 -0.876,2.924 0,0.252 0.018,0.507 0.056,0.761 0.163,1.12 0.706,2.173 1.52,3.01 -0.662,1.088 -1.526,1.811 -2.411,1.972 -0.944,0.17 -1.955,-0.273 -3.002,-1.322 l -0.866,-0.865 -0.827,0.904 c -2.449,2.687 -1.801,5.089 -0.502,6.329 1.754,1.674 5.098,1.844 8.365,-0.256 0.098,1.901 0.64,4.522 2.512,7.144 l 0.953,1.333 0.953,-1.333 c 1.872,-2.621 2.415,-5.242 2.512,-7.144 3.268,2.1 6.611,1.93 8.366,0.256 1.299,-1.24 1.947,-3.643 -0.502,-6.329 l -0.826,-0.904 -0.867,0.865 c -1.047,1.049 -2.059,1.492 -3.002,1.322 -0.885,-0.161 -1.75,-0.884 -2.411,-1.972 0.813,-0.837 1.357,-1.89 1.521,-3.01 0.037,-0.254 0.055,-0.509 0.055,-0.762 0,-1.008 -0.307,-1.995 -0.877,-2.923 0.986,-1.925 3.579,-4.659 6.89,-5.368 3.408,-0.681 6.606,1.175 8.131,4.732 l 0.374,0.872 0.931,-0.185 c 2.313,-0.463 3.557,-2.723 3.948,-4.684 0.105,-0.494 0.158,-0.987 0.158,-1.473 0,-3.67 -2.928,-6.984 -7.47,-8.192 -5.008,-1.364 -9.141,0.89 -12.471,3.909 0.118,-0.862 0.195,-1.717 0.195,-2.564 0,-4.931 -1.84,-9.58 -3.526,-13.842 l -2.073,-5.328 z m 18.978,15.02 c 0,10e-4 10e-4,10e-4 0.002,10e-4 l -0.008,-0.002 c 0.002,0 0.003,0 0.006,10e-4 z" />
      <path
         style="fill:#e2c02a"
         inkscape:connector-curvature="0"
         id="path523"
         d="m 651.773,339.071 c -6.056,-1.652 -10.875,2.707 -14.454,6.837 3.396,-8.168 -0.644,-15.969 -3.121,-22.577 -2.478,6.608 -6.516,14.409 -3.121,22.577 -3.579,-4.13 -8.396,-8.489 -14.454,-6.837 -4.153,1.102 -7.296,4.451 -6.471,8.305 0.276,1.377 1.194,3.396 3.029,3.764 1.652,-3.854 5.323,-6.241 9.454,-5.415 3.855,0.826 7.043,4.176 7.984,6.608 -1.807,2.32 -1.1,4.956 0.827,6.332 -1.377,3.03 -4.405,5.048 -7.71,1.744 -4.268,4.682 2.494,8.551 8.322,2.724 0,0 -1.071,4.525 2.14,9.023 3.214,-4.498 2.142,-9.023 2.142,-9.023 5.829,5.827 12.589,1.958 8.322,-2.724 -3.305,3.304 -6.333,1.286 -7.71,-1.744 1.927,-1.376 2.635,-4.012 0.827,-6.332 0.941,-2.433 4.129,-5.782 7.983,-6.608 4.13,-0.826 7.801,1.561 9.452,5.415 1.837,-0.367 2.755,-2.387 3.03,-3.764 0.827,-3.854 -2.317,-7.203 -6.471,-8.305 z" />
    </g>
  </g>
</svg>
