<?xml version="1.0" encoding="UTF-8" standalone="no"?>
<!-- Created with Inkscape (http://www.inkscape.org/) -->

<svg
   xmlns:dc="http://purl.org/dc/elements/1.1/"
   xmlns:cc="http://creativecommons.org/ns#"
   xmlns:rdf="http://www.w3.org/1999/02/22-rdf-syntax-ns#"
   xmlns:svg="http://www.w3.org/2000/svg"
   xmlns="http://www.w3.org/2000/svg"
   xmlns:sodipodi="http://sodipodi.sourceforge.net/DTD/sodipodi-0.dtd"
   xmlns:inkscape="http://www.inkscape.org/namespaces/inkscape"
   width="19.183985mm"
   height="9.826889mm"
   viewBox="0 0 19.183985 9.826889"
   version="1.1"
   id="svg28244"
   inkscape:version="0.92.3 (2405546, 2018-03-11)"
   sodipodi:docname="seahawks.svg">
  <defs
     id="defs28238" />
  <sodipodi:namedview
     id="base"
     pagecolor="#ffffff"
     bordercolor="#666666"
     borderopacity="1.0"
     inkscape:pageopacity="0.0"
     inkscape:pageshadow="2"
     inkscape:zoom="0.35"
     inkscape:cx="537.68178"
     inkscape:cy="-258.57236"
     inkscape:document-units="mm"
     inkscape:current-layer="layer1"
     showgrid="false"
     inkscape:window-width="1920"
     inkscape:window-height="1043"
     inkscape:window-x="0"
     inkscape:window-y="0"
     inkscape:window-maximized="1"
     fit-margin-top="0"
     fit-margin-left="0"
     fit-margin-right="0"
     fit-margin-bottom="0" />
  <metadata
     id="metadata28241">
    <rdf:RDF>
      <cc:Work
         rdf:about="">
        <dc:format>image/svg+xml</dc:format>
        <dc:type
           rdf:resource="http://purl.org/dc/dcmitype/StillImage" />
        <dc:title></dc:title>
      </cc:Work>
    </rdf:RDF>
  </metadata>
  <g
     inkscape:label="Layer 1"
     inkscape:groupmode="layer"
     id="layer1"
     transform="translate(197.06819,-70.592508)">
    <g
       transform="matrix(0.26458333,0,0,0.26458333,-420.1966,4.5398085)"
       id="g3763">
      <path
         style="fill:#3eaa4b"
         inkscape:connector-curvature="0"
         id="path3749"
         d="m 843.368,278.686 h 20.028 c 0.001,-0.755 -0.703,-5.098 0.68,-8.448 -2.476,-2.767 -1.893,-1.746 -3.861,-4.951 l -16.895,0.074 z" />
      <path
         style="fill:#333c8c"
         inkscape:connector-curvature="0"
         id="path3751"
         d="m 843.357,249.7 0.035,13.474 17.043,-0.072 c 2.411,-1.322 4.494,-3.426 6.918,-4.663 3.713,-1.893 8.937,-2.334 11.67,-1.528 2.114,0.624 3.169,0.684 5.298,1.528 3.44,1.366 4.45,0.894 5.352,0.329 0.674,-0.421 0.669,-2.331 1.808,-2.052 0.651,1.562 -0.714,5.221 -5.193,3.582 -1.328,-0.485 -4.618,-1.85 -6.117,-2.076 -1.646,-0.246 -2.736,-0.434 -4.398,-0.509 -3.83,-0.173 -7.947,1.82 -9.529,4.115 -0.981,1.418 -2.045,2.656 -1.967,4.587 0.056,1.366 0.376,3.06 0.875,4.152 -0.546,1.093 -0.68,2.246 -0.875,3.221 -0.184,0.924 -0.244,3.938 0.329,4.807 h 6.445 c 0,0 16.933,-0.053 23.322,0.219 4.575,0.196 11.834,1.54 13.327,2.185 -0.055,1.967 -0.654,3.987 -1.419,5.79 3.877,-2.677 4.297,-3.326 5.626,-5.516 0.847,-1.399 2.586,-4.527 2.948,-6.173 0.82,-3.713 1.337,-6.162 0.657,-9.776 -1.039,-5.518 -5.797,-7.497 -7.922,-8.356 -4.04,-1.639 -11.523,-1.53 -11.853,-1.75 -1.363,-0.908 -4.103,-2.798 -5.57,-3.385 -3.823,-1.53 -7.146,-1.718 -11.088,-2.185 z" />
      <path
         style="fill:#ffffff"
         inkscape:connector-curvature="0"
         id="path3753"
         d="m 866.625,268.763 c -1.201,-2.839 0.273,-6.28 1.682,-7.809 1.422,-1.541 5.994,-2.24 7.496,-2.242 2.46,-0.003 3.714,0.219 4.643,0.438 1.147,0.27 4.681,1.487 5.626,2.186 0.489,0.36 1.365,0.873 2.457,2.185 -0.751,0.855 -1.038,1.583 -1.856,2.457 -0.709,0.757 -3.388,2.434 -4.425,2.513 -0.932,0.069 -3.986,0.38 -5.407,0.164 -1.137,-0.175 -2.948,-0.272 -4.097,-0.274 -2.278,-0.004 -6.119,0.382 -6.119,0.382 z" />
      <path
         style="fill:#ffffff"
         inkscape:connector-curvature="0"
         id="path3755"
         d="m 867.062,277.121 c 0.874,-2.184 1.523,-3.753 3.714,-4.807 3.35,-1.612 5.343,-1.798 11.252,-1.53 2.403,0.11 4.938,-0.551 7.537,-1.092 1.753,-0.363 2.402,-0.874 3.387,-2.621 2.807,-4.989 1.42,-6.336 3.169,-7.648 0.557,-0.419 8.941,1.917 9.612,2.293 1.157,0.651 4.261,4.042 3.934,9.068 -0.054,0.823 -0.656,5.899 -0.656,5.899 -3.388,-1.529 -14.421,-4.26 -18.025,-4.478 -1.8,-0.111 -7.485,-0.701 -12.125,-0.438 -5.788,0.327 -8.521,3.17 -9.396,5.354 z" />
      <path
         style="fill:#ffffff"
         inkscape:connector-curvature="0"
         id="path3757"
         d="m 870.776,277.23 c 0.403,0 1.139,0.287 1.423,10e-4 0.873,-0.875 4.913,-2.641 7.644,-2.733 13,-0.437 22.135,2.04 28.623,4.37 l 0.23,-1.008 c -0.102,-0.176 -5.036,-2.05 -9.845,-3.252 -6.108,-1.526 -17.697,-1.855 -19.227,-1.747 -6.654,0.475 -8.848,4.369 -8.848,4.369 z" />
      <path
         style="fill:#3eaa4b"
         inkscape:connector-curvature="0"
         id="path3759"
         d="m 867.826,262.592 0.009,0.974 c 1.249,0.009 1.833,-0.18 3.105,-0.702 0.834,-0.341 1.893,-1.146 2.239,-1.091 -0.381,0.436 -0.257,0.967 -0.281,1.411 -0.647,0.391 -1.247,0.555 -2.068,0.5 v 0.657 c 0.283,0.176 1.854,-0.209 2.242,-0.111 0.234,0.061 1.528,1.148 2.402,1.203 1.139,0.07 3.932,0.326 3.823,-3.331 -0.017,-0.589 1.421,1.364 5.783,1.137 0.013,-0.263 0.011,-0.541 0,-0.805 -3.269,-0.005 -3.762,-0.606 -4.746,-1.208 -1.503,-0.918 -2.569,-2.069 -4.453,-1.966 -1.991,0.11 -3.958,2.184 -5.433,2.785 -1.474,0.602 -2.622,0.547 -2.622,0.547 z" />
      <path
         style="fill:#3eaa4b"
         inkscape:connector-curvature="0"
         id="path3761"
         d="m 868.701,264.887 c 0,0.251 -0.004,0.506 0.009,0.755 1.028,-0.101 2.493,0.194 2.995,0.499 2.062,1.258 3.108,1.217 4.315,1.038 0.979,-0.145 1.903,-0.512 2.787,-0.968 0.462,-0.239 2.661,-1.29 3.33,-1.325 0.963,-0.053 3.058,0.155 3.058,0.155 l -0.006,-1.021 c -3.16,-0.008 -4.255,-0.323 -6.984,1.575 -1.296,0.902 -4.314,0.819 -4.964,0.34 -1.828,-1.352 -4.54,-1.048 -4.54,-1.048 z" />
    </g>
  </g>
</svg>
