<?xml version="1.0" encoding="UTF-8"?>
<svg version="1.1" viewBox="0 0 196.06 196.06" xml:space="preserve" xmlns="http://www.w3.org/2000/svg" xmlns:cc="http://creativecommons.org/ns#" xmlns:dc="http://purl.org/dc/elements/1.1/" xmlns:rdf="http://www.w3.org/1999/02/22-rdf-syntax-ns#"><metadata><rdf:RDF><cc:Work rdf:about=""><dc:format>image/svg+xml</dc:format><dc:type rdf:resource="http://purl.org/dc/dcmitype/StillImage"/><dc:title/></cc:Work></rdf:RDF></metadata><g transform="matrix(.5 0 0 .5 1.1041 1.054)"><path d="m2.7825 194.67c0 105.35 85.712 191.06 191.06 191.06s191.06-85.712 191.06-191.06c.01-105.35-85.7-191.06-191.06-191.06-105.34 0-191.06 85.706-191.06 191.06"/><path d="m193.84 381.54c103.2 0 186.87-83.669 186.87-186.88 0-103.19-83.67-186.86-186.87-186.86-103.2.0012-186.87 83.67-186.87 186.87 0 103.21 83.669 186.88 186.88 186.88" fill="#a5acaf"/><path d="m193.84 351.02c86.094 0 155.89-69.794 155.89-155.89 0-86.09-69.79-155.9-155.89-155.9s-155.89 69.8-155.89 155.89c0 86.094 69.794 155.89 155.89 155.89" fill="#fff"/><path d="m194.66 195.34c1.8008-63.85 62.116-78.844 77.269-77.469-37.356-2.0285-74.225-17.814-77.069-76.888-4.5062 54.938-26.55 70.556-77.344 77.075 36.281 1.8375 73.012 16.194 77.144 77.281" fill="#eead1e"/><path d="m272.14 274.37c1.8-63.85 61.056-79.606 76.212-78.231-37.481-1.3875-73.581-19.2-76.425-78.269-4.5 54.938-26.469 70.95-77.269 77.469 36.281 1.8375 73.35 17.944 77.481 79.031" fill="#c60c30"/><path d="m195.6 350.37c1.7965-63.862 61.389-77.375 76.55-76-37.356-2.0328-74.638-19.954-77.481-79.031-4.5062 54.944-25.9 71.444-76.694 77.962 36.281 1.85 73.488 15.994 77.625 77.069" fill="#00539b"/><path d="m68.698 171.71c-1.4753.01-2.977.32396-4.3818.94045-1.689.7392-2.8584 2.08-3.6836 3.5498-.82515 1.487-1.2894 2.6686-1.3926 4.3662-.21489 3.5843 1.5774 7.362 4.9512 9.468 2.3638 1.4784 4.0955 1.6719 6.1025 3.6016 1.0658 1.0143.98055 3.6489.6367 4.2549-.9756 1.7277-3.5116 1.0917-4.1348.43847-.6275-.65755-.90195-3.026-.77735-3.9629l-6.6925.0391c-.25787 2.9482-.05507 4.7623.83885 6.7605.9068 2.0371 2.1788 2.802 3.8291 3.5928 3.5844 1.7019 8.4195 1.5594 11.909-1.6982.85525-.79505 1.1641-1.7276 1.1641-1.7276.81225-1.9727 1.7196-4.2071 1.0879-7.8085-.29656-1.6848-1.0275-3.0642-1.4014-3.5928-1.242-1.7535-2.1622-2.5487-5.4845-4.169.07738 0-1.0484-.48144-.9668-.48144-3.5156-1.1217-4.912-3.2702-3.8203-5.5565.6017-1.2721 2.8791-1.7797 3.8848-.86425.679.6231.8338 1.9552.88965 2.9824l2.3428-.0166h4.3056c.09024-2.9654-.5456-4.6336-1.1817-5.751-1.6636-2.937-4.7796-4.3868-8.0255-4.3652zm56.9.6133v32.948h6.3135v-32.93l-6.3135-.0176zm-38.009 3.7862-6.2665 3.4385v2.1572l-2.4795.0781.0254 5.3975 2.3379-.0772.04785 12.407c.0258 6.5885 5.6725 5.5745 8.6555 5.6475l.005-7.005c-2.527.0387-2.2998-.46438-2.2998-1.7236v-9.206l2.4112.0391-.0254-5.531-2.3858.0518-.0254-5.674zm83.335 5.295c-1.0638.0156-2.1315.24051-3.124.72265-.95405.45987-1.6506.36038-3.2451 2.333-.7564.9326-.9709 2.3166-1.044 3.5156-.15044 2.5357.68755 5.8795 4.1386 6.752 1.9297.48562 4.1262.7395 5.1535 2.291.563.8466.39907 1.1987.14551 1.8476-.36106.91975-2.4106.90735-3.2314.58495-.81225-.30944-1.3194-1.2592-1.2119-2.0801l-5.252.0342c.0988 2.0285.11609 3.258.88965 4.7578.7478 1.4527 2.2558 2.5096 3.6396 2.9306 2.8193.85525 5.9225.70535 8.2215-.7129.42119-.26219 1.6036-1.3373 2.085-2.2012.7908-1.444 1.259-3.2919.5498-5.716-.33519-1.169-.36951-1.3016-.5801-1.71-1.2506-2.3852-2.8582-2.8494-4.5215-3.4082.0559 0-1.5471-.37012-1.4912-.37012-2.931-.33094-3.1114-1.9892-2.7246-3.1152.32232-.9326 1.0656-1.2422 2.0283-1.2422.8166.009 1.62.57995 1.7705 1.1816.10313.42975.0908.9243.0908 1.4873l5.4325.0254c-.043-2.1145-.43036-4.3066-1.6123-5.497-1.4478-1.4685-3.7672-2.4454-6.1075-2.4112zm-10.052.11621c-2.0716.46413-2.6217 1.4274-3.5371 3.039l-.0264-2.9356-6.085.0645v23.38h6.201v-13.551c.0687-1.4097-.27903-3.2456 4.96-2.876v-7.121h-1.5127zm-61.69.21191c-1.2533-.0252-2.6171.25706-4.377 1.0264-2.063 1.358-3.2576 3.223-3.1416 5.3635v11.406c.11606 2.828 1.3415 4.8348 3.8642 5.759 1.9168.40825 3.9704 1.0229 7.254 0 3.0944-1.0659 3.8548-3.0558 3.8076-4.8867l-.0127-2.7549-5.1525.0263v.666c-.116 2.6431-4.698 2.2135-4.7109.11621l.0088-3.2148h9.867v-7.2375c-.0301-2.3767-1.1643-4.0788-3.6914-5.454-1.3194-.45768-2.4625-.7902-3.7158-.81545zm17.106 0c-1.2528-.0252-2.6158.25706-4.378 1.0264-2.063 1.358-3.2576 3.223-3.1416 5.3635v11.406c.11606 2.828 1.3404 4.8348 3.8633 5.759 1.9211.40825 3.9714 1.0229 7.255 0 3.0944-1.0659 3.8506-3.0558 3.8076-4.8867l-.0127-2.7549-5.1535.0263v.666c-.116 2.6431-4.6971 2.2135-4.71.11621l.009-3.2148h9.867v-7.2375c-.0301-2.3767-1.1643-4.0788-3.6914-5.454-1.3194-.45768-2.462-.7902-3.7148-.81545zm25.115 0c-1.2528-.0252-2.6149.25706-4.377 1.0264-2.0672 1.358-3.2576 3.223-3.1416 5.3635v11.406c.11607 2.828 1.3406 4.8348 3.8633 5.759 1.9211.40825 3.9714 1.0229 7.255 0 3.0944-1.0659 3.8543-3.0558 3.8028-4.8867l-.008-2.7549-5.157.0263v.666c-.11175 2.6431-4.6936 2.2135-4.7022.11621l-.0215-3.2148h9.8935v-7.2375c-.0258-2.3767-1.1647-4.0788-3.6875-5.454-1.3237-.45768-2.4669-.7902-3.7197-.81545zm-42.32 5.371c1.4669-.0725 3.0368 1.0953 2.5254 3.2666l-4.6679-.0175c-.36665-2.1556.8482-3.185 2.1426-3.249zm17.104 0c1.467-.0725 3.0368 1.0953 2.5254 3.2666l-4.667-.0175c-.36665-2.1556.84725-3.185 2.1416-3.249zm25.116 0c1.467-.0725 3.0368 1.0953 2.5254 3.2666l-4.667-.0175c-.36665-2.1556.84725-3.185 2.1416-3.249z"/></g></svg>
