<?xml version="1.0" encoding="UTF-8" standalone="no"?>
<!-- Created with Inkscape (http://www.inkscape.org/) -->

<svg
   xmlns:dc="http://purl.org/dc/elements/1.1/"
   xmlns:cc="http://creativecommons.org/ns#"
   xmlns:rdf="http://www.w3.org/1999/02/22-rdf-syntax-ns#"
   xmlns:svg="http://www.w3.org/2000/svg"
   xmlns="http://www.w3.org/2000/svg"
   xmlns:sodipodi="http://sodipodi.sourceforge.net/DTD/sodipodi-0.dtd"
   xmlns:inkscape="http://www.inkscape.org/namespaces/inkscape"
   width="22.109304mm"
   height="15.67677mm"
   viewBox="0 0 22.109304 15.67677"
   version="1.1"
   id="svg28875"
   inkscape:version="0.92.3 (2405546, 2018-03-11)"
   sodipodi:docname="titans.svg">
  <defs
     id="defs28869" />
  <sodipodi:namedview
     id="base"
     pagecolor="#ffffff"
     bordercolor="#666666"
     borderopacity="1.0"
     inkscape:pageopacity="0.0"
     inkscape:pageshadow="2"
     inkscape:zoom="0.35"
     inkscape:cx="-36.790061"
     inkscape:cy="-170.37461"
     inkscape:document-units="mm"
     inkscape:current-layer="layer1"
     showgrid="false"
     fit-margin-top="0"
     fit-margin-left="0"
     fit-margin-right="0"
     fit-margin-bottom="0"
     inkscape:window-width="1920"
     inkscape:window-height="1043"
     inkscape:window-x="0"
     inkscape:window-y="0"
     inkscape:window-maximized="1" />
  <metadata
     id="metadata28872">
    <rdf:RDF>
      <cc:Work
         rdf:about="">
        <dc:format>image/svg+xml</dc:format>
        <dc:type
           rdf:resource="http://purl.org/dc/dcmitype/StillImage" />
        <dc:title></dc:title>
      </cc:Work>
    </rdf:RDF>
  </metadata>
  <g
     inkscape:label="Layer 1"
     inkscape:groupmode="layer"
     id="layer1"
     transform="translate(45.072511,-88.078281)">
    <g
       transform="matrix(0.26458333,0,0,0.26458333,-230.70266,40.487886)"
       id="g2625">
      <path
         style="fill:#175699;stroke:#175699;stroke-width:4"
         inkscape:connector-curvature="0"
         id="path2599"
         d="m 761.634,237.12 c 12.166,0 21.523,-9.863 21.523,-22.029 0,-12.166 -11.104,-22.028 -23.27,-22.028 -12.166,0 -22.028,9.862 -22.028,22.028 0,12.166 11.609,22.029 23.775,22.029 z" />
      <path
         style="fill:none;stroke:#add2e6;stroke-width:6"
         inkscape:connector-curvature="0"
         id="path2601"
         d="m 761.521,234.917 c 10.949,0 19.372,-8.878 19.372,-19.826 0,-10.949 -9.994,-19.825 -20.943,-19.825 -10.949,0 -19.825,8.876 -19.825,19.825 0,10.949 10.447,19.826 21.396,19.826 z" />
      <polygon
         style="fill:#eb2d2e;stroke:#eb2d2e"
         id="polygon2603"
         points="759.251,205.643 760.041,203.245 757.823,201.706 760.469,201.711 761.322,199.326 762.208,201.689 764.879,201.689 762.729,203.325 763.494,205.668 761.322,204.125 " />
      <polygon
         style="fill:#eb2d2e;stroke:#eb2d2e"
         id="polygon2605"
         points="747.353,223.913 748.942,221.95 747.415,219.726 749.888,220.67 751.53,218.743 751.521,221.266 754.018,222.214 751.427,222.98 751.31,225.444 749.827,223.229 " />
      <polygon
         style="fill:#eb2d2e;stroke:#eb2d2e"
         id="polygon2607"
         points="768.947,222.383 771.22,221.28 770.779,218.617 772.618,220.521 774.924,219.47 773.845,221.753 775.706,223.67 773.033,223.265 771.883,225.447 771.478,222.812 " />
      <polygon
         style="fill:#ffffff;stroke:#ffffff"
         id="polygon2609"
         points="772.896,214.953 775.136,208.232 747.321,208.232 749.933,214.953 751.241,212.34 756.841,212.34 761.134,230.821 765.988,212.153 770.841,212.153 " />
      <polygon
         style="fill:#e2e4e7;stroke:#e2e4e7"
         id="polygon2611"
         points="760.76,228.393 760.76,210.846 761.322,209.54 760.015,209.54 758.708,211.032 751.988,211.032 752.175,211.78 756.654,211.78 " />
      <path
         style="fill:#175699;stroke:#175699;stroke-width:4"
         inkscape:connector-curvature="0"
         id="path2613"
         d="m 764.37,193.361 c -4.845,-6.781 -13.503,-3.983 -13.503,-3.983 1.75,0.409 2.312,1.268 2.312,1.268 1.745,2.648 -3.619,1.905 -3.619,1.905 -3.621,-1.078 -4.083,-3.722 -8.017,-5.904 -5.783,-3.207 -11.024,0.677 -11.024,0.677 7.84,1.307 6.533,5.228 6.533,5.228 -4.136,0.13 -5.306,-0.518 -5.306,-0.518 -5.284,-2.865 -4.508,-4.291 -7.761,-7.323 -6.227,-5.807 -15.868,-0.933 -15.868,-0.933 5.041,0.746 7.28,5.413 7.28,5.413 2.743,8.793 7.734,10.512 7.734,10.512 l 4.627,1.223 -2.379,0.595 c -7.338,1.157 -9.42,-5.521 -9.42,-5.521 -3.639,13.703 10.639,14.098 10.639,14.098 10.267,3.361 7.84,6.161 7.84,6.161 -0.56,1.307 -3.174,0 -3.174,0 2.241,9.708 10.579,11.575 10.579,11.575 l -2.027,-13.547 2.327,-10.763 5.09,-3.927 4.8,-3.926 6.253,-1.6 z" />
      <path
         style="fill:#eb2d2e;stroke:#eb2d2e;stroke-width:0.5"
         inkscape:connector-curvature="0"
         id="path2615"
         d="m 731.054,193.97 c 0,0 -4.333,-2.072 -7.489,-6.107 0,0 -2.181,-5.382 -9.354,-4.403 0,0 4.264,2.438 6.346,6.534 0,-0.001 2.47,4.723 10.497,3.976 z" />
      <path
         style="fill:#eb2d2e;stroke:#eb2d2e;stroke-width:0.5"
         inkscape:connector-curvature="0"
         id="path2617"
         d="m 733.989,212.241 c 0,0 0.186,-4.293 -8.774,-6.534 0,0 -5.975,-0.746 -8.214,-5.04 0,0 0.747,5.974 6.907,7.467 0,0.001 6.534,0.748 10.081,4.107 z" />
      <path
         style="fill:#eb2d2e;stroke:#eb2d2e;stroke-width:0.5"
         inkscape:connector-curvature="0"
         id="path2619"
         d="m 747.133,192.458 c -3.474,-2.208 -4.598,-4.257 -6.72,-5.319 0,0 -2.613,-0.935 -5.414,-0.561 l -1.679,0.468 c 0,0 5.141,0.104 7.629,2.906 2.487,2.802 6.184,2.506 6.184,2.506 z" />
      <path
         style="fill:#add2e6;stroke:#add2e6;stroke-width:0.5"
         inkscape:connector-curvature="0"
         id="path2621"
         d="m 763.747,194.792 c 0,0 -3.561,-5.104 -9.345,-4.212 0,0 3.409,1.834 1.506,2.719 -1.903,0.885 -8.316,3.596 -14.709,-1.41 0,0 -1.837,-1.54 -3.96,-3.257 0,0 1.416,3.257 2.988,5.601 0,0 2.613,3.173 6.906,3.173 0,0 1.682,0.188 1.122,0.748 0,0 -1.806,3.297 -6.349,0.373 -5.619,-3.619 -6.346,-2.8 -8.212,-2.8 0,0 -10.082,2.8 -14.935,-5.414 0,0 0,7.467 11.388,9.52 0,0 10.081,0.748 10.267,10.829 0,0 -3.519,-8.841 -15.375,-6.77 0,0 12.649,1.674 12.693,13.573 0,0 -0.221,2.91 -4.761,0.75 0,0 2.216,4.953 9.309,7.566 h 0.747 c -0.001,-0.001 -11.948,-28.189 20.72,-30.989 z" />
      <path
         style="fill:none;stroke:#ffffff;stroke-width:4"
         inkscape:connector-curvature="0"
         id="path2623"
         d="m 761.466,233.826 c 10.347,0 18.306,-8.387 18.306,-18.734 0,-10.346 -9.443,-18.735 -19.791,-18.735 -10.346,0 -18.734,8.389 -18.734,18.735 -10e-4,10.347 9.871,18.734 20.219,18.734 z" />
    </g>
  </g>
</svg>
