<?xml version="1.0" encoding="UTF-8" standalone="no"?>
<!-- Created with Inkscape (http://www.inkscape.org/) -->

<svg
   xmlns:dc="http://purl.org/dc/elements/1.1/"
   xmlns:cc="http://creativecommons.org/ns#"
   xmlns:rdf="http://www.w3.org/1999/02/22-rdf-syntax-ns#"
   xmlns:svg="http://www.w3.org/2000/svg"
   xmlns="http://www.w3.org/2000/svg"
   xmlns:sodipodi="http://sodipodi.sourceforge.net/DTD/sodipodi-0.dtd"
   xmlns:inkscape="http://www.inkscape.org/namespaces/inkscape"
   width="18.202618mm"
   height="24.471104mm"
   viewBox="0 0 18.202618 24.471104"
   version="1.1"
   id="svg25125"
   inkscape:version="0.92.3 (2405546, 2018-03-11)"
   sodipodi:docname="vikings.svg">
  <defs
     id="defs25119" />
  <sodipodi:namedview
     id="base"
     pagecolor="#ffffff"
     bordercolor="#666666"
     borderopacity="1.0"
     inkscape:pageopacity="0.0"
     inkscape:pageshadow="2"
     inkscape:zoom="0.35"
     inkscape:cx="-138.45848"
     inkscape:cy="-339.46968"
     inkscape:document-units="mm"
     inkscape:current-layer="layer1"
     showgrid="false"
     fit-margin-top="0"
     fit-margin-left="0"
     fit-margin-right="0"
     fit-margin-bottom="0"
     inkscape:window-width="1920"
     inkscape:window-height="1043"
     inkscape:window-x="0"
     inkscape:window-y="0"
     inkscape:window-maximized="1" />
  <metadata
     id="metadata25122">
    <rdf:RDF>
      <cc:Work
         rdf:about="">
        <dc:format>image/svg+xml</dc:format>
        <dc:type
           rdf:resource="http://purl.org/dc/dcmitype/StillImage" />
        <dc:title></dc:title>
      </cc:Work>
    </rdf:RDF>
  </metadata>
  <g
     inkscape:label="Layer 1"
     inkscape:groupmode="layer"
     id="layer1"
     transform="translate(18.172741,-34.54421)">
    <g
       transform="matrix(0.26458333,0,0,0.26458333,-308.13398,-43.443517)"
       id="g767">
      <path
         style="fill:none;stroke:#ffffff;stroke-width:8"
         inkscape:connector-curvature="0"
         id="path673"
         d="m 1104.206,305.828 c 0,0 0.394,-0.08 0.394,5.944 0,7.095 -0.616,8.813 0.96,12.557 1.578,3.745 3.549,5.322 5.521,6.702 1.972,1.379 7.488,3.548 7.488,3.548 l 1.774,0.591 0.395,6.503 c 0,0 -5.766,3.39 -8.327,5.557 -2.561,2.167 -7.715,8.672 -8.306,9.854 l -2.264,3.236 c -0.756,1.245 -2.111,2.534 -1.898,2.676 0.117,0.143 1.986,-1.471 4.608,-3.098 2.867,-1.775 6.552,-3.6 7.859,-3.941 3.246,-0.848 4.759,-0.815 7.319,-0.422 4.527,0.696 7.431,1.842 9.088,3.084 1.577,1.186 5.216,6.573 5.715,8.083 0.822,2.487 1.575,4.318 1.772,8.08 0.188,3.541 -0.245,6.655 -0.245,6.655 0,0 0,2.533 1.267,1.828 1.267,-0.703 0.343,-0.248 1.13,-1.431 0.788,-1.183 1.596,-4.688 1.596,-4.688 0,0 0.983,-1.38 0.983,-1.971 0,-1.181 0.374,-6.408 0.374,-6.408 l -1.231,-7.612 c 0,0 4.209,-3.52 5.192,-3.52 0.985,0 1.164,3.417 0.964,4.796 -0.195,1.379 -0.358,2.932 -0.948,3.918 -0.592,0.985 -1.542,2.346 -1.542,2.346 0,0 2.132,-0.312 3.196,-1.475 1.367,-1.502 2.864,-5.248 3.457,-9.387 0.589,-4.139 0.195,-2.562 0.195,-2.562 l 9.579,-3.397 -0.317,-2.123 -1.772,-1.379 h -1.577 l 0.394,-3.153 1.773,-1.182 c 0,0 -0.788,-1.773 -1.38,-2.169 -0.591,-0.394 -0.394,-1.576 -0.394,-1.576 v -1.38 l -1.38,-0.195 c 0,0 -1.378,-2.957 -0.984,-3.548 0.395,-0.591 2.167,-2.168 2.167,-3.351 0,-1.182 -0.393,-1.973 -0.393,-1.973 l -2.811,2.784 c 0,0 -3.23,-6.787 -5.073,-8.894 -3.683,-4.202 -7.489,-5.517 -8.869,-6.306 -1.378,-0.788 -7.686,-1.378 -7.686,-1.378 l -5.714,-0.396 0.196,2.366 c 0,0 -2.684,0.878 -3.867,-0.7 -1.517,-2.023 -4.783,-9.232 -5.239,-10.011 -1.92,-3.273 -4.145,-3.598 -4.145,-3.598 0,0 2.268,2.19 3.361,5.945 0.533,1.828 0.545,4.055 0.939,5.629 0.396,1.578 2.052,5.69 3.826,6.873 1.772,1.182 1.576,2.758 1.576,2.758 0,0 -6.503,-0.196 -8.08,-0.592 -1.577,-0.392 -6.896,-3.547 -6.896,-8.077 0,-4.535 -1.062,-8.78 -1.062,-8.78 0,0 -1.173,-2.582 -1.955,-3.441 -0.78,-0.862 -1.763,-1.354 -1.763,-1.354 z" />
      <path
         style="fill:#fbdd2a;stroke:#000000"
         inkscape:connector-curvature="0"
         id="path675"
         d="m 1151.397,328.361 c 0,0 -4.465,-9.195 -13.399,-11.035 -8.936,-1.841 -11.563,-1.577 -11.563,-1.577 0,0 0.789,2.891 -0.261,4.206 -1.052,1.313 -6.308,11.035 -5.521,16.815 0.789,5.782 0,4.992 0,4.992 0,0 -9.196,4.993 -12.873,10.249 -3.68,5.254 -7.884,11.037 -7.884,11.037 0,0 10.509,-7.884 16.816,-7.884 6.307,0 11.825,2.89 12.876,4.204 1.051,1.312 5.518,6.043 6.043,10.773 0.207,1.85 0.645,4.173 0.903,6.243 0.023,0.208 -0.104,0.188 -0.081,0.393 0.012,0.12 0.177,0.471 0.189,0.591 0.031,0.353 0.058,0.693 0.073,1.019 0.016,0.357 -0.329,0.292 -0.329,1.215 0,0.134 0.121,0.268 0.1,0.394 -0.298,1.577 -0.329,2.496 -0.329,2.496 0,0 0.329,1.871 1.84,0.263 0.19,-0.203 0.122,-0.378 0.229,-0.559 0.036,-0.059 0.245,-0.151 0.274,-0.208 0.154,-0.288 0.25,-0.551 0.327,-0.864 0.027,-0.095 0.133,-0.166 0.153,-0.273 0.073,-0.333 0.06,-0.758 0.165,-1.281 0.014,-0.064 0.284,-0.396 0.297,-0.461 0.066,-0.327 0.111,-0.848 0.196,-1.248 0,0 0.427,0.198 0.427,-0.854 0,-0.296 -0.026,-0.807 0,-0.952 0.041,-0.216 0.46,0.099 0.69,-0.789 0.292,-1.128 0.395,-2.115 0.395,-3.285 0,-4.991 -1.314,-10.773 -1.314,-10.773 0,0 -0.263,-6.042 -0.788,-6.83 -0.525,-0.79 -0.525,-3.942 -0.265,-7.096 0.265,-3.152 0.265,-3.417 0.265,-3.417 0,0 4.729,-4.202 4.992,-6.831 0.262,-2.629 0.524,-2.891 0.524,-2.891 l 0.905,-0.525 c 0,0 3.037,-1.051 5.664,-0.788 2.627,0.262 2.365,-0.263 2.365,-0.263 z" />
      <path
         style="fill:none;stroke:#000000"
         inkscape:connector-curvature="0"
         id="path677"
         d="m 1128.275,339.662 c 0,0 -7.226,3.81 -9.854,5.91 -2.628,2.104 -6.701,5.649 -7.752,7.227 -1.05,1.578 -3.679,5.518 -3.679,5.518" />
      <path
         style="fill:none;stroke:#000000"
         inkscape:connector-curvature="0"
         id="path679"
         d="m 1129.062,340.449 c 0,0 -4.335,3.022 -5.387,4.204 -1.051,1.182 -4.203,4.862 -4.203,4.862 l -2.101,3.283 -1.447,2.233" />
      <path
         style="fill:none;stroke:#000000"
         inkscape:connector-curvature="0"
         id="path681"
         d="m 1139.049,343.864 c 0,0 -3.417,2.497 -4.336,4.074 0,0 -1.839,2.232 -1.971,3.546 -0.132,1.314 -0.395,2.893 -0.395,2.893 0,0 -2.363,0.131 -3.679,-0.525 -1.315,-0.658 -2.627,-1.315 -3.153,-2.234 -0.525,-0.921 -1.444,-2.889 -1.444,-2.889 0,0 -0.79,1.442 -1.446,2.364 -0.655,0.919 -1.117,1.706 -2.431,2.888 -0.624,0.563 -1.511,1.185 -1.511,1.185" />
      <path
         style="fill:none;stroke:#000000"
         inkscape:connector-curvature="0"
         id="path683"
         d="m 1125.122,351.484 c 0,0 -0.658,0.658 -1.708,1.709 -1.052,1.052 -2.497,2.103 -2.497,2.103" />
      <path
         style="fill:none;stroke:#000000"
         inkscape:connector-curvature="0"
         id="path685"
         d="m 1126.042,352.404 c 0,0 0.48,2.478 0.787,3.154 0.329,0.722 1.314,1.576 1.709,1.707 0.396,0.133 1.576,0.133 1.576,0.133 0,0 1.313,-0.264 2.364,0.263 1.051,0.524 2.759,1.97 2.759,1.97 0,0 0.987,-2.037 2.496,-5.123 0.388,-0.792 0.657,-2.104 0.657,-2.104" />
      <polyline
         style="fill:none;stroke:#000000"
         id="polyline687"
         points="1135.237,359.631 1135.237,362.392 1131.953,362.258   " />
      <polyline
         style="fill:none;stroke:#000000"
         id="polyline689"
         points="1135.237,362.392 1137.801,364.361 1139.706,360.88   " />
      <polyline
         style="fill:none;stroke:#000000"
         id="polyline691"
         points="1137.801,364.361 1137.341,366.332 1134.517,366.332   " />
      <polyline
         style="fill:none;stroke:#000000"
         id="polyline693"
         points="1137.341,366.332 1139.375,368.236 1140.691,366.135   " />
      <path
         style="fill:none;stroke:#000000"
         inkscape:connector-curvature="0"
         id="path695"
         d="m 1139.375,368.236 c 0,0 -0.521,1.512 -0.852,1.972 -0.33,0.459 -0.33,0.459 -0.33,0.459" />
      <path
         style="fill:none;stroke:#000000"
         inkscape:connector-curvature="0"
         id="path697"
         d="m 1135.567,368.829 c 0,0 2.922,1.871 4.369,3.645" />
      <line
         style="fill:none;stroke:#000000"
         id="line699"
         y2="374.215"
         x2="1138.589"
         y1="371.06201"
         x1="1141.0179" />
      <path
         style="fill:none;stroke:#000000"
         inkscape:connector-curvature="0"
         id="path701"
         d="m 1135.961,372.572 c 0,0 2.232,0.757 4.204,3.448" />
      <path
         style="fill:none;stroke:#000000"
         inkscape:connector-curvature="0"
         id="path703"
         d="m 1136.355,374.674 c 0,0 1.905,0.986 3.284,3.352" />
      <path
         style="fill:none;stroke:#000000"
         inkscape:connector-curvature="0"
         id="path705"
         d="m 1136.617,376.842 c 0,0 1.381,0.658 2.561,2.498" />
      <path
         style="fill:none;stroke:#000000"
         inkscape:connector-curvature="0"
         id="path707"
         d="m 1136.717,378.519 c 0,0 0.919,0.688 2.167,2.134" />
      <path
         style="fill:none;stroke:#000000"
         inkscape:connector-curvature="0"
         id="path709"
         d="m 1136.583,379.864 c 0,0 1.15,0.92 1.873,1.971" />
      <path
         style="fill:none;stroke:#000000"
         inkscape:connector-curvature="0"
         id="path711"
         d="m 1129.917,357.465 c 0,0 -0.983,0.459 -0.657,1.575" />
      <line
         style="fill:none;stroke:#000000"
         id="line713"
         y2="357.39801"
         x2="1132.2159"
         y1="354.37701"
         x1="1132.348" />
      <path
         style="fill:#f3e6de;stroke:#000000"
         inkscape:connector-curvature="0"
         id="path715"
         d="m 1154.782,334.701 c 0,0 -0.296,1.38 -0.099,1.97 0.198,0.592 0.69,2.168 1.182,2.364 0.493,0.198 0.888,-0.196 1.083,0.198 0.198,0.394 0,0.986 0,0.986 l -0.59,0.69 c 0,0 -4.336,0.294 -6.504,2.954 -2.167,2.661 -2.365,2.562 -2.365,2.562 l -1.28,4.239 -0.296,3.251 0.197,3.349 c 0,0 -5.025,2.069 -6.01,3.844 l -0.298,-5.125 -0.984,-3.151 0.493,-8.673 c 0,0 3.396,-3.523 3.939,-4.434 1.118,-1.86 1.184,-3.45 1.184,-3.45 v -1.478 l 1.38,-1.279 0.986,-0.1 -0.69,1.379 0.099,1.478 2.167,-0.886 z" />
      <polyline
         style="fill:#f3e6de"
         id="polyline717"
         points="1159.93,351.698 1151.062,354.951 1151.432,352.635 1152.121,350.566   " />
      <path
         style="fill:#fbdd2a;stroke:#000000"
         inkscape:connector-curvature="0"
         id="path719"
         d="m 1156.358,330.562 c 0,0 0.297,1.28 -0.099,2.464 -0.395,1.183 -0.985,1.675 -1.478,1.675 -0.493,0 -3.153,0.197 -3.647,0.197 -0.492,0 -1.083,-0.1 -1.873,0 -0.787,0.099 -1.082,0.099 -1.772,0.59 -0.688,0.495 -1.28,0.788 -1.28,0.788 0,0 -0.099,-1.478 0.196,-1.872 0.297,-0.393 1.084,-1.182 1.774,-1.182 0.69,0 2.463,-0.098 2.758,-0.098 0.298,0 2.17,0.098 2.959,-0.296 0.788,-0.393 2.462,-2.266 2.462,-2.266 z" />
      <path
         style="fill:#fbdd2a;stroke:#000000"
         inkscape:connector-curvature="0"
         id="path721"
         d="m 1153.993,341.204 c 0,0 -3.056,1.381 -4.731,3.253 -1.674,1.872 -1.969,2.267 -2.56,3.939 -0.592,1.676 -0.691,4.337 -0.691,4.83 0,0.492 0.494,6.404 0.494,6.897 0,0.493 0.098,3.055 -0.197,4.434 -0.297,1.38 -0.986,2.168 -1.282,2.562 -0.294,0.393 -1.182,1.575 -1.182,1.575 0,0 2.167,0.198 3.844,-2.658 1.674,-2.858 2.462,-6.997 2.758,-8.672 0.297,-1.674 0.888,-6.405 2.168,-8.08 1.283,-1.676 2.269,-3.153 3.45,-3.942 1.182,-0.787 2.365,-1.281 2.365,-1.281 0,0 -0.493,-2.166 -1.184,-2.464 -0.689,-0.295 -0.788,-0.688 -1.479,-0.59 -0.689,0.099 -1.773,0.197 -1.773,0.197 z" />
      <path
         style="fill:none;stroke:#000000"
         inkscape:connector-curvature="0"
         id="path723"
         d="m 1148.87,350.369 c 0,0 -1.183,2.857 -1.381,4.236 -0.196,1.379 -0.1,4.632 -0.196,5.618 -0.1,0.983 -0.492,3.842 -0.492,4.236 0,0.394 -1.775,3.941 -1.775,3.941" />
      <path
         style="fill:none;stroke:#000000"
         inkscape:connector-curvature="0"
         id="path725"
         d="m 1149.56,353.719 c 0,0 -0.763,3.356 -0.886,4.434 -0.298,2.562 -0.645,3.44 -0.79,4.337 -0.591,3.646 -3.152,5.912 -3.152,5.912" />
      <path
         style="fill:none;stroke:#000000"
         inkscape:connector-curvature="0"
         id="path727"
         d="m 1151.924,335.095 c 0,0 -0.099,0.69 -0.295,0.986 -0.197,0.296 -0.394,0.296 -0.887,0.296 -0.494,0 -1.48,0 -1.48,0 0,0 -1.181,0 -1.181,0.394 0,0.395 -0.099,0.789 1.181,0.789 1.282,0 1.381,0 1.381,0 l 0.1,2.265 c 0,0 -0.198,0.1 -1.085,0.788 -0.886,0.69 -1.379,1.184 -1.478,1.577 -0.099,0.396 -0.099,1.38 -0.099,1.38 v 1.873" />
      <path
         style="fill:none;stroke:#000000"
         inkscape:connector-curvature="0"
         id="path729"
         d="m 1141.971,341.008 c 0,0 1.183,0.395 1.578,0.888 0.394,0.49 1.083,1.083 1.183,1.772 0.098,0.69 0.985,4.533 0.985,4.533" />
      <line
         style="fill:none;stroke:#000000"
         id="line731"
         y2="347.905"
         x2="1140.101"
         y1="347.905"
         x1="1138.72" />
      <path
         style="fill:none;stroke:#000000"
         inkscape:connector-curvature="0"
         id="path733"
         d="m 1140.197,347.314 c 0,0 0.199,2.562 0.691,3.547 0.491,0.984 1.772,1.773 2.067,1.773 0.295,0 2.858,-0.099 2.858,-0.099" />
      <path
         style="fill:#f3e6de;stroke:#000000"
         inkscape:connector-curvature="0"
         id="path735"
         d="m 1157.048,345.048 -0.393,3.449 1.674,-0.101 c 0,0 0.1,0.101 0.59,0.691 0.495,0.592 0.79,0.295 0.79,0.984 0,0.69 0.195,1.479 0.195,1.479 h -4.334 l -1.479,0.196 -2.66,0.888 c 0,0 1.182,-3.447 2.562,-4.927 1.381,-1.477 3.055,-2.659 3.055,-2.659 z" />
      <path
         style="fill:none;stroke:#000000"
         inkscape:connector-curvature="0"
         id="path737"
         d="m 1146.11,357.266 c 0,0 -3.646,1.577 -4.435,2.268 -0.787,0.69 -1.575,1.576 -1.575,1.576 0,0 2.855,-3.547 5.319,-5.125 2.464,-1.576 0.591,-0.395 0.591,-0.395 z" />
      <path
         style="fill:none;stroke:#000000"
         inkscape:connector-curvature="0"
         id="path739"
         d="m 1153.797,339.233 c 0,0 -0.986,0.197 -1.281,0.69 -0.297,0.492 0,1.183 0,1.183 l 0.395,0.491" />
      <path
         style="stroke:#000000"
         inkscape:connector-curvature="0"
         id="path741"
         d="m 1150.149,336.377 v 1.084 c 0,0 -2.266,0.296 -2.167,-0.198 0.099,-0.492 0,-0.787 0.492,-0.787 0.495,0 1.675,-0.099 1.675,-0.099 z" />
      <path
         style="fill:none;stroke:#000000"
         inkscape:connector-curvature="0"
         id="path743"
         d="m 1159.904,351.551 c 0,0 -6.503,2.267 -9.064,3.646" />
      <polygon
         style="fill:none;stroke:#000000"
         id="polygon745"
         points="1156.655,346.033 1155.374,346.132 1156.063,345.343 1156.948,345.442 " />
      <path
         style="fill:#65368e;stroke:#000000"
         inkscape:connector-curvature="0"
         id="path747"
         d="m 1151.333,328.691 c 0,0 -11.924,0.688 -12.81,1.28 0,0 0.196,3.548 -0.197,4.138 -0.394,0.592 -1.379,2.069 -1.379,2.069 -0.69,0.198 -2.366,1.084 -3.844,0.986 -1.479,-0.099 -5.123,-1.38 -6.011,-1.479 -0.887,-0.099 -3.154,-0.296 -3.154,-0.296 l -3.251,2.07 0.196,4.729 6.7,-3.25 c 0,0 2.07,1.772 3.746,2.068 1.673,0.295 3.35,0.295 4.531,-0.098 1.183,-0.395 2.465,-1.086 3.352,-2.268 0.888,-1.182 1.281,-1.576 1.379,-2.266 0.1,-0.69 0.197,-1.38 0.197,-1.38 l 3.549,-0.593 c 0,0 1.673,-1.871 5.714,-1.773 4.04,0.1 3.546,0 3.546,0 z" />
      <path
         style="fill:#ffffff;stroke:#000000"
         inkscape:connector-curvature="0"
         id="path749"
         d="m 1138.523,329.972 c 0,0 -0.677,-2.123 -1.627,-3.146 -0.508,-0.546 -2.071,-1.797 -3.793,-1.979 -2.067,-0.217 -11.824,0.298 -12.416,0.298 -0.591,0 -3.448,0.393 -5.911,-0.396 -2.465,-0.787 -3.846,-2.266 -5.026,-3.939 -1.183,-1.676 -1.675,-2.169 -1.872,-5.618 -0.197,-3.447 -0.493,-4.434 -0.493,-5.223 0,-0.788 -0.591,-2.365 -1.085,-3.547 -0.361,-0.868 -0.841,-1.453 -0.841,-1.453 l -1.253,-1.485 -0.701,-0.47 c 0,0 0.671,1.308 0.858,1.643 0.493,0.888 0.359,0.977 0.459,3.835 0.099,2.856 -0.394,9.46 -0.296,10.051 0.1,0.592 0.428,4.07 2.759,7.489 1.479,2.168 2.267,3.547 6.111,6.009 3.843,2.465 6.219,2.956 8.211,3.586 2.496,0.788 4.732,1.133 4.732,1.133 l 3.051,0.509 c 0,0 4.211,0.291 5.847,-0.364 0.987,-0.395 1.854,-0.534 2.792,-2.104 1.169,-1.954 0.494,-4.829 0.494,-4.829 z" />
      <path
         inkscape:connector-curvature="0"
         id="path751"
         d="m 1123.742,323.961 c 0,0 -2.268,-1.577 -3.35,-2.562 -1.084,-0.985 -2.268,-3.054 -2.662,-4.04 -0.393,-0.984 -1.183,-4.532 -1.478,-6.602 -0.295,-2.07 -0.897,-3.121 -1.294,-4.106 -0.291,-0.73 -1.444,-2.113 -1.444,-2.113 l -1.644,-1.445 c 0,0 1.271,0.292 1.895,0.547 0.629,0.255 0.981,0.393 2.271,1.642 0.905,0.877 2.052,2.934 2.052,2.934 l 1.415,3.133 c 0,0 1.578,3.646 2.958,5.52 1.378,1.872 4.04,1.479 4.04,1.479 l -0.02,1.078" />
      <path
         inkscape:connector-curvature="0"
         id="path753"
         d="m 1105.109,322.288 c -0.033,-0.163 -0.063,-0.329 -0.088,-0.494 -0.678,-4.227 -0.396,-7.49 -0.396,-8.278 0,-0.788 0.196,-4.631 -0.1,-6.208 -0.295,-1.576 -0.632,-3.2 -0.632,-3.2 l -0.938,-1.483 c 2.406,1.528 3.192,3.418 3.344,3.797 0.592,1.478 1.085,3.547 1.085,4.139 0,0.592 0.296,4.238 0.296,4.238 v 1.083 l -1.184,-1.577 -0.542,-1.43 0.052,4.584 -0.495,0.395 c 0,0 -0.057,0.16 -0.078,0.492" />
      <path
         style="fill:#ffffff"
         inkscape:connector-curvature="0"
         id="path755"
         d="m 1119.751,313.96 c -0.243,-0.407 -0.687,-0.984 -0.985,-1.282 -0.297,-0.298 -0.561,-0.719 -0.723,-0.828 0,0 -0.203,0.342 -0.303,0.736 -0.098,0.393 -0.366,0.668 -0.173,1.773 0.183,1.041 0.39,1.473 0.39,1.473 0.38,1.354 0.492,1.703 0.736,2.163 0.243,0.461 0.734,1.773 1.643,2.598 0,0 0.392,0.39 0.943,0.511 0.981,0.218 2.2,0.492 2.692,-0.295 0.492,-0.79 0.362,-0.79 0.362,-0.79 0,-0.271 -0.09,-0.647 -0.197,-0.838 -0.109,-0.188 -0.465,-0.544 -0.789,-0.787 -0.324,-0.244 -0.902,-0.755 -1.28,-1.134 -0.38,-0.379 -0.847,-0.911 -1.035,-1.182 -0.189,-0.271 -0.454,-0.693 -0.591,-0.937 -0.136,-0.244 -0.446,-0.776 -0.69,-1.181 z" />
      <path
         inkscape:connector-curvature="0"
         id="path757"
         d="m 1157.195,351.551 c 0,0 0.74,0.05 0.74,0.346 0,0.295 -0.149,0.246 -0.592,0.493 -0.443,0.245 1.774,-0.789 1.774,-0.789 z" />
      <path
         style="fill:none;stroke:#000000"
         inkscape:connector-curvature="0"
         id="path759"
         d="m 1105.481,314.828 c 0,0 -0.083,4.935 1.129,7.201 1.207,2.268 1.392,2.429 1.392,2.429" />
      <path
         style="fill:none;stroke:#000000"
         inkscape:connector-curvature="0"
         id="path761"
         d="m 1106.619,313.798 c 0,0 0.096,5.268 0.593,6.492 0.738,1.824 1.379,2.216 1.379,2.216" />
      <path
         style="fill:none;stroke:#000000"
         inkscape:connector-curvature="0"
         id="path763"
         d="m 1117.438,312.022 c 0,0 0.884,2.971 1.278,3.563 v 0" />
      <path
         style="fill:none;stroke:#000000"
         inkscape:connector-curvature="0"
         id="path765"
         d="m 1118.027,311.151 c 0,0 0.245,0.621 0.541,1.379 0.298,0.759 0.607,1.513 0.69,1.676 0.08,0.162 0.148,0.294 0.148,0.294" />
    </g>
  </g>
</svg>
